<?xml version="1.0" encoding="utf-8"?>
<!-- Generator: Adobe Illustrator 23.1.1, SVG Export Plug-In . SVG Version: 6.00 Build 0)  -->
<svg version="1.1" xmlns="http://www.w3.org/2000/svg" xmlns:xlink="http://www.w3.org/1999/xlink" x="0px" y="0px"
	 viewBox="0 0 3300 2200" style="enable-background:new 0 0 3300 2200;" xml:space="preserve">
<style type="text/css">
	.st0{fill:#FFFFFF;}
	.st1{fill:none;stroke:#000000;stroke-width:0.5;}
	.st2{font-family:'Arial-BoldMT';}
	.st3{font-size:12px;}
	.st4{font-family:'ArialMT';}
	.st5{opacity:0.4;fill:#00AEEF;enable-background:new    ;}
	.st6{fill:#27AAE1;}
	.st7{fill:none;stroke:#27AAE1;stroke-width:0.577;}
</style>
<g id="Livello_1">
	<g id="Notes">
		<rect id="artboard" class="st0" width="3300" height="2200"/>
		<line class="st1" x1="263" y1="292" x2="3036" y2="292"/>
		<text transform="matrix(1 0 0 1 263 322)" class="st2 st3">Weight/Scale Variations</text>
		<text transform="matrix(1 0 0 1 536.0362 322)" class="st4 st3">Ultralight</text>
		<text transform="matrix(1 0 0 1 844.7501 322)" class="st4 st3">Thin</text>
		<text transform="matrix(1 0 0 1 1140.1193 322)" class="st4 st3">Light</text>
		<text transform="matrix(1 0 0 1 1428.8282 322)" class="st4 st3">Regular</text>
		<text transform="matrix(1 0 0 1 1725.2202 322)" class="st4 st3">Medium</text>
		<text transform="matrix(1 0 0 1 2018.2563 322)" class="st4 st3">Semibold</text>
		<text transform="matrix(1 0 0 1 2327.9712 322)" class="st4 st3">Bold</text>
		<text transform="matrix(1 0 0 1 2619.6831 322)" class="st4 st3">Heavy</text>
		<text transform="matrix(1 0 0 1 2918.728 322)" class="st4 st3">Black</text>
		<line class="st1" x1="263" y1="1903" x2="3036" y2="1903"/>
		<g transform="matrix(1 0 0 1 263 1933)">
			<path d="M9.2,0.8c4.3,0,7.9-3.6,7.9-7.9c0-4.3-3.6-7.9-7.9-7.9c-4.3,0-7.9,3.6-7.9,7.9C1.4-2.7,5,0.8,9.2,0.8z M9.2-0.7
				c-3.5,0-6.4-2.8-6.4-6.4c0-3.6,2.8-6.4,6.4-6.4c3.6,0,6.4,2.8,6.4,6.4C15.7-3.5,12.8-0.7,9.2-0.7z M9.2-3.4
				c0.5,0,0.7-0.3,0.7-0.8v-2.1h2.2C12.7-6.3,13-6.6,13-7c0-0.5-0.3-0.7-0.8-0.7H10V-10c0-0.5-0.3-0.8-0.7-0.8S8.5-10.5,8.5-10v2.2
				H6.3C5.8-7.8,5.4-7.5,5.4-7c0,0.5,0.4,0.7,0.8,0.7h2.2v2.1C8.5-3.8,8.8-3.4,9.2-3.4z"/>
		</g>
		<g transform="matrix(1 0 0 1 281.506 1933)">
			<path d="M11.7,2.9c5.4,0,10-4.5,10-10c0-5.4-4.5-10-10-10c-5.4,0-10,4.5-10,10C1.7-1.6,6.3,2.9,11.7,2.9z M11.7,1.2
				c-4.6,0-8.3-3.7-8.3-8.3c0-4.6,3.7-8.3,8.3-8.3c4.6,0,8.3,3.7,8.3,8.3C20-2.4,16.3,1.2,11.7,1.2z M11.7-2.4
				c0.5,0,0.8-0.4,0.8-0.9v-2.9h3.1c0.5,0,0.9-0.3,0.9-0.8c0-0.5-0.4-0.8-0.9-0.8h-3.1v-3.1c0-0.6-0.3-0.9-0.8-0.9
				c-0.5,0-0.8,0.4-0.8,0.9v3.1h-3C7.3-7.9,6.9-7.6,6.9-7c0,0.5,0.4,0.8,0.9,0.8h3v2.9C10.9-2.8,11.2-2.4,11.7-2.4z"/>
		</g>
		<g transform="matrix(1 0 0 1 304.924 1933)">
			<path d="M15,5.7c7,0,12.7-5.8,12.7-12.7c0-7-5.8-12.7-12.7-12.7C8-19.8,2.3-14,2.3-7C2.3-0.1,8,5.7,15,5.7z M15,3.9
				C8.9,3.9,4.1-1,4.1-7c0-6,4.8-10.9,10.9-10.9c6,0,10.9,4.9,10.9,10.9C25.9-1,21,3.9,15,3.9z M15-1.1c0.6,0,0.9-0.4,0.9-1v-4.1
				h4.2c0.6,0,1-0.3,1-0.9c0-0.6-0.4-0.9-1-0.9h-4.2v-4.2c0-0.6-0.4-1-0.9-1c-0.6,0-0.9,0.4-0.9,1v4.2H9.8c-0.6,0-1,0.3-1,0.9
				c0,0.6,0.4,0.9,1,0.9h4.2v4.1C14.1-1.5,14.4-1.1,15-1.1z"/>
		</g>
		<text transform="matrix(1 0 0 1 263 1953)" class="st2 st3">Design Variations</text>
		<text transform="matrix(1 0 0 1 263 1971)" class="st4 st3">Symbols are supported in up to nine weights and three scales.</text>
		<text transform="matrix(1 0 0 1 263 1989)" class="st4 st3">For optimal layout with text and other symbols, vertically align</text>
		<text transform="matrix(1 0 0 1 263 2007)" class="st4 st3">symbols with the adjacent text.</text>
		<rect x="776" y="1919" class="st5" width="3" height="14"/>
		<g transform="matrix(1 0 0 1 779 1933)">
			<path d="M10.5,0h1.8L7.2-14.1H5.4L0.2,0h1.8l1.4-4h5.6L10.5,0z M6.3-12L6.3-12l2.3,6.4H4L6.3-12z"/>
		</g>
		<rect x="791.6" y="1919" class="st5" width="3" height="14"/>
		<text transform="matrix(1 0 0 1 776 1953)" class="st2 st3">Margins</text>
		<text transform="matrix(1 0 0 1 776 1971)" class="st4 st3">Leading and trailing margins on the left and right side of each symbol</text>
		<text transform="matrix(1 0 0 1 776 1989)" class="st4 st3">can be adjusted by modifying the width of the blue rectangles.</text>
		<text transform="matrix(1 0 0 1 776 2007)" class="st4 st3">Modifications are automatically applied proportionally to all</text>
		<text transform="matrix(1 0 0 1 776 2025)" class="st4 st3">scales and weights.</text>
		<g transform="matrix(1 0 0 1 1289 1933)">
			<path d="M2.8,3.1l1.5,1.5c0.8,0.8,1.8,0.8,2.7-0.2L17.3-6.7c0.4,0.3,0.8,0.3,1.3,0.2l1-0.2L20.3-6l0,0.5C20.2-5,20.4-4.5,20.8-4
				l0.8,0.8c0.5,0.5,1.2,0.5,1.6,0.1l3.3-3.3c0.5-0.5,0.5-1.1,0-1.6l-0.8-0.8c-0.5-0.5-0.9-0.7-1.4-0.6l-0.5,0.1l-0.7-0.7l0.3-1.1
				c0.1-0.6,0-1-0.6-1.6l-2.4-2.4c-3.5-3.5-8.1-3.4-11.2-0.3c-0.4,0.4-0.5,1-0.2,1.4c0.2,0.4,0.7,0.6,1.4,0.4c1.5-0.4,3-0.3,4.5,0.7
				l-0.6,1.6c-0.2,0.6-0.2,1.1,0,1.5L3,0.4C2.1,1.3,2,2.3,2.8,3.1z M10.7-15.1c2.7-2,6-1.7,8.4,0.7l2.6,2.6c0.2,0.2,0.3,0.4,0.2,0.7
				l-0.4,1.6L23.1-8L24-8c0.3,0,0.4,0,0.6,0.2l0.6,0.6l-2.8,2.7l-0.6-0.6c-0.2-0.2-0.2-0.3-0.2-0.6l0.1-1l-1.6-1.6l-1.6,0.3
				c-0.3,0.1-0.4,0.1-0.7-0.2l-2.2-2.2c-0.2-0.2-0.3-0.4-0.1-0.7l0.9-2.3c-1.6-1.5-3.7-2.4-5.8-1.7c-0.1,0-0.2,0-0.2,0
				C10.6-15,10.6-15.1,10.7-15.1z M4.1,2.4c-0.5-0.5-0.3-0.8,0-1.1l11-10.1l1.2,1.2L6.2,3.3c-0.3,0.3-0.7,0.4-1.1,0L4.1,2.4z"/>
		</g>
		<text transform="matrix(1 0 0 1 1289 1953)" class="st2 st3">Exporting</text>
		<text transform="matrix(1 0 0 1 1289 1971)" class="st4 st3">Symbols should be outlined when exporting to ensure the</text>
		<text transform="matrix(1 0 0 1 1289 1989)" class="st4 st3">design is preserved when submitting to Xcode.</text>
		<text id="template-version" transform="matrix(1 0 0 1 2958.8496 1933)" class="st4 st3">Template v.1.0</text>
		<text transform="matrix(1 0 0 1 2767.1719 1951)" class="st4 st3">Generated from square.and.arrow.down.on.square</text>
		<text transform="matrix(1 0 0 1 2921.9238 1969)" class="st4 st3">Typeset at 100 points</text>
		<text transform="matrix(1 0 0 1 263 726)" class="st4 st3">Small</text>
		<text transform="matrix(1 0 0 1 263 1156)" class="st4 st3">Medium</text>
		<text transform="matrix(1 0 0 1 263 1586)" class="st4 st3">Large</text>
	</g>
	<g id="Guides">
		<g id="H-reference" transform="matrix(1 0 0 1 339 696)">
			<path class="st6" d="M54.9,0h2.7L30.6-70.5h-2.5L1,0h2.7l9.3-24.5h32.8L54.9,0z M29.2-67.1h0.2l15.4,40.4h-31L29.2-67.1z"/>
		</g>
		<line id="Baseline-S" class="st7" x1="263" y1="696" x2="3036" y2="696"/>
		<line id="Capline-S" class="st7" x1="263" y1="625.5" x2="3036" y2="625.5"/>
		<g transform="matrix(1 0 0 1 339 1126)">
			<path class="st6" d="M54.9,0h2.7L30.6-70.5h-2.5L1,0h2.7l9.3-24.5h32.8L54.9,0z M29.2-67.1h0.2l15.4,40.4h-31L29.2-67.1z"/>
		</g>
		<line id="Baseline-M" class="st7" x1="263" y1="1126" x2="3036" y2="1126"/>
		<line id="Capline-M" class="st7" x1="263" y1="1055.5" x2="3036" y2="1055.5"/>
		<g transform="matrix(1 0 0 1 339 1556)">
			<path class="st6" d="M54.9,0h2.7L30.6-70.5h-2.5L1,0h2.7l9.3-24.5h32.8L54.9,0z M29.2-67.1h0.2l15.4,40.4h-31L29.2-67.1z"/>
		</g>
		<line id="Baseline-L" class="st7" x1="263" y1="1556" x2="3036" y2="1556"/>
		<line id="Capline-L" class="st7" x1="263" y1="1485.5" x2="3036" y2="1485.5"/>
		<rect id="left-margin" x="1381.9" y="1030.8" class="st5" width="12.5" height="119.3"/>
		<rect id="right-margin" x="1505.4" y="1030.8" class="st5" width="12.5" height="119.3"/>
	</g>
	<g id="Symbols">
		<g id="Black-L" transform="matrix(1 0 0 1 2839.21 1556)">
			<path d="M94.8-126.2c0,0-71.3,78.3-71.3,117.2s31.8,70.7,70.7,70.7c2.4,0,5.3,0,7.7-0.6c0.6,0,1.2,0,1.8-0.6
				c1.8,0,3.5-0.6,5.3-0.6c0.6,0,1.2-0.6,2.4-0.6c1.8-0.6,3.5-0.6,5.3-1.2c0.6,0,1.2-0.6,1.8-0.6c1.8-0.6,3.5-1.2,5.3-1.8
				c0.6,0,1.2-0.6,1.2-0.6c1.8-0.6,3.5-1.8,5.3-2.9c0.6,0,0.6-0.6,1.2-0.6c1.8-1.2,3.5-2.4,5.3-3.5c0,0,0.6,0,0.6-0.6
				c1.8-1.2,3.5-2.9,5.3-4.1C156,29.9,164.9,11.6,164.9-9C164.9-46.7,100.1-120.3,94.8-126.2z M123.6-9c-6.5,0-11.8-5.3-11.8-11.8
				s5.3-11.8,11.8-11.8c6.5,0,11.8,5.3,11.8,11.8C135.4-14.3,130.1-9,123.6-9z"/>
		</g>
		<g id="Heavy-L" transform="matrix(1 0 0 1 2544.26 1556)">
			<path d="M93-126.2c0,0-71.3,78.3-71.3,117.2s31.8,70.7,70.7,70.7c2.4,0,5.3,0,7.7-0.6c0.6,0,1.2,0,1.8-0.6c1.8,0,3.5-0.6,5.3-0.6
				c0.6,0,1.2-0.6,2.4-0.6c1.8-0.6,3.5-0.6,5.3-1.2c0.6,0,1.2-0.6,1.8-0.6c1.8-0.6,3.5-1.2,5.3-1.8c0.6,0,1.2-0.6,1.2-0.6
				c1.8-0.6,3.5-1.8,5.3-2.9c0.6,0,0.6-0.6,1.2-0.6c1.8-1.2,3.5-2.4,5.3-3.5c0,0,0.6,0,0.6-0.6c1.8-1.2,3.5-2.9,5.3-4.1
				c13.5-13.5,22.4-31.8,22.4-52.4C163.1-46.7,98.3-120.3,93-126.2z M121.9-9c-6.5,0-11.8-5.3-11.8-11.8s5.3-11.8,11.8-11.8
				c6.5,0,11.8,5.3,11.8,11.8C133.7-14.3,128.4-9,121.9-9z"/>
		</g>
		<g id="Bold-L" transform="matrix(1 0 0 1 2249.5 1556)">
			<path d="M91.1-126.2c0,0-71.3,78.3-71.3,117.2s31.8,70.7,70.7,70.7c2.4,0,5.3,0,7.7-0.6c0.6,0,1.2,0,1.8-0.6
				c1.8,0,3.5-0.6,5.3-0.6c0.6,0,1.2-0.6,2.4-0.6c1.8-0.6,3.5-0.6,5.3-1.2c0.6,0,1.2-0.6,1.8-0.6c1.8-0.6,3.5-1.2,5.3-1.8
				c0.6,0,1.2-0.6,1.2-0.6c1.8-0.6,3.5-1.8,5.3-2.9c0.6,0,0.6-0.6,1.2-0.6c1.8-1.2,3.5-2.4,5.3-3.5c0,0,0.6,0,0.6-0.6
				c1.8-1.2,3.5-2.9,5.3-4.1c13.5-13.5,22.4-31.8,22.4-52.4C161.1-46.7,96.4-120.3,91.1-126.2z M119.9-9c-6.5,0-11.8-5.3-11.8-11.8
				s5.3-11.8,11.8-11.8c6.5,0,11.8,5.3,11.8,11.8C131.7-14.3,126.4-9,119.9-9z"/>
		</g>
		<g id="Semibold-L" transform="matrix(1 0 0 1 1954.16 1556)">
			<path d="M89.7-126.2c0,0-71.3,78.3-71.3,117.2s31.8,70.7,70.7,70.7c2.4,0,5.3,0,7.7-0.6c0.6,0,1.2,0,1.8-0.6
				c1.8,0,3.5-0.6,5.3-0.6c0.6,0,1.2-0.6,2.4-0.6c1.8-0.6,3.5-0.6,5.3-1.2c0.6,0,1.2-0.6,1.8-0.6c1.8-0.6,3.5-1.2,5.3-1.8
				c0.6,0,1.2-0.6,1.2-0.6c1.8-0.6,3.5-1.8,5.3-2.9c0.6,0,0.6-0.6,1.2-0.6c1.8-1.2,3.5-2.4,5.3-3.5c0,0,0.6,0,0.6-0.6
				c1.8-1.2,3.5-2.9,5.3-4.1c13.5-13.5,22.4-31.8,22.4-52.4C159.8-46.7,95-120.3,89.7-126.2z M118.6-9c-6.5,0-11.8-5.3-11.8-11.8
				s5.3-11.8,11.8-11.8c6.5,0,11.8,5.3,11.8,11.8C130.3-14.3,125-9,118.6-9z"/>
		</g>
		<g id="Medium-L" transform="matrix(1 0 0 1 1658.47 1556)">
			<path d="M88.7-126.2c0,0-71.3,78.3-71.3,117.2s31.8,70.7,70.7,70.7c2.4,0,5.3,0,7.7-0.6c0.6,0,1.2,0,1.8-0.6
				c1.8,0,3.5-0.6,5.3-0.6c0.6,0,1.2-0.6,2.4-0.6c1.8-0.6,3.5-0.6,5.3-1.2c0.6,0,1.2-0.6,1.8-0.6c1.8-0.6,3.5-1.2,5.3-1.8
				c0.6,0,1.2-0.6,1.2-0.6c1.8-0.6,3.5-1.8,5.3-2.9c0.6,0,0.6-0.6,1.2-0.6c1.8-1.2,3.5-2.4,5.3-3.5c0,0,0.6,0,0.6-0.6
				c1.8-1.2,3.5-2.9,5.3-4.1c13.5-13.5,22.4-31.8,22.4-52.4C158.8-46.7,94-120.3,88.7-126.2z M117.5-9c-6.5,0-11.8-5.3-11.8-11.8
				s5.3-11.8,11.8-11.8c6.5,0,11.8,5.3,11.8,11.8C129.3-14.3,124-9,117.5-9z"/>
		</g>
		<g id="Regular-L" transform="matrix(1 0 0 1 1363.1 1556)">
			<path d="M87.3-126.2c0,0-71.3,78.3-71.3,117.2s31.8,70.7,70.7,70.7c2.4,0,5.3,0,7.7-0.6c0.6,0,1.2,0,1.8-0.6
				c1.8,0,3.5-0.6,5.3-0.6c0.6,0,1.2-0.6,2.4-0.6c1.8-0.6,3.5-0.6,5.3-1.2c0.6,0,1.2-0.6,1.8-0.6c1.8-0.6,3.5-1.2,5.3-1.8
				c0.6,0,1.2-0.6,1.2-0.6c1.8-0.6,3.5-1.8,5.3-2.9c0.6,0,0.6-0.6,1.2-0.6c1.8-1.2,3.5-2.4,5.3-3.5c0,0,0.6,0,0.6-0.6
				c1.8-1.2,3.5-2.9,5.3-4.1c13.5-13.5,22.4-31.8,22.4-52.4C157.4-46.7,92.6-120.3,87.3-126.2z M116.2-9c-6.5,0-11.8-5.3-11.8-11.8
				s5.3-11.8,11.8-11.8c6.5,0,11.8,5.3,11.8,11.8C128-14.3,122.7-9,116.2-9z"/>
		</g>
		<g id="Light-L" transform="matrix(1 0 0 1 1067.68 1556)">
			<path d="M86-126.2c0,0-71.3,78.3-71.3,117.2s31.8,70.7,70.7,70.7c2.4,0,5.3,0,7.7-0.6c0.6,0,1.2,0,1.8-0.6c1.8,0,3.5-0.6,5.3-0.6
				c0.6,0,1.2-0.6,2.4-0.6c1.8-0.6,3.5-0.6,5.3-1.2c0.6,0,1.2-0.6,1.8-0.6c1.8-0.6,3.5-1.2,5.3-1.8c0.6,0,1.2-0.6,1.2-0.6
				c1.8-0.6,3.5-1.8,5.3-2.9c0.6,0,0.6-0.6,1.2-0.6c1.8-1.2,3.5-2.4,5.3-3.5c0,0,0.6,0,0.6-0.6c1.8-1.2,3.5-2.9,5.3-4.1
				c13.5-13.5,22.4-31.8,22.4-52.4C156.1-46.7,91.3-120.3,86-126.2z M114.9-9c-6.5,0-11.8-5.3-11.8-11.8s5.3-11.8,11.8-11.8
				c6.5,0,11.8,5.3,11.8,11.8C126.7-14.3,121.4-9,114.9-9z"/>
		</g>
		<g id="Thin-L" transform="matrix(1 0 0 1 772.682 1556)">
			<path d="M84.3-126.2c0,0-71.3,78.3-71.3,117.2s31.8,70.7,70.7,70.7c2.4,0,5.3,0,7.7-0.6c0.6,0,1.2,0,1.8-0.6
				c1.8,0,3.5-0.6,5.3-0.6c0.6,0,1.2-0.6,2.4-0.6c1.8-0.6,3.5-0.6,5.3-1.2c0.6,0,1.2-0.6,1.8-0.6c1.8-0.6,3.5-1.2,5.3-1.8
				c0.6,0,1.2-0.6,1.2-0.6c1.8-0.6,3.5-1.8,5.3-2.9c0.6,0,0.6-0.6,1.2-0.6c1.8-1.2,3.5-2.4,5.3-3.5c0,0,0.6,0,0.6-0.6
				c1.8-1.2,3.5-2.9,5.3-4.1c13.5-13.5,22.4-31.8,22.4-52.4C154.4-46.7,89.6-120.3,84.3-126.2z M113.2-9c-6.5,0-11.8-5.3-11.8-11.8
				s5.3-11.8,11.8-11.8c6.5,0,11.8,5.3,11.8,11.8C125-14.3,119.7-9,113.2-9z"/>
		</g>
		<g id="Ultralight-L" transform="matrix(1 0 0 1 476.85 1556)">
			<path d="M83.4-126.2c0,0-71.3,78.3-71.3,117.2S44,61.7,82.9,61.7c2.4,0,5.3,0,7.7-0.6c0.6,0,1.2,0,1.8-0.6c1.8,0,3.5-0.6,5.3-0.6
				c0.6,0,1.2-0.6,2.4-0.6c1.8-0.6,3.5-0.6,5.3-1.2c0.6,0,1.2-0.6,1.8-0.6c1.8-0.6,3.5-1.2,5.3-1.8c0.6,0,1.2-0.6,1.2-0.6
				c1.8-0.6,3.5-1.8,5.3-2.9c0.6,0,0.6-0.6,1.2-0.6c1.8-1.2,3.5-2.4,5.3-3.5c0,0,0.6,0,0.6-0.6c1.8-1.2,3.5-2.9,5.3-4.1
				c13.5-13.5,22.4-31.8,22.4-52.4C153.5-46.7,88.8-120.3,83.4-126.2z M112.3-9c-6.5,0-11.8-5.3-11.8-11.8s5.3-11.8,11.8-11.8
				c6.5,0,11.8,5.3,11.8,11.8C124.1-14.3,118.8-9,112.3-9z"/>
		</g>
		<g id="Black-M" transform="matrix(1 0 0 1 2858.74 1126)">
			<path d="M75.1-109.3c0,0-56,61.5-56,92.1s25,55.5,55.5,55.5c1.9,0,4.2,0,6-0.5c0.5,0,0.9,0,1.4-0.5c1.4,0,2.8-0.5,4.2-0.5
				c0.5,0,0.9-0.5,1.9-0.5c1.4-0.5,2.8-0.5,4.2-0.9c0.5,0,0.9-0.5,1.4-0.5c1.4-0.5,2.8-0.9,4.2-1.4c0.5,0,0.9-0.5,0.9-0.5
				c1.4-0.5,2.8-1.4,4.2-2.3c0.5,0,0.5-0.5,0.9-0.5c1.4-0.9,2.8-1.9,4.2-2.8c0,0,0.5,0,0.5-0.5c1.4-0.9,2.8-2.3,4.2-3.2
				c10.6-10.6,17.6-25,17.6-41.2C130.2-46.9,79.3-104.7,75.1-109.3z M97.8-17.3c-5.1,0-9.3-4.2-9.3-9.3s4.2-9.3,9.3-9.3
				c5.1,0,9.3,4.2,9.3,9.3C107-21.4,102.9-17.3,97.8-17.3z"/>
		</g>
		<g id="Heavy-M" transform="matrix(1 0 0 1 2563.59 1126)">
			<path d="M73.6-109.3c0,0-56,61.5-56,92.1s25,55.5,55.5,55.5c1.9,0,4.2,0,6-0.5c0.5,0,0.9,0,1.4-0.5c1.4,0,2.8-0.5,4.2-0.5
				c0.5,0,0.9-0.5,1.9-0.5c1.4-0.5,2.8-0.5,4.2-0.9c0.5,0,0.9-0.5,1.4-0.5c1.4-0.5,2.8-0.9,4.2-1.4c0.5,0,0.9-0.5,0.9-0.5
				c1.4-0.5,2.8-1.4,4.2-2.3c0.5,0,0.5-0.5,0.9-0.5c1.4-0.9,2.8-1.9,4.2-2.8c0,0,0.5,0,0.5-0.5c1.4-0.9,2.8-2.3,4.2-3.2
				c10.6-10.6,17.6-25,17.6-41.2C128.6-46.9,77.7-104.7,73.6-109.3z M96.2-17.3c-5.1,0-9.3-4.2-9.3-9.3s4.2-9.3,9.3-9.3
				c5.1,0,9.3,4.2,9.3,9.3C105.5-21.4,101.3-17.3,96.2-17.3z"/>
		</g>
		<g id="Bold-M" transform="matrix(1 0 0 1 2268.66 1126)">
			<path d="M71.8-109.3c0,0-56,61.5-56,92.1s25,55.5,55.5,55.5c1.9,0,4.2,0,6-0.5c0.5,0,0.9,0,1.4-0.5c1.4,0,2.8-0.5,4.2-0.5
				c0.5,0,0.9-0.5,1.9-0.5c1.4-0.5,2.8-0.5,4.2-0.9c0.5,0,0.9-0.5,1.4-0.5c1.4-0.5,2.8-0.9,4.2-1.4c0.5,0,0.9-0.5,0.9-0.5
				c1.4-0.5,2.8-1.4,4.2-2.3c0.5,0,0.5-0.5,0.9-0.5c1.4-0.9,2.8-1.9,4.2-2.8c0,0,0.5,0,0.5-0.5c1.4-0.9,2.8-2.3,4.2-3.2
				c10.6-10.6,17.6-25,17.6-41.2C126.8-46.9,75.9-104.7,71.8-109.3z M94.4-17.3c-5.1,0-9.3-4.2-9.3-9.3s4.2-9.3,9.3-9.3
				c5.1,0,9.3,4.2,9.3,9.3C103.7-21.4,99.5-17.3,94.4-17.3z"/>
		</g>
		<g id="Semibold-M" transform="matrix(1 0 0 1 1973.17 1126)">
			<path d="M70.6-109.3c0,0-56,61.5-56,92.1s25,55.5,55.5,55.5c1.9,0,4.2,0,6-0.5c0.5,0,0.9,0,1.4-0.5c1.4,0,2.8-0.5,4.2-0.5
				c0.5,0,0.9-0.5,1.9-0.5c1.4-0.5,2.8-0.5,4.2-0.9c0.5,0,0.9-0.5,1.4-0.5c1.4-0.5,2.8-0.9,4.2-1.4c0.5,0,0.9-0.5,0.9-0.5
				c1.4-0.5,2.8-1.4,4.2-2.3c0.5,0,0.5-0.5,0.9-0.5c1.4-0.9,2.8-1.9,4.2-2.8c0,0,0.5,0,0.5-0.5c1.4-0.9,2.8-2.3,4.2-3.2
				c10.6-10.6,17.6-25,17.6-41.2C125.6-46.9,74.7-104.7,70.6-109.3z M93.2-17.3c-5.1,0-9.3-4.2-9.3-9.3s4.2-9.3,9.3-9.3
				c5.1,0,9.3,4.2,9.3,9.3C102.5-21.4,98.3-17.3,93.2-17.3z"/>
		</g>
		<g id="Medium-M" transform="matrix(1 0 0 1 1677.39 1126)">
			<path d="M69.6-109.3c0,0-56,61.5-56,92.1s25,55.5,55.5,55.5c1.9,0,4.2,0,6-0.5c0.5,0,0.9,0,1.4-0.5c1.4,0,2.8-0.5,4.2-0.5
				c0.5,0,0.9-0.5,1.9-0.5c1.4-0.5,2.8-0.5,4.2-0.9c0.5,0,0.9-0.5,1.4-0.5c1.4-0.5,2.8-0.9,4.2-1.4c0.5,0,0.9-0.5,0.9-0.5
				c1.4-0.5,2.8-1.4,4.2-2.3c0.5,0,0.5-0.5,0.9-0.5c1.4-0.9,2.8-1.9,4.2-2.8c0,0,0.5,0,0.5-0.5c1.4-0.9,2.8-2.3,4.2-3.2
				c10.6-10.6,17.6-25,17.6-41.2C124.7-46.9,73.8-104.7,69.6-109.3z M92.3-17.3c-5.1,0-9.3-4.2-9.3-9.3s4.2-9.3,9.3-9.3
				c5.1,0,9.3,4.2,9.3,9.3C101.5-21.4,97.4-17.3,92.3-17.3z"/>
		</g>
		<g id="Regular-M" transform="matrix(1 0 0 1 1381.88 1126)">
			<path d="M68.4-109.3c0,0-56,61.5-56,92.1s25,55.5,55.5,55.5c1.9,0,4.2,0,6-0.5c0.5,0,0.9,0,1.4-0.5c1.4,0,2.8-0.5,4.2-0.5
				c0.5,0,0.9-0.5,1.9-0.5c1.4-0.5,2.8-0.5,4.2-0.9c0.5,0,0.9-0.5,1.4-0.5c1.4-0.5,2.8-0.9,4.2-1.4c0.5,0,0.9-0.5,0.9-0.5
				c1.4-0.5,2.8-1.4,4.2-2.3c0.5,0,0.5-0.5,0.9-0.5c1.4-0.9,2.8-1.9,4.2-2.8c0,0,0.5,0,0.5-0.5c1.4-0.9,2.8-2.3,4.2-3.2
				c10.6-10.6,17.6-25,17.6-41.2C123.5-46.9,72.6-104.7,68.4-109.3z M91.1-17.3c-5.1,0-9.3-4.2-9.3-9.3s4.2-9.3,9.3-9.3
				c5.1,0,9.3,4.2,9.3,9.3C100.3-21.4,96.2-17.3,91.1-17.3z"/>
		</g>
		<g id="Light-M" transform="matrix(1 0 0 1 1086.31 1126)">
			<path d="M67.3-109.3c0,0-56,61.5-56,92.1s25,55.5,55.5,55.5c1.9,0,4.2,0,6-0.5c0.5,0,0.9,0,1.4-0.5c1.4,0,2.8-0.5,4.2-0.5
				c0.5,0,0.9-0.5,1.9-0.5c1.4-0.5,2.8-0.5,4.2-0.9c0.5,0,0.9-0.5,1.4-0.5c1.4-0.5,2.8-0.9,4.2-1.4c0.5,0,0.9-0.5,0.9-0.5
				c1.4-0.5,2.8-1.4,4.2-2.3c0.5,0,0.5-0.5,0.9-0.5c1.4-0.9,2.8-1.9,4.2-2.8c0,0,0.5,0,0.5-0.5c1.4-0.9,2.8-2.3,4.2-3.2
				c10.6-10.6,17.6-25,17.6-41.2C122.3-46.9,71.4-104.7,67.3-109.3z M90-17.3c-5.1,0-9.3-4.2-9.3-9.3s4.2-9.3,9.3-9.3
				c5.1,0,9.3,4.2,9.3,9.3C99.2-21.4,95-17.3,90-17.3z"/>
		</g>
		<g id="Thin-M" transform="matrix(1 0 0 1 791.139 1126)">
			<path d="M65.7-109.3c0,0-56,61.5-56,92.1s25,55.5,55.5,55.5c1.9,0,4.2,0,6-0.5c0.5,0,0.9,0,1.4-0.5c1.4,0,2.8-0.5,4.2-0.5
				c0.5,0,0.9-0.5,1.9-0.5c1.4-0.5,2.8-0.5,4.2-0.9c0.5,0,0.9-0.5,1.4-0.5c1.4-0.5,2.8-0.9,4.2-1.4c0.5,0,0.9-0.5,0.9-0.5
				c1.4-0.5,2.8-1.4,4.2-2.3c0.5,0,0.5-0.5,0.9-0.5c1.4-0.9,2.8-1.9,4.2-2.8c0,0,0.5,0,0.5-0.5c1.4-0.9,2.8-2.3,4.2-3.2
				c10.6-10.6,17.6-25,17.6-41.2C120.8-46.9,69.9-104.7,65.7-109.3z M88.4-17.3c-5.1,0-9.3-4.2-9.3-9.3s4.2-9.3,9.3-9.3
				c5.1,0,9.3,4.2,9.3,9.3C97.7-21.4,93.5-17.3,88.4-17.3z"/>
		</g>
		<g id="Ultralight-M" transform="matrix(1 0 0 1 495.209 1126)">
			<path d="M65-109.3c0,0-56,61.5-56,92.1s25,55.5,55.5,55.5c1.9,0,4.2,0,6-0.5c0.5,0,0.9,0,1.4-0.5c1.4,0,2.8-0.5,4.2-0.5
				c0.5,0,0.9-0.5,1.9-0.5c1.4-0.5,2.8-0.5,4.2-0.9c0.5,0,0.9-0.5,1.4-0.5c1.4-0.5,2.8-0.9,4.2-1.4c0.5,0,0.9-0.5,0.9-0.5
				c1.4-0.5,2.8-1.4,4.2-2.3c0.5,0,0.5-0.5,0.9-0.5c1.4-0.9,2.8-1.9,4.2-2.8c0,0,0.5,0,0.5-0.5c1.4-0.9,2.8-2.3,4.2-3.2
				c10.6-10.6,17.6-25,17.6-41.2C120-46.9,69.1-104.7,65-109.3z M87.6-17.3c-5.1,0-9.3-4.2-9.3-9.3s4.2-9.3,9.3-9.3
				c5.1,0,9.3,4.2,9.3,9.3C96.9-21.4,92.7-17.3,87.6-17.3z"/>
		</g>
		<g id="Black-S" transform="matrix(1 0 0 1 2875 696)">
			<path d="M58.8-91.8c0,0-44.4,48.8-44.4,73.1s19.8,44.1,44.1,44.1c1.5,0,3.3,0,4.8-0.4c0.4,0,0.7,0,1.1-0.4c1.1,0,2.2-0.4,3.3-0.4
				c0.4,0,0.7-0.4,1.5-0.4c1.1-0.4,2.2-0.4,3.3-0.7c0.4,0,0.7-0.4,1.1-0.4c1.1-0.4,2.2-0.7,3.3-1.1c0.4,0,0.7-0.4,0.7-0.4
				c1.1-0.4,2.2-1.1,3.3-1.8c0.4,0,0.4-0.4,0.7-0.4c1.1-0.7,2.2-1.5,3.3-2.2c0,0,0.4,0,0.4-0.4c1.1-0.7,2.2-1.8,3.3-2.6
				c8.4-8.4,14-19.8,14-32.7C102.5-42.3,62.1-88.2,58.8-91.8z M76.8-18.8c-4,0-7.3-3.3-7.3-7.3s3.3-7.3,7.3-7.3c4,0,7.3,3.3,7.3,7.3
				C84.1-22.1,80.8-18.8,76.8-18.8z"/>
		</g>
		<g id="Heavy-S" transform="matrix(1 0 0 1 2579.36 696)">
			<path d="M57.7-91.8c0,0-44.4,48.8-44.4,73.1s19.8,44.1,44.1,44.1c1.5,0,3.3,0,4.8-0.4c0.4,0,0.7,0,1.1-0.4c1.1,0,2.2-0.4,3.3-0.4
				c0.4,0,0.7-0.4,1.5-0.4c1.1-0.4,2.2-0.4,3.3-0.7c0.4,0,0.7-0.4,1.1-0.4c1.1-0.4,2.2-0.7,3.3-1.1c0.4,0,0.7-0.4,0.7-0.4
				c1.1-0.4,2.2-1.1,3.3-1.8c0.4,0,0.4-0.4,0.7-0.4c1.1-0.7,2.2-1.5,3.3-2.2c0,0,0.4,0,0.4-0.4c1.1-0.7,2.2-1.8,3.3-2.6
				c8.4-8.4,14-19.8,14-32.7C101.4-42.3,61-88.2,57.7-91.8z M75.7-18.8c-4,0-7.3-3.3-7.3-7.3s3.3-7.3,7.3-7.3c4,0,7.3,3.3,7.3,7.3
				C83-22.1,79.7-18.8,75.7-18.8z"/>
		</g>
		<g id="Bold-S" transform="matrix(1 0 0 1 2283.87 696)">
			<path d="M56.5-91.8c0,0-44.4,48.8-44.4,73.1s19.8,44.1,44.1,44.1c1.5,0,3.3,0,4.8-0.4c0.4,0,0.7,0,1.1-0.4c1.1,0,2.2-0.4,3.3-0.4
				c0.4,0,0.7-0.4,1.5-0.4c1.1-0.4,2.2-0.4,3.3-0.7c0.4,0,0.7-0.4,1.1-0.4c1.1-0.4,2.2-0.7,3.3-1.1c0.4,0,0.7-0.4,0.7-0.4
				c1.1-0.4,2.2-1.1,3.3-1.8c0.4,0,0.4-0.4,0.7-0.4c1.1-0.7,2.2-1.5,3.3-2.2c0,0,0.4,0,0.4-0.4c1.1-0.7,2.2-1.8,3.3-2.6
				c8.4-8.4,14-19.8,14-32.7C100.2-42.3,59.8-88.2,56.5-91.8z M74.5-18.8c-4,0-7.3-3.3-7.3-7.3s3.3-7.3,7.3-7.3c4,0,7.3,3.3,7.3,7.3
				C81.8-22.1,78.5-18.8,74.5-18.8z"/>
		</g>
		<g id="Semibold-S" transform="matrix(1 0 0 1 1987.99 696)">
			<path d="M55.6-91.8c0,0-44.4,48.8-44.4,73.1S31,25.3,55.3,25.3c1.5,0,3.3,0,4.8-0.4c0.4,0,0.7,0,1.1-0.4c1.1,0,2.2-0.4,3.3-0.4
				c0.4,0,0.7-0.4,1.5-0.4c1.1-0.4,2.2-0.4,3.3-0.7c0.4,0,0.7-0.4,1.1-0.4c1.1-0.4,2.2-0.7,3.3-1.1c0.4,0,0.7-0.4,0.7-0.4
				c1.1-0.4,2.2-1.1,3.3-1.8c0.4,0,0.4-0.4,0.7-0.4c1.1-0.7,2.2-1.5,3.3-2.2c0,0,0.4,0,0.4-0.4c1.1-0.7,2.2-1.8,3.3-2.6
				c8.4-8.4,14-19.8,14-32.7C99.3-42.3,58.9-88.2,55.6-91.8z M73.6-18.8c-4,0-7.3-3.3-7.3-7.3s3.3-7.3,7.3-7.3c4,0,7.3,3.3,7.3,7.3
				C81-22.1,77.7-18.8,73.6-18.8z"/>
		</g>
		<g id="Medium-S" transform="matrix(1 0 0 1 1691.92 696)">
			<path d="M55-91.8c0,0-44.4,48.8-44.4,73.1s19.8,44.1,44.1,44.1c1.5,0,3.3,0,4.8-0.4c0.4,0,0.7,0,1.1-0.4c1.1,0,2.2-0.4,3.3-0.4
				c0.4,0,0.7-0.4,1.5-0.4c1.1-0.4,2.2-0.4,3.3-0.7c0.4,0,0.7-0.4,1.1-0.4c1.1-0.4,2.2-0.7,3.3-1.1c0.4,0,0.7-0.4,0.7-0.4
				c1.1-0.4,2.2-1.1,3.3-1.8c0.4,0,0.4-0.4,0.7-0.4c1.1-0.7,2.2-1.5,3.3-2.2c0,0,0.4,0,0.4-0.4c1.1-0.7,2.2-1.8,3.3-2.6
				c8.4-8.4,14-19.8,14-32.7C98.7-42.3,58.3-88.2,55-91.8z M73-18.8c-4,0-7.3-3.3-7.3-7.3s3.3-7.3,7.3-7.3c4,0,7.3,3.3,7.3,7.3
				C80.3-22.1,77-18.8,73-18.8z"/>
		</g>
		<g id="Regular-S" transform="matrix(1 0 0 1 1396.01 696)">
			<path d="M54.2-91.8c0,0-44.4,48.8-44.4,73.1s19.8,44.1,44.1,44.1c1.5,0,3.3,0,4.8-0.4c0.4,0,0.7,0,1.1-0.4c1.1,0,2.2-0.4,3.3-0.4
				c0.4,0,0.7-0.4,1.5-0.4c1.1-0.4,2.2-0.4,3.3-0.7c0.4,0,0.7-0.4,1.1-0.4c1.1-0.4,2.2-0.7,3.3-1.1c0.4,0,0.7-0.4,0.7-0.4
				c1.1-0.4,2.2-1.1,3.3-1.8c0.4,0,0.4-0.4,0.7-0.4c1.1-0.7,2.2-1.5,3.3-2.2c0,0,0.4,0,0.4-0.4c1.1-0.7,2.2-1.8,3.3-2.6
				c8.4-8.4,14-19.8,14-32.7C97.9-42.3,57.5-88.2,54.2-91.8z M72.2-18.8c-4,0-7.3-3.3-7.3-7.3s3.3-7.3,7.3-7.3c4,0,7.3,3.3,7.3,7.3
				C79.5-22.1,76.2-18.8,72.2-18.8z"/>
		</g>
		<g id="Light-S" transform="matrix(1 0 0 1 1100.33 696)">
			<path d="M53.2-91.8c0,0-44.4,48.8-44.4,73.1s19.8,44.1,44.1,44.1c1.5,0,3.3,0,4.8-0.4c0.4,0,0.7,0,1.1-0.4c1.1,0,2.2-0.4,3.3-0.4
				c0.4,0,0.7-0.4,1.5-0.4c1.1-0.4,2.2-0.4,3.3-0.7c0.4,0,0.7-0.4,1.1-0.4c1.1-0.4,2.2-0.7,3.3-1.1c0.4,0,0.7-0.4,0.7-0.4
				c1.1-0.4,2.2-1.1,3.3-1.8c0.4,0,0.4-0.4,0.7-0.4c1.1-0.7,2.2-1.5,3.3-2.2c0,0,0.4,0,0.4-0.4c1.1-0.7,2.2-1.8,3.3-2.6
				c8.4-8.4,14-19.8,14-32.7C96.9-42.3,56.5-88.2,53.2-91.8z M71.2-18.8c-4,0-7.3-3.3-7.3-7.3s3.3-7.3,7.3-7.3c4,0,7.3,3.3,7.3,7.3
				C78.5-22.1,75.2-18.8,71.2-18.8z"/>
		</g>
		<g id="Thin-S" transform="matrix(1 0 0 1 804.982 696)">
			<path d="M51.8-91.8c0,0-44.4,48.8-44.4,73.1s19.8,44.1,44.1,44.1c1.5,0,3.3,0,4.8-0.4c0.4,0,0.7,0,1.1-0.4c1.1,0,2.2-0.4,3.3-0.4
				c0.4,0,0.7-0.4,1.5-0.4c1.1-0.4,2.2-0.4,3.3-0.7c0.4,0,0.7-0.4,1.1-0.4c1.1-0.4,2.2-0.7,3.3-1.1c0.4,0,0.7-0.4,0.7-0.4
				c1.1-0.4,2.2-1.1,3.3-1.8c0.4,0,0.4-0.4,0.7-0.4c1.1-0.7,2.2-1.5,3.3-2.2c0,0,0.4,0,0.4-0.4c1.1-0.7,2.2-1.8,3.3-2.6
				c8.4-8.4,14-19.8,14-32.7C95.5-42.3,55.1-88.2,51.8-91.8z M69.8-18.8c-4,0-7.3-3.3-7.3-7.3s3.3-7.3,7.3-7.3c4,0,7.3,3.3,7.3,7.3
				C77.1-22.1,73.8-18.8,69.8-18.8z"/>
		</g>
		<g id="Ultralight-S" transform="matrix(1 0 0 1 508.954 696)">
			<path d="M51.1-91.8c0,0-44.4,48.8-44.4,73.1s19.8,44.1,44.1,44.1c1.5,0,3.3,0,4.8-0.4c0.4,0,0.7,0,1.1-0.4c1.1,0,2.2-0.4,3.3-0.4
				c0.4,0,0.7-0.4,1.5-0.4c1.1-0.4,2.2-0.4,3.3-0.7c0.4,0,0.7-0.4,1.1-0.4c1.1-0.4,2.2-0.7,3.3-1.1c0.4,0,0.7-0.4,0.7-0.4
				c1.1-0.4,2.2-1.1,3.3-1.8c0.4,0,0.4-0.4,0.7-0.4c1.1-0.7,2.2-1.5,3.3-2.2c0,0,0.4,0,0.4-0.4c1.1-0.7,2.2-1.8,3.3-2.6
				c8.4-8.4,14-19.8,14-32.7C94.8-42.3,54.4-88.2,51.1-91.8z M69.1-18.8c-4,0-7.3-3.3-7.3-7.3s3.3-7.3,7.3-7.3c4,0,7.3,3.3,7.3,7.3
				C76.5-22.1,73.2-18.8,69.1-18.8z"/>
		</g>
	</g>
</g>
<g id="Livello_2">
	<path d="M2637.1,604.2c0,0-44.4,48.8-44.4,73.1s19.8,44.1,44.1,44.1c1.5,0,3.3,0,4.8-0.4c0.4,0,0.7,0,1.1-0.4
		c1.1,0,2.2-0.4,3.3-0.4c0.4,0,0.7-0.4,1.5-0.4c1.1-0.4,2.2-0.4,3.3-0.7c0.4,0,0.7-0.4,1.1-0.4c1.1-0.4,2.2-0.7,3.3-1.1
		c0.4,0,0.7-0.4,0.7-0.4c1.1-0.4,2.2-1.1,3.3-1.8c0.4,0,0.4-0.4,0.7-0.4c1.1-0.7,2.2-1.5,3.3-2.2c0,0,0.4,0,0.4-0.4
		c1.1-0.7,2.2-1.8,3.3-2.6c8.4-8.4,14-19.8,14-32.7C2680.8,653.7,2640.4,607.8,2637.1,604.2z M2655,677.2c-4,0-7.3-3.3-7.3-7.3
		s3.3-7.3,7.3-7.3c4,0,7.3,3.3,7.3,7.3C2662.4,673.9,2659.1,677.2,2655,677.2z"/>
</g>
</svg>
