<?xml version="1.0" encoding="utf-8"?>
<!-- Generator: Adobe Illustrator 23.1.1, SVG Export Plug-In . SVG Version: 6.00 Build 0)  -->
<svg version="1.1" id="Livello_1" xmlns="http://www.w3.org/2000/svg" xmlns:xlink="http://www.w3.org/1999/xlink" x="0px" y="0px"
	 viewBox="0 0 3300 2200" style="enable-background:new 0 0 3300 2200;" xml:space="preserve">
<style type="text/css">
	.st0{fill:#FFFFFF;}
	.st1{fill:none;stroke:#000000;stroke-width:0.5;}
	.st2{font-family:'Arial-BoldMT';}
	.st3{font-size:12px;}
	.st4{font-family:'ArialMT';}
	.st5{opacity:0.4;fill:#00AEEF;enable-background:new    ;}
	.st6{fill:#27AAE1;}
	.st7{fill:none;stroke:#27AAE1;stroke-width:0.577;}
</style>
<g>
	<g id="Notes">
		<rect id="artboard" class="st0" width="3300" height="2200"/>
		<line class="st1" x1="263" y1="292" x2="3036" y2="292"/>
		<text transform="matrix(1 0 0 1 263 322)" class="st2 st3">Weight/Scale Variations</text>
		<text transform="matrix(1 0 0 1 536.0362 322)" class="st4 st3">Ultralight</text>
		<text transform="matrix(1 0 0 1 844.7501 322)" class="st4 st3">Thin</text>
		<text transform="matrix(1 0 0 1 1140.1193 322)" class="st4 st3">Light</text>
		<text transform="matrix(1 0 0 1 1428.8282 322)" class="st4 st3">Regular</text>
		<text transform="matrix(1 0 0 1 1725.2202 322)" class="st4 st3">Medium</text>
		<text transform="matrix(1 0 0 1 2018.2563 322)" class="st4 st3">Semibold</text>
		<text transform="matrix(1 0 0 1 2327.9712 322)" class="st4 st3">Bold</text>
		<text transform="matrix(1 0 0 1 2619.6831 322)" class="st4 st3">Heavy</text>
		<text transform="matrix(1 0 0 1 2918.728 322)" class="st4 st3">Black</text>
		<line class="st1" x1="263" y1="1903" x2="3036" y2="1903"/>
		<g transform="matrix(1 0 0 1 263 1933)">
			<path d="M9.2,0.8c4.3,0,7.9-3.6,7.9-7.9S13.5-15,9.2-15s-7.9,3.6-7.9,7.9C1.4-2.7,5,0.8,9.2,0.8z M9.2-0.7
				c-3.5,0-6.4-2.8-6.4-6.4s2.8-6.4,6.4-6.4s6.4,2.8,6.4,6.4C15.7-3.5,12.8-0.7,9.2-0.7z M9.2-3.4c0.5,0,0.7-0.3,0.7-0.8v-2.1h2.2
				C12.7-6.3,13-6.6,13-7c0-0.5-0.3-0.7-0.8-0.7H10V-10c0-0.5-0.3-0.8-0.7-0.8S8.5-10.5,8.5-10v2.2H6.3C5.8-7.8,5.4-7.5,5.4-7
				s0.4,0.7,0.8,0.7h2.2v2.1C8.5-3.8,8.8-3.4,9.2-3.4z"/>
		</g>
		<g transform="matrix(1 0 0 1 281.506 1933)">
			<path d="M11.7,2.9c5.4,0,10-4.5,10-10c0-5.4-4.5-10-10-10c-5.4,0-10,4.5-10,10C1.7-1.6,6.3,2.9,11.7,2.9z M11.7,1.2
				c-4.6,0-8.3-3.7-8.3-8.3s3.7-8.3,8.3-8.3S20-11.7,20-7.1C20-2.4,16.3,1.2,11.7,1.2z M11.7-2.4c0.5,0,0.8-0.4,0.8-0.9v-2.9h3.1
				c0.5,0,0.9-0.3,0.9-0.8s-0.4-0.8-0.9-0.8h-3.1v-3.1c0-0.6-0.3-0.9-0.8-0.9s-0.8,0.4-0.8,0.9v3.1h-3c-0.6-0.1-1,0.2-1,0.8
				c0,0.5,0.4,0.8,0.9,0.8h3v2.9C10.9-2.8,11.2-2.4,11.7-2.4z"/>
		</g>
		<g transform="matrix(1 0 0 1 304.924 1933)">
			<path d="M15,5.7c7,0,12.7-5.8,12.7-12.7c0-7-5.8-12.7-12.7-12.7C8-19.8,2.3-14,2.3-7C2.3-0.1,8,5.7,15,5.7z M15,3.9
				C8.9,3.9,4.1-1,4.1-7S8.9-17.9,15-17.9c6,0,10.9,4.9,10.9,10.9S21,3.9,15,3.9z M15-1.1c0.6,0,0.9-0.4,0.9-1v-4.1h4.2
				c0.6,0,1-0.3,1-0.9S20.7-8,20.1-8h-4.2v-4.2c0-0.6-0.4-1-0.9-1c-0.6,0-0.9,0.4-0.9,1V-8H9.8c-0.6,0-1,0.3-1,0.9s0.4,0.9,1,0.9H14
				v4.1C14.1-1.5,14.4-1.1,15-1.1z"/>
		</g>
		<text transform="matrix(1 0 0 1 263 1953)" class="st2 st3">Design Variations</text>
		<text transform="matrix(1 0 0 1 263 1971)" class="st4 st3">Symbols are supported in up to nine weights and three scales.</text>
		<text transform="matrix(1 0 0 1 263 1989)" class="st4 st3">For optimal layout with text and other symbols, vertically align</text>
		<text transform="matrix(1 0 0 1 263 2007)" class="st4 st3">symbols with the adjacent text.</text>
		<rect x="776" y="1919" class="st5" width="3" height="14"/>
		<g transform="matrix(1 0 0 1 779 1933)">
			<path d="M10.5,0h1.8L7.2-14.1H5.4L0.2,0H2l1.4-4H9L10.5,0z M6.3-12L6.3-12l2.3,6.4H4L6.3-12z"/>
		</g>
		<rect x="791.6" y="1919" class="st5" width="3" height="14"/>
		<text transform="matrix(1 0 0 1 776 1953)" class="st2 st3">Margins</text>
		<text transform="matrix(1 0 0 1 776 1971)" class="st4 st3">Leading and trailing margins on the left and right side of each symbol</text>
		<text transform="matrix(1 0 0 1 776 1989)" class="st4 st3">can be adjusted by modifying the width of the blue rectangles.</text>
		<text transform="matrix(1 0 0 1 776 2007)" class="st4 st3">Modifications are automatically applied proportionally to all</text>
		<text transform="matrix(1 0 0 1 776 2025)" class="st4 st3">scales and weights.</text>
		<g transform="matrix(1 0 0 1 1289 1933)">
			<path d="M2.8,3.1l1.5,1.5C5.1,5.4,6.1,5.4,7,4.4L17.3-6.7c0.4,0.3,0.8,0.3,1.3,0.2l1-0.2L20.3-6v0.5c-0.1,0.5,0.1,1,0.5,1.5
				l0.8,0.8c0.5,0.5,1.2,0.5,1.6,0.1l3.3-3.3C27-6.9,27-7.5,26.5-8l-0.8-0.8c-0.5-0.5-0.9-0.7-1.4-0.6l-0.5,0.1L23.1-10l0.3-1.1
				c0.1-0.6,0-1-0.6-1.6l-2.4-2.4c-3.5-3.5-8.1-3.4-11.2-0.3C8.8-15,8.7-14.4,9-14c0.2,0.4,0.7,0.6,1.4,0.4c1.5-0.4,3-0.3,4.5,0.7
				l-0.6,1.6c-0.2,0.6-0.2,1.1,0,1.5L3,0.4C2.1,1.3,2,2.3,2.8,3.1z M10.7-15.1c2.7-2,6-1.7,8.4,0.7l2.6,2.6c0.2,0.2,0.3,0.4,0.2,0.7
				l-0.4,1.6L23.1-8H24c0.3,0,0.4,0,0.6,0.2l0.6,0.6l-2.8,2.7l-0.6-0.6c-0.2-0.2-0.2-0.3-0.2-0.6l0.1-1l-1.6-1.6L18.5-8
				c-0.3,0.1-0.4,0.1-0.7-0.2l-2.2-2.2c-0.2-0.2-0.3-0.4-0.1-0.7l0.9-2.3c-1.6-1.5-3.7-2.4-5.8-1.7c-0.1,0-0.2,0-0.2,0
				C10.6-15,10.6-15.1,10.7-15.1z M4.1,2.4c-0.5-0.5-0.3-0.8,0-1.1l11-10.1l1.2,1.2L6.2,3.3c-0.3,0.3-0.7,0.4-1.1,0L4.1,2.4z"/>
		</g>
		<text transform="matrix(1 0 0 1 1289 1953)" class="st2 st3">Exporting</text>
		<text transform="matrix(1 0 0 1 1289 1971)" class="st4 st3">Symbols should be outlined when exporting to ensure the</text>
		<text transform="matrix(1 0 0 1 1289 1989)" class="st4 st3">design is preserved when submitting to Xcode.</text>
		<text id="template-version" transform="matrix(1 0 0 1 2958.8496 1933)" class="st4 st3">Template v.1.0</text>
		<text transform="matrix(1 0 0 1 2767.1719 1951)" class="st4 st3">Generated from square.and.arrow.down.on.square</text>
		<text transform="matrix(1 0 0 1 2921.9238 1969)" class="st4 st3">Typeset at 100 points</text>
		<text transform="matrix(1 0 0 1 263 726)" class="st4 st3">Small</text>
		<text transform="matrix(1 0 0 1 263 1156)" class="st4 st3">Medium</text>
		<text transform="matrix(1 0 0 1 263 1586)" class="st4 st3">Large</text>
	</g>
	<g id="Guides">
		<g id="H-reference" transform="matrix(1 0 0 1 339 696)">
			<path class="st6" d="M54.9,0h2.7l-27-70.5h-2.5L1,0h2.7L13-24.5h32.8L54.9,0z M29.2-67.1h0.2l15.4,40.4h-31L29.2-67.1z"/>
		</g>
		<line id="Baseline-S" class="st7" x1="263" y1="696" x2="3036" y2="696"/>
		<line id="Capline-S" class="st7" x1="263" y1="625.5" x2="3036" y2="625.5"/>
		<g transform="matrix(1 0 0 1 339 1126)">
			<path class="st6" d="M54.9,0h2.7l-27-70.5h-2.5L1,0h2.7L13-24.5h32.8L54.9,0z M29.2-67.1h0.2l15.4,40.4h-31L29.2-67.1z"/>
		</g>
		<line id="Baseline-M" class="st7" x1="263" y1="1126" x2="3036" y2="1126"/>
		<line id="Capline-M" class="st7" x1="263" y1="1055.5" x2="3036" y2="1055.5"/>
		<g transform="matrix(1 0 0 1 339 1556)">
			<path class="st6" d="M54.9,0h2.7l-27-70.5h-2.5L1,0h2.7L13-24.5h32.8L54.9,0z M29.2-67.1h0.2l15.4,40.4h-31L29.2-67.1z"/>
		</g>
		<line id="Baseline-L" class="st7" x1="263" y1="1556" x2="3036" y2="1556"/>
		<line id="Capline-L" class="st7" x1="263" y1="1485.5" x2="3036" y2="1485.5"/>
		<rect id="left-margin" x="1381.9" y="1030.8" class="st5" width="12.5" height="119.3"/>
		<rect id="right-margin" x="1505.4" y="1030.8" class="st5" width="12.5" height="119.3"/>
	</g>
	<g id="Black-L" transform="matrix(1 0 0 1 2839.21 1556)">
		<g>
			<g>
				<g>
					<path d="M94.2-85.3c-29.3,0-53,23.7-53,53s23.7,53,53,53s53-23.7,53-53S123.5-85.3,94.2-85.3z M121.3-65.5
						c0.6-0.7,1.5-1,2.4-1.1c0.8-0.1,1.8,0.3,2.4,0.9c6.9,6.5,11.6,14.7,13.5,24c0.3,1.5-0.5,2.9-1.7,3.6c-3.3,1.7-7.1,2.5-10.8,2.5
						c-4.8,0-9.3-1.4-12-4.1C109.4-45.2,111.8-54.9,121.3-65.5z M67.1,1.5c-0.6,0.7-1.5,1-2.4,1.1h-0.1c-0.9,0-1.7-0.3-2.3-0.9
						c-6.9-6.5-11.6-14.7-13.5-24c-0.3-1.5,0.5-2.9,1.7-3.6c7.4-3.8,18.1-3.2,22.8,1.6C78.9-18.8,76.6-9.1,67.1,1.5z M73.4-39.6
						c-2.6,2.6-7.2,4.1-12,4.1c-3.7,0-7.5-0.8-10.8-2.5c-1.4-0.7-2-2.1-1.7-3.6c1.9-9.1,6.6-17.4,13.5-24c0.7-0.6,1.6-1,2.4-0.9
						c0.9,0,1.7,0.5,2.4,1.1C76.6-54.9,78.9-45.2,73.4-39.6z M108.3,11.9c-4.6,1.5-9.3,2.3-14.2,2.3s-9.6-0.8-14.2-2.3
						c-1.5-0.5-2.4-1.9-2.3-3.4c0.8-11.9,7.9-20.9,16.4-20.9s15.6,9,16.5,20.9C110.7,10,109.7,11.5,108.3,11.9z M80.9-32.3
						c0-7.3,6-13.3,13.3-13.3s13.3,6,13.3,13.3S101.5-19,94.2-19S80.9-25,80.9-32.3z M110.6-72.8c-0.8,11.9-7.9,20.9-16.4,20.9
						s-15.6-9-16.4-20.9c-0.1-1.6,0.8-2.9,2.3-3.4c9.2-2.9,19.1-2.9,28.2,0C109.7-75.7,110.7-74.4,110.6-72.8z M139.5-22.8
						c-1.9,9.1-6.6,17.4-13.5,24c-0.6,0.6-1.5,0.9-2.3,0.9h-0.1c-0.9,0-1.7-0.5-2.4-1.1C111.8-9.7,109.4-19.4,115-25
						c4.6-4.6,15.3-5.4,22.8-1.6C139.2-25.8,139.9-24.3,139.5-22.8z"/>
					<path d="M94.2-103c-39,0-70.7,31.7-70.7,70.7s31.7,70.7,70.7,70.7s70.7-31.7,70.7-70.7S133.2-103,94.2-103z M94.2,20.7
						c-29.2,0-53-23.8-53-53s23.8-53,53-53s53,23.8,53,53S123.4,20.7,94.2,20.7z"/>
				</g>
			</g>
		</g>
	</g>
	<g id="Heavy-L" transform="matrix(1 0 0 1 2544.26 1556)">
		<g>
			<g>
				<g>
					<path d="M92.4-85.3c-29.3,0-53,23.7-53,53s23.7,53,53,53s53-23.7,53-53S121.7-85.3,92.4-85.3z M119.5-65.5
						c0.6-0.7,1.5-1,2.4-1.1c0.8-0.1,1.8,0.3,2.4,0.9c6.9,6.5,11.6,14.7,13.5,24c0.3,1.5-0.5,2.9-1.7,3.6c-3.3,1.7-7.1,2.5-10.8,2.5
						c-4.8,0-9.3-1.4-12-4.1C107.7-45.2,110-54.9,119.5-65.5z M65.3,1.5c-0.6,0.7-1.5,1-2.4,1.1h-0.1c-0.9,0-1.7-0.3-2.3-0.9
						c-6.9-6.5-11.6-14.7-13.5-24c-0.3-1.5,0.5-2.9,1.7-3.6c7.4-3.8,18.1-3.2,22.8,1.6C77.2-18.8,74.8-9.1,65.3,1.5z M71.6-39.6
						c-2.6,2.6-7.2,4.1-12,4.1c-3.7,0-7.5-0.8-10.8-2.5c-1.4-0.7-2-2.1-1.7-3.6c1.9-9.1,6.6-17.4,13.5-24c0.7-0.6,1.6-1,2.4-0.9
						c0.9,0,1.7,0.5,2.4,1.1C74.8-54.9,77.2-45.2,71.6-39.6z M106.6,11.9c-4.6,1.5-9.3,2.3-14.2,2.3s-9.5-0.8-14.1-2.3
						c-1.5-0.5-2.4-1.9-2.3-3.4C76.9-3.4,84-12.4,92.5-12.4s15.5,9,16.3,20.9C108.9,10,108,11.5,106.6,11.9z M79.1-32.3
						c0-7.3,6-13.3,13.3-13.3s13.3,6,13.3,13.3S99.7-19,92.4-19S79.1-25,79.1-32.3z M108.8-72.8C108-60.9,101-51.9,92.4-51.9
						s-15.6-9-16.4-20.9c-0.1-1.6,0.8-2.9,2.3-3.4c9.2-2.9,19.1-2.9,28.2,0C108-75.7,108.9-74.4,108.8-72.8z M137.7-22.8
						c-1.9,9.1-6.6,17.4-13.5,24C123.7,1.7,122.8,2,122,2h-0.1c-0.9,0-1.7-0.5-2.4-1.1C110-9.7,107.6-19.4,113.2-25
						c4.6-4.6,15.3-5.4,22.8-1.6C137.4-25.8,138.1-24.3,137.7-22.8z"/>
					<path d="M92.4-103c-39,0-70.7,31.7-70.7,70.7s31.7,70.7,70.7,70.7s70.7-31.7,70.7-70.7S131.4-103,92.4-103z M92.4,20.7
						c-29.2,0-53-23.8-53-53s23.8-53,53-53s53,23.8,53,53S121.7,20.7,92.4,20.7z"/>
				</g>
			</g>
		</g>
	</g>
	<g id="Bold-L" transform="matrix(1 0 0 1 2249.5 1556)">
		<g>
			<g>
				<g>
					<path d="M90.5-85.3c-29.3,0-53,23.7-53,53s23.7,53,53,53s53-23.7,53-53S119.8-85.3,90.5-85.3z M117.6-65.5
						c0.6-0.7,1.5-1,2.4-1.1c0.8-0.1,1.8,0.3,2.4,0.9c6.9,6.5,11.6,14.7,13.5,24c0.3,1.5-0.5,2.9-1.7,3.6c-3.3,1.7-7.1,2.5-10.8,2.5
						c-4.8,0-9.3-1.4-12-4.1C105.7-45.2,108.1-54.9,117.6-65.5z M63.4,1.5c-0.6,0.7-1.5,1-2.4,1.1h-0.1c-0.9,0-1.7-0.3-2.3-0.9
						c-6.9-6.5-11.6-14.7-13.5-24c-0.3-1.5,0.5-2.9,1.7-3.6c7.4-3.8,18.1-3.2,22.8,1.6C75.2-18.8,72.8-9.1,63.4,1.5z M69.6-39.6
						c-2.6,2.6-7.2,4.1-12,4.1c-3.7,0-7.5-0.8-10.8-2.5c-1.4-0.7-2-2.1-1.7-3.6c1.9-9.1,6.6-17.4,13.5-24c0.7-0.6,1.6-1,2.4-0.9
						c0.9,0,1.7,0.5,2.4,1.1C72.9-54.9,75.2-45.2,69.6-39.6z M104.6,11.9c-4.6,1.5-9.3,2.3-14.2,2.3s-9.5-0.8-14.1-2.3
						c-1.5-0.5-2.4-1.9-2.3-3.4c0.8-11.9,7.9-20.9,16.4-20.9s15.6,9,16.4,20.9C107,10,106,11.5,104.6,11.9z M77.2-32.3
						c0-7.3,6-13.3,13.3-13.3s13.3,6,13.3,13.3S97.8-19,90.5-19S77.2-25,77.2-32.3z M106.9-72.8c-0.8,11.9-7.9,20.9-16.4,20.9
						s-15.6-9-16.4-20.9c-0.1-1.6,0.8-2.9,2.3-3.4c9.2-2.9,19.1-2.9,28.2,0C106-75.7,107-74.4,106.9-72.8z M135.8-22.8
						c-1.9,9.1-6.6,17.4-13.5,24c-0.6,0.6-1.5,0.9-2.3,0.9H120c-0.9,0-1.7-0.5-2.4-1.1c-9.6-10.6-11.9-20.3-6.3-25.9
						c4.6-4.6,15.3-5.4,22.8-1.6C135.4-25.8,136.2-24.3,135.8-22.8z"/>
					<path d="M90.5-103c-39,0-70.7,31.7-70.7,70.7s31.7,70.7,70.7,70.7s70.7-31.7,70.7-70.7S129.4-103,90.5-103z M90.5,20.7
						c-29.2,0-53-23.8-53-53s23.8-53,53-53s53,23.8,53,53S119.7,20.7,90.5,20.7z"/>
				</g>
			</g>
		</g>
	</g>
	<g id="Semibold-L" transform="matrix(1 0 0 1 1954.16 1556)">
		<g>
			<g>
				<g>
					<path d="M89.1-85.3c-29.3,0-53,23.7-53,53s23.7,53,53,53s53-23.7,53-53S118.4-85.3,89.1-85.3z M116.2-65.5
						c0.6-0.7,1.5-1,2.4-1.1c0.8-0.1,1.8,0.3,2.4,0.9c6.9,6.5,11.6,14.7,13.5,24c0.3,1.5-0.5,2.9-1.7,3.6c-3.3,1.7-7.1,2.5-10.8,2.5
						c-4.8,0-9.3-1.4-12-4.1C104.3-45.2,106.7-54.9,116.2-65.5z M62,1.5c-0.6,0.7-1.5,1-2.4,1.1h-0.1c-0.9,0-1.7-0.3-2.3-0.9
						c-6.9-6.5-11.6-14.7-13.5-24c-0.3-1.5,0.5-2.9,1.7-3.6c7.4-3.8,18.1-3.2,22.8,1.6C73.9-18.8,71.5-9.1,62,1.5z M68.3-39.6
						c-2.6,2.6-7.2,4.1-12,4.1c-3.7,0-7.5-0.8-10.8-2.5c-1.4-0.7-2-2.1-1.7-3.6c1.9-9.1,6.6-17.4,13.5-24c0.7-0.6,1.6-1,2.4-0.9
						c0.9,0,1.7,0.5,2.4,1.1C71.5-54.9,73.9-45.2,68.3-39.6z M103.3,11.9c-4.6,1.5-9.3,2.3-14.2,2.3s-9.6-0.8-14.2-2.3
						c-1.5-0.5-2.4-1.9-2.3-3.4c0.8-11.9,7.9-20.9,16.4-20.9s15.6,9,16.4,20.9C105.6,10,104.6,11.5,103.3,11.9z M75.8-32.3
						c0-7.3,6-13.3,13.3-13.3s13.3,6,13.3,13.3S96.4-19,89.1-19S75.8-25,75.8-32.3z M105.5-72.8c-0.8,11.9-7.9,20.9-16.4,20.9
						s-15.6-9-16.4-20.9c-0.1-1.6,0.8-2.9,2.3-3.4c9.2-2.9,19.1-2.9,28.2,0C104.7-75.7,105.6-74.4,105.5-72.8z M134.4-22.8
						c-1.9,9.1-6.6,17.4-13.5,24c-0.6,0.6-1.5,0.9-2.3,0.9h-0.1c-0.9,0-1.7-0.5-2.4-1.1c-9.6-10.6-11.9-20.3-6.3-25.9
						c4.6-4.6,15.3-5.4,22.8-1.6C134.1-25.8,134.8-24.3,134.4-22.8z"/>
					<path d="M89.1-103c-39,0-70.7,31.7-70.7,70.7s31.7,70.7,70.7,70.7s70.7-31.7,70.7-70.7S128.1-103,89.1-103z M89.1,20.7
						c-29.2,0-53-23.8-53-53s23.8-53,53-53s53,23.8,53,53S118.3,20.7,89.1,20.7z"/>
				</g>
			</g>
		</g>
	</g>
	<g id="Medium-L" transform="matrix(1 0 0 1 1658.47 1556)">
		<g>
			<g>
				<g>
					<path d="M88.1-85.3c-29.3,0-53,23.7-53,53s23.7,53,53,53s53-23.7,53-53S117.4-85.3,88.1-85.3z M115.2-65.5
						c0.6-0.7,1.5-1,2.4-1.1c0.8-0.1,1.8,0.3,2.4,0.9c6.9,6.5,11.6,14.7,13.5,24c0.3,1.5-0.5,2.9-1.7,3.6c-3.3,1.7-7.1,2.5-10.8,2.5
						c-4.8,0-9.3-1.4-12-4.1C103.3-45.2,105.7-54.9,115.2-65.5z M61,1.5c-0.6,0.7-1.5,1-2.4,1.1h-0.1c-0.9,0-1.7-0.3-2.3-0.9
						c-6.9-6.5-11.6-14.7-13.5-24c-0.3-1.5,0.5-2.9,1.7-3.6c7.4-3.8,18.1-3.2,22.8,1.6C72.8-18.8,70.5-9.1,61,1.5z M67.3-39.6
						c-2.6,2.6-7.2,4.1-12,4.1c-3.7,0-7.5-0.8-10.8-2.5c-1.4-0.7-2-2.1-1.7-3.6c1.9-9.1,6.6-17.4,13.5-24c0.7-0.6,1.6-1,2.4-0.9
						c0.9,0,1.7,0.5,2.4,1.1C70.5-54.9,72.8-45.2,67.3-39.6z M102.2,11.9c-4.6,1.5-9.3,2.3-14.2,2.3s-9.6-0.8-14.2-2.3
						c-1.5-0.5-2.4-1.9-2.3-3.4C72.3-3.4,79.4-12.4,88-12.4s15.6,9,16.4,20.9C104.6,10,103.6,11.5,102.2,11.9z M74.8-32.3
						c0-7.3,6-13.3,13.3-13.3s13.3,6,13.3,13.3S95.4-19,88.1-19S74.8-25,74.8-32.3z M104.5-72.8c-0.8,11.9-7.9,20.9-16.4,20.9
						s-15.6-9-16.4-20.9c-0.1-1.6,0.8-2.9,2.3-3.4c9.2-2.9,19.1-2.9,28.2,0C103.6-75.7,104.6-74.4,104.5-72.8z M133.4-22.8
						c-1.9,9.1-6.6,17.4-13.5,24c-0.6,0.6-1.5,0.9-2.3,0.9h-0.1c-0.9,0-1.7-0.5-2.4-1.1c-9.6-10.6-11.9-20.3-6.3-25.9
						c4.6-4.6,15.3-5.4,22.8-1.6C133-25.8,133.8-24.3,133.4-22.8z"/>
					<path d="M88.1-103c-39,0-70.7,31.7-70.7,70.7s31.7,70.7,70.7,70.7s70.7-31.7,70.7-70.7S127.1-103,88.1-103z M88.1,20.7
						c-29.2,0-53-23.8-53-53s23.8-53,53-53s53,23.8,53,53S117.3,20.7,88.1,20.7z"/>
				</g>
			</g>
		</g>
	</g>
	<g id="Regular-L" transform="matrix(1 0 0 1 1363.1 1556)">
		<g>
			<g>
				<g>
					<path d="M86.7-85.3c-29.3,0-53,23.7-53,53s23.7,53,53,53s53-23.7,53-53S116-85.3,86.7-85.3z M113.9-65.5c0.6-0.7,1.5-1,2.4-1.1
						c0.8-0.1,1.8,0.3,2.4,0.9c6.9,6.5,11.6,14.7,13.5,24c0.3,1.5-0.5,2.9-1.7,3.6c-3.3,1.7-7.1,2.5-10.8,2.5c-4.8,0-9.3-1.4-12-4.1
						C102-45.2,104.4-54.9,113.9-65.5z M59.6,1.5c-0.6,0.7-1.5,1-2.4,1.1h-0.1c-0.9,0-1.7-0.3-2.3-0.9c-6.9-6.5-11.6-14.7-13.5-24
						c-0.3-1.5,0.5-2.9,1.7-3.6c7.4-3.8,18.1-3.2,22.8,1.6C71.5-18.8,69.1-9.1,59.6,1.5z M65.9-39.6c-2.6,2.6-7.2,4.1-12,4.1
						c-3.7,0-7.5-0.8-10.8-2.5c-1.4-0.7-2-2.1-1.7-3.6c1.9-9.1,6.6-17.4,13.5-24c0.7-0.6,1.6-1,2.4-0.9c0.9,0,1.7,0.5,2.4,1.1
						C69.1-54.9,71.5-45.2,65.9-39.6z M100.9,11.9c-4.6,1.5-9.3,2.3-14.2,2.3s-9.6-0.8-14.2-2.3c-1.5-0.5-2.4-1.9-2.3-3.4
						c0.8-11.9,7.9-20.9,16.4-20.9s15.6,9,16.4,20.9C103.2,10,102.3,11.5,100.9,11.9z M73.5-32.3c0-7.3,6-13.3,13.3-13.3
						s13.3,6,13.3,13.3S94.1-19,86.8-19S73.5-25,73.5-32.3z M103.1-72.8c-0.8,11.9-7.9,20.9-16.4,20.9s-15.6-9-16.4-20.9
						c-0.1-1.6,0.8-2.9,2.3-3.4c9.2-2.9,19.1-2.9,28.2,0C102.3-75.7,103.2-74.4,103.1-72.8z M132.2-22.8c-1.9,9.1-6.6,17.4-13.5,24
						c-0.6,0.6-1.5,0.9-2.3,0.9h-0.1c-0.9,0-1.7-0.5-2.4-1.1C104.4-9.7,102-19.4,107.6-25c4.6-4.6,15.3-5.4,22.8-1.6
						C131.7-25.8,132.4-24.3,132.2-22.8z"/>
					<path d="M86.7-103C47.7-103,16-71.3,16-32.3s31.7,70.7,70.7,70.7s70.7-31.7,70.7-70.7S125.7-103,86.7-103z M86.7,20.7
						c-29.2,0-53-23.8-53-53s23.8-53,53-53s53,23.8,53,53S116,20.7,86.7,20.7z"/>
				</g>
			</g>
		</g>
	</g>
	<g id="Light-L" transform="matrix(1 0 0 1 1067.68 1556)">
		<g>
			<g>
				<g>
					<path d="M85.5-85.3c-29.3,0-53,23.7-53,53s23.7,53,53,53s53-23.7,53-53S114.6-85.3,85.5-85.3z M112.6-65.5
						c0.6-0.7,1.5-1,2.4-1.1c0.8-0.1,1.8,0.3,2.4,0.9c6.9,6.5,11.6,14.7,13.5,24c0.3,1.5-0.5,2.9-1.7,3.6c-3.3,1.7-7.1,2.5-10.8,2.5
						c-4.8,0-9.3-1.4-12-4.1C100.7-45.2,103.1-54.9,112.6-65.5z M58.3,1.5c-0.6,0.7-1.5,1-2.4,1.1h-0.1c-0.9,0-1.7-0.3-2.3-0.9
						C46.7-4.8,42-13.1,40-22.3c-0.3-1.5,0.5-2.9,1.7-3.6c7.4-3.8,18.1-3.2,22.8,1.6C70.2-18.8,67.8-9.1,58.3,1.5z M64.6-39.6
						c-2.6,2.6-7.2,4.1-12,4.1c-3.7,0-7.5-0.8-10.8-2.5c-1.4-0.7-2-2.1-1.7-3.6c1.9-9.1,6.6-17.4,13.5-24c0.7-0.6,1.6-1,2.4-0.9
						c0.9,0,1.7,0.5,2.4,1.1C67.8-54.9,70.2-45.2,64.6-39.6z M99.6,11.9c-4.6,1.5-9.3,2.3-14.2,2.3s-9.5-0.8-14.1-2.3
						c-1.5-0.5-2.4-1.9-2.3-3.4c0.8-11.9,7.9-20.9,16.4-20.9s15.5,9,16.3,20.9C101.9,10,101,11.5,99.6,11.9z M72.2-32.3
						c0-7.3,6-13.3,13.3-13.3s13.3,6,13.3,13.3S92.8-19,85.5-19S72.2-25,72.2-32.3z M101.8-72.8c-0.8,11.9-7.9,20.9-16.4,20.9
						s-15.6-9-16.4-20.9c-0.1-1.6,0.8-2.9,2.3-3.4c9.2-2.9,19.1-2.9,28.2,0C101-75.7,101.9-74.4,101.8-72.8z M130.8-22.8
						c-1.9,9.1-6.6,17.4-13.5,24c-0.6,0.6-1.5,0.9-2.3,0.9H115c-0.9,0-1.7-0.5-2.4-1.1c-9.6-10.6-11.9-20.3-6.3-25.9
						c4.6-4.6,15.3-5.4,22.8-1.6C130.4-25.8,131.1-24.3,130.8-22.8z"/>
					<path d="M85.5-103c-39,0-70.7,31.7-70.7,70.7s31.7,70.7,70.7,70.7s70.7-31.7,70.7-70.7S124.4-103,85.5-103z M85.5,20.7
						c-29.2,0-53-23.8-53-53s23.8-53,53-53s53,23.8,53,53S114.7,20.7,85.5,20.7z"/>
				</g>
			</g>
		</g>
	</g>
	<g id="Thin-L" transform="matrix(1 0 0 1 772.682 1556)">
		<g>
			<g>
				<g>
					<path d="M83.7-85.3c-29.3,0-53,23.7-53,53s23.7,53,53,53s53-23.7,53-53S113-85.3,83.7-85.3z M110.8-65.5c0.6-0.7,1.5-1,2.4-1.1
						c0.8-0.1,1.8,0.3,2.4,0.9c6.9,6.5,11.6,14.7,13.5,24c0.3,1.5-0.5,2.9-1.7,3.6c-3.3,1.7-7.1,2.5-10.8,2.5c-4.8,0-9.3-1.4-12-4.1
						C99-45.2,101.4-54.9,110.8-65.5z M56.6,1.5c-0.6,0.7-1.5,1-2.4,1.1h-0.1c-0.9,0-1.7-0.3-2.3-0.9c-6.9-6.5-11.6-14.7-13.5-24
						c-0.3-1.5,0.5-2.9,1.7-3.6c7.4-3.8,18.1-3.2,22.8,1.6C68.5-18.8,66.1-9.1,56.6,1.5z M62.9-39.6c-2.6,2.6-7.2,4.1-12,4.1
						c-3.7,0-7.5-0.8-10.8-2.5c-1.4-0.7-2-2.1-1.7-3.6c1.9-9.1,6.6-17.4,13.5-24c0.7-0.6,1.6-1,2.4-0.9c0.9,0,1.7,0.5,2.4,1.1
						C66.1-54.9,68.5-45.2,62.9-39.6z M97.9,11.9c-4.6,1.5-9.3,2.3-14.2,2.3s-9.6-0.8-14.2-2.3c-1.5-0.5-2.4-1.9-2.3-3.4
						c0.8-11.9,7.9-20.9,16.4-20.9s15.6,9,16.4,20.9C100.2,10,99.3,11.5,97.9,11.9z M70.5-32.3c0-7.3,6-13.3,13.3-13.3
						s13.3,6,13.3,13.3S91.1-19,83.8-19S70.5-25,70.5-32.3z M100.1-72.8c-0.8,11.9-7.9,20.9-16.4,20.9s-15.6-9-16.4-20.9
						c-0.1-1.6,0.8-2.9,2.3-3.4c9.2-2.9,19.1-2.9,28.2,0C99.3-75.7,100.2-74.4,100.1-72.8z M129.2-22.8c-1.9,9.1-6.6,17.4-13.5,24
						c-0.6,0.6-1.5,0.9-2.3,0.9h-0.1c-0.9,0-1.7-0.5-2.4-1.1C101.4-9.7,99-19.4,104.6-25c4.6-4.6,15.3-5.4,22.8-1.6
						C128.7-25.8,129.4-24.3,129.2-22.8z"/>
					<path d="M83.7-103C44.7-103,13-71.3,13-32.3s31.7,70.7,70.7,70.7s70.7-31.7,70.7-70.7S122.7-103,83.7-103z M83.7,20.7
						c-29.2,0-53-23.8-53-53s23.8-53,53-53s53,23.8,53,53S113,20.7,83.7,20.7z"/>
				</g>
			</g>
		</g>
	</g>
	<g id="Ultralight-L" transform="matrix(1 0 0 1 476.85 1556)">
		<g>
			<g>
				<g>
					<path d="M82.9-85.3c-29.3,0-53,23.7-53,53s23.7,53,53,53s53-23.7,53-53S112-85.3,82.9-85.3z M110-65.5c0.6-0.7,1.5-1,2.4-1.1
						c0.8-0.1,1.8,0.3,2.4,0.9c6.9,6.5,11.6,14.7,13.5,24c0.3,1.5-0.5,2.9-1.7,3.6c-3.3,1.7-7.1,2.5-10.8,2.5c-4.8,0-9.3-1.4-12-4.1
						C98.1-45.2,100.5-54.9,110-65.5z M55.8,1.5c-0.6,0.7-1.5,1-2.4,1.1h-0.1c-0.9,0-1.7-0.3-2.3-0.9c-6.9-6.5-11.6-14.7-13.5-24
						c-0.3-1.5,0.5-2.9,1.7-3.6c7.4-3.8,18.1-3.2,22.8,1.6C67.6-18.8,65.2-9.1,55.8,1.5z M62-39.6c-2.6,2.6-7.2,4.1-12,4.1
						c-3.7,0-7.5-0.8-10.8-2.5c-1.4-0.7-2-2.1-1.7-3.6c1.9-9.1,6.6-17.4,13.5-24c0.7-0.6,1.6-1,2.4-0.9c0.9,0,1.7,0.5,2.4,1.1
						C65.2-54.9,67.6-45.2,62-39.6z M97,11.9c-4.6,1.5-9.3,2.3-14.2,2.3s-9.6-0.8-14.2-2.3c-1.5-0.5-2.4-1.9-2.3-3.4
						c0.8-11.9,7.9-20.9,16.4-20.9s15.6,9,16.4,20.9C99.4,10,98.4,11.5,97,11.9z M69.6-32.3c0-7.3,6-13.3,13.3-13.3
						s13.3,6,13.3,13.3S90.2-19,82.9-19S69.6-25,69.6-32.3z M99.3-72.8c-0.8,11.9-7.9,20.9-16.4,20.9s-15.6-9-16.4-20.9
						c-0.1-1.6,0.8-2.9,2.3-3.4c9.2-2.9,19.1-2.9,28.2,0C98.4-75.7,99.4-74.4,99.3-72.8z M128.2-22.8c-1.9,9.1-6.6,17.4-13.5,24
						c-0.6,0.6-1.5,0.9-2.3,0.9h-0.1c-0.9,0-1.7-0.5-2.4-1.1c-9.6-10.6-11.9-20.3-6.3-25.9c4.6-4.6,15.3-5.4,22.8-1.6
						C127.8-25.8,128.6-24.3,128.2-22.8z"/>
					<path d="M82.9-103c-39,0-70.7,31.7-70.7,70.7s31.7,70.7,70.7,70.7s70.7-31.7,70.7-70.7S121.8-103,82.9-103z M82.9,20.7
						c-29.2,0-53-23.8-53-53s23.8-53,53-53s53,23.8,53,53S112.1,20.7,82.9,20.7z"/>
				</g>
			</g>
		</g>
	</g>
	<g id="Black-M" transform="matrix(1 0 0 1 2858.74 1126)">
		<g>
			<g>
				<g>
					<path d="M74.7-77.1c-22.9,0-41.5,18.6-41.5,41.5S51.8,5.9,74.7,5.9s41.5-18.6,41.5-41.5S97.6-77.1,74.7-77.1z M95.9-61.5
						c0.4-0.6,1.1-0.8,1.8-0.9c0.6-0.1,1.3,0.2,1.9,0.7c5.4,5,9.1,11.6,10.5,18.7c0.2,1.1-0.3,2.4-1.3,2.8c-2.6,1.3-5.6,1.9-8.4,1.9
						c-3.8,0-7.3-1.1-9.4-3.1C86.6-45.7,88.4-53.2,95.9-61.5z M53.4-9.1c-0.4,0.6-1.1,0.8-1.8,0.9h-0.1c-0.7,0-1.3-0.2-1.8-0.7
						c-5.4-5-9.1-11.6-10.5-18.7c-0.2-1.1,0.3-2.4,1.3-2.8c5.8-3,14.1-2.5,17.8,1.2C62.7-24.9,60.9-17.4,53.4-9.1z M58.3-41.3
						c-2,2-5.6,3.1-9.4,3.1c-2.9,0-5.9-0.7-8.4-1.9c-1-0.6-1.6-1.7-1.3-2.8c1.6-7.2,5.2-13.7,10.5-18.7c0.6-0.4,1.2-0.8,1.9-0.7
						c0.7,0,1.3,0.3,1.8,0.9C60.9-53.2,62.7-45.7,58.3-41.3z M85.7-0.9c-3.6,1.1-7.3,1.7-11.1,1.7c-3.7,0-7.5-0.6-11.1-1.7
						c-1.1-0.3-1.9-1.5-1.8-2.7C62.4-12.9,67.9-20,74.6-20s12.2,7.1,12.9,16.4C87.6-2.4,86.8-1.3,85.7-0.9z M64.3-35.5
						c0-5.7,4.7-10.4,10.4-10.4c5.7,0,10.4,4.6,10.4,10.4c0,5.7-4.7,10.4-10.4,10.4S64.3-29.8,64.3-35.5z M87.5-67.2
						c-0.7,9.3-6.2,16.4-12.9,16.4s-12.2-7.1-12.9-16.4c-0.1-1.2,0.7-2.2,1.8-2.7c7.2-2.2,14.9-2.2,22.1,0
						C86.8-69.6,87.6-68.5,87.5-67.2z M110.1-28.2C108.6-21,105-14.5,99.6-9.5c-0.4,0.4-1.1,0.7-1.8,0.7h-0.1
						c-0.7,0-1.3-0.3-1.8-0.9C88.4-18,86.6-25.5,91-30c3.7-3.7,12-4.3,17.8-1.2C109.8-30.4,110.4-29.3,110.1-28.2z"/>
					<path d="M74.7-91.1c-30.6,0-55.5,24.9-55.5,55.5S44,20,74.7,20s55.5-24.9,55.5-55.5S105.3-91.1,74.7-91.1z M74.7,6.1
						C51.7,6.1,33-12.6,33-35.5s18.7-41.6,41.6-41.6s41.6,18.7,41.6,41.6S97.6,6.1,74.7,6.1z"/>
				</g>
			</g>
		</g>
	</g>
	<g id="Heavy-M" transform="matrix(1 0 0 1 2563.59 1126)">
		<g>
			<g>
				<g>
					<path d="M73.1-77.1c-22.9,0-41.5,18.6-41.5,41.5S50.2,5.9,73.1,5.9s41.5-18.6,41.5-41.5S96-77.1,73.1-77.1z M94.3-61.5
						c0.4-0.6,1.1-0.8,1.8-0.9c0.6-0.1,1.3,0.2,1.9,0.7c5.4,5,9.1,11.6,10.5,18.7c0.2,1.1-0.3,2.4-1.3,2.8c-2.6,1.3-5.6,1.9-8.4,1.9
						c-3.8,0-7.3-1.1-9.4-3.1C85-45.7,86.9-53.2,94.3-61.5z M51.9-9.1c-0.4,0.6-1.1,0.8-1.8,0.9H50c-0.7,0-1.3-0.2-1.8-0.7
						c-5.4-5-9.1-11.6-10.5-18.7C37.4-28.8,38-30,39-30.4c5.8-3,14.1-2.5,17.8,1.2C61.2-24.9,59.3-17.4,51.9-9.1z M56.7-41.3
						c-2,2-5.6,3.1-9.4,3.1c-2.9,0-5.9-0.7-8.4-1.9c-1-0.6-1.6-1.7-1.3-2.8c1.6-7.2,5.2-13.7,10.5-18.7c0.6-0.4,1.2-0.8,1.9-0.7
						c0.7,0,1.3,0.3,1.8,0.9C59.3-53.2,61.2-45.7,56.7-41.3z M84.2-0.9c-3.6,1.1-7.3,1.7-11.1,1.7c-3.7,0-7.5-0.6-11.1-1.7
						c-1.1-0.3-1.9-1.5-1.8-2.7C60.9-12.9,66.4-20,73.1-20S85.3-12.9,86-3.6C86-2.4,85.3-1.3,84.2-0.9z M62.7-35.5
						c0-5.7,4.7-10.4,10.4-10.4s10.4,4.6,10.4,10.4c0,5.7-4.7,10.4-10.4,10.4S62.7-29.8,62.7-35.5z M86-67.2
						c-0.7,9.3-6.2,16.4-12.9,16.4s-12.2-7.1-12.9-16.4c-0.1-1.2,0.7-2.2,1.8-2.7c7.2-2.2,14.9-2.2,22.1,0
						C85.3-69.6,86-68.5,86-67.2z M108.7-28.2c-1.6,7.2-5.2,13.7-10.5,18.7C97.7-9,97-8.8,96.3-8.8h-0.1c-0.7,0-1.3-0.3-1.8-0.9
						C86.9-18,85.1-25.5,89.5-30c3.7-3.7,12-4.3,17.8-1.2C108.3-30.4,108.9-29.3,108.7-28.2z"/>
					<path d="M73.1-91.1c-30.6,0-55.5,24.9-55.5,55.5S42.5,20,73.1,20s55.5-24.9,55.5-55.5S103.7-91.1,73.1-91.1z M73.1,6.1
						c-23,0-41.6-18.7-41.6-41.6s18.7-41.6,41.6-41.6s41.6,18.7,41.6,41.6S96.1,6.1,73.1,6.1z"/>
				</g>
			</g>
		</g>
	</g>
	<g id="Bold-M" transform="matrix(1 0 0 1 2268.66 1126)">
		<g>
			<g>
				<g>
					<path d="M71.3-77.1c-22.9,0-41.5,18.6-41.5,41.5S48.4,5.9,71.3,5.9s41.5-18.6,41.5-41.5S94.2-77.1,71.3-77.1z M92.5-61.5
						c0.4-0.6,1.1-0.8,1.8-0.9c0.6-0.1,1.3,0.2,1.9,0.7c5.4,5,9.1,11.6,10.5,18.7c0.2,1.1-0.3,2.4-1.3,2.8c-2.6,1.3-5.6,1.9-8.4,1.9
						c-3.8,0-7.3-1.1-9.4-3.1C83.2-45.7,85.1-53.2,92.5-61.5z M50.1-9.1c-0.4,0.6-1.1,0.8-1.8,0.9h-0.1c-0.7,0-1.3-0.2-1.8-0.7
						c-5.4-5-9.1-11.6-10.5-18.7c-0.2-1.1,0.3-2.4,1.3-2.8c5.8-3,14.1-2.5,17.8,1.2C59.4-24.9,57.5-17.4,50.1-9.1z M55-41.3
						c-2,2-5.6,3.1-9.4,3.1c-2.9,0-5.9-0.7-8.4-1.9c-1-0.6-1.6-1.7-1.3-2.8c1.6-7.2,5.2-13.7,10.5-18.7c0.6-0.4,1.2-0.8,1.9-0.7
						c0.7,0,1.3,0.3,1.8,0.9C57.5-53.2,59.4-45.7,55-41.3z M82.4-0.9c-3.6,1.1-7.3,1.7-11.1,1.7c-3.7,0-7.5-0.6-11.1-1.7
						c-1.1-0.3-1.9-1.5-1.8-2.7C59.1-12.9,64.6-20,71.3-20s12.2,7.1,12.9,16.4C84.3-2.4,83.5-1.3,82.4-0.9z M61-35.5
						c0-5.7,4.7-10.4,10.4-10.4c5.7,0,10.4,4.6,10.4,10.4c0,5.7-4.7,10.4-10.4,10.4S61-29.8,61-35.5z M84.2-67.2
						c-0.7,9.3-6.2,16.4-12.9,16.4s-12.2-7.1-12.9-16.4c-0.1-1.2,0.7-2.2,1.8-2.7c7.2-2.2,14.9-2.2,22.1,0
						C83.5-69.6,84.3-68.5,84.2-67.2z M106.9-28.2c-1.6,7.2-5.2,13.7-10.5,18.7c-0.4,0.4-1.1,0.7-1.8,0.7h-0.1
						c-0.7,0-1.3-0.3-1.8-0.9C85.1-18,83.3-25.5,87.7-30c3.7-3.7,12-4.3,17.8-1.2C106.5-30.4,107.1-29.3,106.9-28.2z"/>
					<path d="M71.3-91.1c-30.6,0-55.5,24.9-55.5,55.5S40.7,20,71.3,20s55.5-24.9,55.5-55.5S101.9-91.1,71.3-91.1z M71.3,6.1
						c-23,0-41.6-18.7-41.6-41.6s18.7-41.6,41.6-41.6s41.6,18.7,41.6,41.6S94.3,6.1,71.3,6.1z"/>
				</g>
			</g>
		</g>
	</g>
	<g id="Semibold-M" transform="matrix(1 0 0 1 1973.17 1126)">
		<g>
			<g>
				<g>
					<path d="M70.1-77.1c-22.9,0-41.5,18.6-41.5,41.5S47.2,5.9,70.1,5.9s41.5-18.6,41.5-41.5S93-77.1,70.1-77.1z M91.3-61.5
						c0.4-0.6,1.1-0.8,1.8-0.9c0.6-0.1,1.3,0.2,1.9,0.7c5.4,5,9.1,11.6,10.5,18.7c0.2,1.1-0.3,2.4-1.3,2.8c-2.6,1.3-5.6,1.9-8.4,1.9
						c-3.8,0-7.3-1.1-9.4-3.1C82-45.7,83.9-53.2,91.3-61.5z M48.9-9.1c-0.4,0.6-1.1,0.8-1.8,0.9H47c-0.7,0-1.3-0.2-1.8-0.7
						c-5.4-5-9.1-11.6-10.5-18.7C34.4-28.8,35-30,36-30.4c5.8-3,14.1-2.5,17.8,1.2C58.2-24.9,56.3-17.4,48.9-9.1z M53.7-41.3
						c-2,2-5.6,3.1-9.4,3.1c-2.9,0-5.9-0.7-8.4-1.9c-1-0.6-1.6-1.7-1.3-2.8c1.6-7.2,5.2-13.7,10.5-18.7c0.6-0.4,1.2-0.8,1.9-0.7
						c0.7,0,1.3,0.3,1.8,0.9C56.3-53.2,58.2-45.7,53.7-41.3z M81.2-0.9c-3.6,1.1-7.3,1.7-11.1,1.7c-3.7,0-7.5-0.6-11.1-1.7
						c-1.1-0.3-1.9-1.5-1.8-2.7C57.9-12.9,63.4-20,70.1-20S82.3-12.9,83-3.6C83-2.4,82.3-1.3,81.2-0.9z M59.7-35.5
						c0-5.7,4.7-10.4,10.4-10.4s10.4,4.6,10.4,10.4c0,5.7-4.7,10.4-10.4,10.4S59.7-29.8,59.7-35.5z M83-67.2
						c-0.7,9.3-6.2,16.4-12.9,16.4s-12.2-7.1-12.9-16.4c-0.1-1.2,0.7-2.2,1.8-2.7c7.2-2.2,14.9-2.2,22.1,0
						C82.3-69.6,83-68.5,83-67.2z M105.7-28.2c-1.6,7.2-5.2,13.7-10.5,18.7C94.7-9,94-8.8,93.3-8.8h-0.1c-0.7,0-1.3-0.3-1.8-0.9
						C83.9-18,82.1-25.5,86.5-30c3.7-3.7,12-4.3,17.8-1.2C105.3-30.4,105.9-29.3,105.7-28.2z"/>
					<path d="M70.1-91.1c-30.6,0-55.5,24.9-55.5,55.5S39.5,20,70.1,20s55.5-24.9,55.5-55.5S100.7-91.1,70.1-91.1z M70.1,6.1
						c-23,0-41.6-18.7-41.6-41.6s18.7-41.6,41.6-41.6s41.6,18.7,41.6,41.6S93.1,6.1,70.1,6.1z"/>
				</g>
			</g>
		</g>
	</g>
	<g id="Medium-M" transform="matrix(1 0 0 1 1677.39 1126)">
		<g>
			<g>
				<g>
					<path d="M69.2-77.1c-22.9,0-41.5,18.6-41.5,41.5S46.3,5.9,69.2,5.9s41.5-18.6,41.5-41.5S92.1-77.1,69.2-77.1z M90.4-61.5
						c0.4-0.6,1.1-0.8,1.8-0.9c0.6-0.1,1.3,0.2,1.9,0.7c5.4,5,9.1,11.6,10.5,18.7c0.2,1.1-0.3,2.4-1.3,2.8c-2.6,1.3-5.6,1.9-8.4,1.9
						c-3.8,0-7.3-1.1-9.4-3.1C81.1-45.7,82.9-53.2,90.4-61.5z M47.9-9.1c-0.4,0.6-1.1,0.8-1.8,0.9H46c-0.7,0-1.3-0.2-1.8-0.7
						c-5.4-5-9.1-11.6-10.5-18.7C33.4-28.8,34-30,35-30.4c5.8-3,14.1-2.5,17.8,1.2C57.2-24.9,55.4-17.4,47.9-9.1z M52.8-41.3
						c-2,2-5.6,3.1-9.4,3.1c-2.9,0-5.9-0.7-8.4-1.9c-1-0.6-1.6-1.7-1.3-2.8c1.6-7.2,5.2-13.7,10.5-18.7c0.6-0.4,1.2-0.8,1.9-0.7
						c0.7,0,1.3,0.3,1.8,0.9C55.4-53.2,57.2-45.7,52.8-41.3z M80.2-0.9c-3.6,1.1-7.3,1.7-11.1,1.7c-3.7,0-7.5-0.6-11.1-1.7
						c-1.1-0.3-1.9-1.5-1.8-2.7C56.9-12.9,62.4-20,69.1-20S81.3-12.9,82-3.6C82.1-2.4,81.3-1.3,80.2-0.9z M58.8-35.5
						c0-5.7,4.7-10.4,10.4-10.4c5.7,0,10.4,4.6,10.4,10.4c0,5.7-4.7,10.4-10.4,10.4S58.8-29.8,58.8-35.5z M82-67.2
						c-0.7,9.3-6.2,16.4-12.9,16.4s-12.2-7.1-12.9-16.4c-0.1-1.2,0.7-2.2,1.8-2.7c7.2-2.2,14.9-2.2,22.1,0
						C81.3-69.6,82.1-68.5,82-67.2z M104.6-28.2c-1.6,7.2-5.2,13.7-10.5,18.7C93.7-9,93-8.8,92.3-8.8h-0.1c-0.7,0-1.3-0.3-1.8-0.9
						C82.9-18,81.1-25.5,85.5-30c3.7-3.7,12-4.3,17.8-1.2C104.4-30.4,104.9-29.3,104.6-28.2z"/>
					<path d="M69.2-91.1c-30.6,0-55.5,24.9-55.5,55.5S38.6,20,69.2,20s55.5-24.9,55.5-55.5S99.8-91.1,69.2-91.1z M69.2,6.1
						c-23,0-41.6-18.7-41.6-41.6s18.7-41.6,41.6-41.6s41.6,18.7,41.6,41.6S92.1,6.1,69.2,6.1z"/>
				</g>
			</g>
		</g>
	</g>
	<g id="Regular-M" transform="matrix(1 0 0 1 1381.88 1126)">
		<g>
			<g>
				<g>
					<path d="M68-77.2c-22.9,0-41.6,18.7-41.6,41.6S45.1,6,68,6s41.6-18.7,41.6-41.6S90.9-77.2,68-77.2z M89.2-61.6
						c0.4-0.6,1.1-0.8,1.8-0.9c0.6-0.1,1.3,0.2,1.9,0.7c5.4,5.1,9.1,11.6,10.6,18.8c0.2,1.1-0.3,2.4-1.3,2.8
						c-2.6,1.3-5.6,1.9-8.4,1.9c-3.8,0-7.3-1.1-9.4-3.1C79.9-45.7,81.7-53.3,89.2-61.6z M46.6-9.1c-0.4,0.6-1.1,0.8-1.8,0.9h-0.1
						c-0.7,0-1.3-0.2-1.8-0.7c-5.4-5.1-9.1-11.6-10.6-18.8c-0.2-1.1,0.3-2.4,1.3-2.8c5.8-3,14.2-2.5,17.9,1.2
						C56-24.9,54.2-17.4,46.6-9.1z M51.6-41.3c-2,2-5.6,3.1-9.4,3.1c-2.9,0-6-0.7-8.4-1.9c-1-0.6-1.6-1.7-1.3-2.8
						c1.6-7.2,5.2-13.7,10.6-18.8c0.6-0.4,1.2-0.8,1.9-0.7c0.7,0,1.3,0.3,1.8,0.9C54.2-53.3,56-45.7,51.6-41.3z M79-0.9
						c-3.6,1.1-7.3,1.7-11.1,1.7c-3.8,0-7.5-0.6-11.1-1.7c-1.1-0.3-1.9-1.5-1.8-2.7C55.7-12.9,61.3-20,68-20s12.3,7.1,12.9,16.4
						C80.9-2.3,80.1-1.2,79-0.9z M57.5-35.5c0-5.7,4.7-10.5,10.5-10.5s10.5,4.6,10.5,10.5C78.5-29.8,73.7-25,68-25
						S57.5-29.8,57.5-35.5z M80.8-67.3c-0.7,9.3-6.2,16.4-12.9,16.4c-6.7,0-12.3-7.1-12.9-16.4c-0.1-1.2,0.7-2.2,1.8-2.7
						c7.2-2.2,15-2.2,22.1,0C80.1-69.7,80.9-68.5,80.8-67.3z M103.5-28.2C102-21,98.4-14.5,93-9.4c-0.4,0.4-1.1,0.7-1.8,0.7H91
						c-0.7,0-1.3-0.3-1.8-0.9c-7.5-8.3-9.3-15.9-4.9-20.4c3.7-3.7,12-4.3,17.9-1.2C103.3-30.4,103.8-29.3,103.5-28.2z"/>
					<path d="M68-91.1c-30.6,0-55.5,24.9-55.5,55.5S37.4,20,68,20s55.5-24.9,55.5-55.5S98.6-91.1,68-91.1z M68,6.1
						c-23,0-41.6-18.7-41.6-41.6S45-77.2,68-77.2s41.6,18.7,41.6,41.6S90.9,6.1,68,6.1z"/>
				</g>
			</g>
		</g>
	</g>
	<g id="Light-M" transform="matrix(1 0 0 1 1086.31 1126)">
		<g>
			<g>
				<g>
					<path d="M66.8-77.1c-22.9,0-41.5,18.6-41.5,41.5S43.9,5.9,66.8,5.9s41.5-18.6,41.5-41.5S89.7-77.1,66.8-77.1z M88.1-61.5
						c0.4-0.6,1.1-0.8,1.8-0.9c0.6-0.1,1.3,0.2,1.9,0.7c5.4,5,9.1,11.6,10.5,18.7c0.2,1.1-0.3,2.4-1.3,2.8c-2.6,1.3-5.6,1.9-8.4,1.9
						c-3.8,0-7.3-1.1-9.4-3.1C78.8-45.7,80.6-53.2,88.1-61.5z M45.6-9.1c-0.4,0.6-1.1,0.8-1.8,0.9h-0.1c-0.7,0-1.3-0.2-1.8-0.7
						c-5.4-5-9.1-11.6-10.5-18.7c-0.2-1.1,0.3-2.4,1.3-2.8c5.8-3,14.1-2.5,17.8,1.2C54.9-24.9,53-17.4,45.6-9.1z M50.5-41.3
						c-2,2-5.6,3.1-9.4,3.1c-2.9,0-5.9-0.7-8.4-1.9c-1-0.6-1.6-1.7-1.3-2.8c1.6-7.2,5.2-13.7,10.5-18.7c0.6-0.4,1.2-0.8,1.9-0.7
						c0.7,0,1.3,0.3,1.8,0.9C53.1-53.2,54.9-45.7,50.5-41.3z M77.9-0.9c-3.6,1.1-7.3,1.7-11.1,1.7c-3.7,0-7.5-0.6-11.1-1.7
						c-1.1-0.3-1.9-1.5-1.8-2.7C54.6-12.9,60.1-20,66.8-20S79-12.9,79.7-3.6C79.8-2.4,79-1.3,77.9-0.9z M56.5-35.5
						c0-5.7,4.7-10.4,10.4-10.4s10.4,4.6,10.4,10.4c0,5.7-4.7,10.4-10.4,10.4S56.5-29.8,56.5-35.5z M79.7-67.2
						c-0.7,9.3-6.2,16.4-12.9,16.4s-12.2-7.1-12.9-16.4c-0.1-1.2,0.7-2.2,1.8-2.7c7.2-2.2,14.9-2.2,22.1,0
						C79-69.6,79.8-68.5,79.7-67.2z M102.4-28.2c-1.6,7.2-5.2,13.7-10.5,18.7C91.4-9,90.7-8.8,90-8.8h-0.1c-0.7,0-1.3-0.3-1.8-0.9
						C80.6-18,78.8-25.5,83.2-30c3.7-3.7,12-4.3,17.8-1.2C102-30.4,102.6-29.3,102.4-28.2z"/>
					<path d="M66.8-91.1c-30.6,0-55.5,24.9-55.5,55.5S36.2,20,66.8,20s55.5-24.9,55.5-55.5S97.4-91.1,66.8-91.1z M66.8,6.1
						c-23,0-41.6-18.7-41.6-41.6s18.7-41.6,41.6-41.6s41.6,18.7,41.6,41.6S89.8,6.1,66.8,6.1z"/>
				</g>
			</g>
		</g>
	</g>
	<g id="Thin-M" transform="matrix(1 0 0 1 791.139 1126)">
		<g>
			<g>
				<g>
					<path d="M65.3-77.1c-22.9,0-41.5,18.6-41.5,41.5S42.4,5.9,65.3,5.9s41.5-18.6,41.5-41.5S88.2-77.1,65.3-77.1z M86.5-61.5
						c0.4-0.6,1.1-0.8,1.8-0.9c0.6-0.1,1.3,0.2,1.9,0.7c5.4,5,9.1,11.6,10.5,18.7c0.2,1.1-0.3,2.4-1.3,2.8c-2.6,1.3-5.6,1.9-8.4,1.9
						c-3.8,0-7.3-1.1-9.4-3.1C77.2-45.7,79.1-53.2,86.5-61.5z M44-9.1c-0.4,0.6-1.1,0.8-1.8,0.9h-0.1c-0.7,0-1.3-0.2-1.8-0.7
						c-5.4-5-9.1-11.6-10.5-18.7c-0.2-1.1,0.3-2.4,1.3-2.8c5.8-3,14.1-2.5,17.8,1.2C53.3-24.9,51.5-17.4,44-9.1z M48.9-41.3
						c-2,2-5.6,3.1-9.4,3.1c-2.9,0-5.9-0.7-8.4-1.9c-1-0.6-1.6-1.7-1.3-2.8c1.6-7.2,5.2-13.7,10.5-18.7c0.6-0.4,1.2-0.8,1.9-0.7
						c0.7,0,1.3,0.3,1.8,0.9C51.5-53.2,53.3-45.7,48.9-41.3z M76.3-0.9C72.7,0.2,69,0.7,65.2,0.7c-3.7,0-7.5-0.6-11.1-1.7
						c-1.1-0.3-1.9-1.5-1.8-2.7C53-12.9,58.5-20,65.2-20s12.2,7.1,12.9,16.4C78.2-2.4,77.5-1.3,76.3-0.9z M54.9-35.5
						c0-5.7,4.7-10.4,10.4-10.4s10.4,4.6,10.4,10.4c0,5.7-4.7,10.4-10.4,10.4S54.9-29.8,54.9-35.5z M78.1-67.2
						c-0.7,9.3-6.2,16.4-12.9,16.4S53-57.9,52.3-67.2c-0.1-1.2,0.7-2.2,1.8-2.7c7.2-2.2,14.9-2.2,22.1,0
						C77.5-69.6,78.2-68.5,78.1-67.2z M100.7-28.2C99.2-21,95.6-14.5,90.2-9.5c-0.4,0.4-1.1,0.7-1.8,0.7h-0.1
						c-0.7,0-1.3-0.3-1.8-0.9C79-18,77.2-25.5,81.6-30c3.7-3.7,12-4.3,17.8-1.2C100.5-30.4,101.1-29.3,100.7-28.2z"/>
					<path d="M65.3-91.1c-30.6,0-55.5,24.9-55.5,55.5S34.7,20,65.3,20s55.5-24.9,55.5-55.5S95.9-91.1,65.3-91.1z M65.3,6.1
						c-23,0-41.6-18.7-41.6-41.6s18.7-41.6,41.6-41.6s41.6,18.7,41.6,41.6S88.2,6.1,65.3,6.1z"/>
				</g>
			</g>
		</g>
	</g>
	<g id="Ultralight-M" transform="matrix(1 0 0 1 495.209 1126)">
		<g>
			<g>
				<g>
					<path d="M64.5-77.1C41.6-77.1,23-58.5,23-35.6S41.6,5.9,64.5,5.9S106-12.7,106-35.6S87.4-77.1,64.5-77.1z M85.7-61.5
						c0.4-0.6,1.1-0.8,1.8-0.9c0.6-0.1,1.3,0.2,1.9,0.7c5.4,5,9.1,11.6,10.5,18.7c0.2,1.1-0.3,2.4-1.3,2.8c-2.6,1.3-5.6,1.9-8.4,1.9
						c-3.8,0-7.3-1.1-9.4-3.1C76.4-45.7,78.3-53.2,85.7-61.5z M43.3-9.1c-0.4,0.6-1.1,0.8-1.8,0.9h-0.1c-0.7,0-1.3-0.2-1.8-0.7
						c-5.4-5-9.1-11.6-10.5-18.7c-0.2-1.1,0.3-2.4,1.3-2.8c5.8-3,14.1-2.5,17.8,1.2C52.6-24.9,50.7-17.4,43.3-9.1z M48.1-41.3
						c-2,2-5.6,3.1-9.4,3.1c-2.9,0-5.9-0.7-8.4-1.9c-1-0.6-1.6-1.7-1.3-2.8c1.6-7.2,5.2-13.7,10.5-18.7c0.6-0.4,1.2-0.8,1.9-0.7
						c0.7,0,1.3,0.3,1.8,0.9C50.7-53.2,52.6-45.7,48.1-41.3z M75.6-0.9C72,0.2,68.3,0.7,64.5,0.7c-3.7,0-7.5-0.6-11.1-1.7
						c-1.1-0.3-1.8-1.5-1.8-2.7C52.3-12.9,57.8-20,64.5-20s12.2,7.1,12.9,16.4C77.4-2.4,76.7-1.3,75.6-0.9z M54.1-35.5
						c0-5.7,4.7-10.4,10.4-10.4s10.4,4.6,10.4,10.4c0,5.7-4.7,10.4-10.4,10.4S54.1-29.8,54.1-35.5z M77.4-67.2
						c-0.7,9.3-6.2,16.4-12.9,16.4s-12.2-7.1-12.9-16.4c-0.1-1.2,0.7-2.2,1.8-2.7c7.2-2.2,14.9-2.2,22.1,0
						C76.7-69.6,77.4-68.5,77.4-67.2z M100.1-28.2C98.5-21,94.9-14.5,89.5-9.5c-0.4,0.4-1.1,0.7-1.8,0.7h-0.1
						c-0.7,0-1.3-0.3-1.8-0.9C78.3-18,76.5-25.5,80.9-30c3.7-3.7,12-4.3,17.8-1.2C99.7-30.4,100.3-29.3,100.1-28.2z"/>
					<path d="M64.5-91.1C33.9-91.1,9-66.2,9-35.5S33.9,20,64.5,20S120-4.9,120-35.5S95.1-91.1,64.5-91.1z M64.5,6.1
						c-23,0-41.6-18.7-41.6-41.6s18.7-41.6,41.6-41.6s41.6,18.7,41.6,41.6S87.5,6.1,64.5,6.1z"/>
				</g>
			</g>
		</g>
	</g>
	<g id="Black-S" transform="matrix(1 0 0 1 2875 696)">
		<g>
			<g>
				<g>
					<path d="M58.4-66.2c-18.1,0-32.9,14.8-32.9,32.9S40.3-0.4,58.4-0.4s32.9-14.8,32.9-32.9S76.5-66.2,58.4-66.2z M75.2-53.9
						c0.3-0.4,0.9-0.7,1.5-0.7c0.4,0,1.1,0.2,1.5,0.6c4.3,4,7.2,9.2,8.4,14.9c0.2,0.9-0.2,1.8-1.1,2.2c-2,1-4.4,1.6-6.7,1.6
						c-3,0-5.8-0.9-7.5-2.5C67.8-41.4,69.3-47.3,75.2-53.9z M41.6-12.4c-0.4,0.4-0.9,0.7-1.5,0.7c0,0,0,0-0.1,0
						c-0.6,0-1-0.2-1.5-0.6c-4.3-4-7.2-9.2-8.4-14.9c-0.2-0.9,0.2-1.8,1.1-2.2c4.6-2.4,11.2-1.9,14.1,0.9C49-24.9,47.5-19,41.6-12.4
						z M45.4-37.8c-1.7,1.7-4.5,2.5-7.5,2.5c-2.2,0-4.7-0.6-6.7-1.6c-0.8-0.4-1.2-1.3-1.1-2.2c1.2-5.7,4.1-10.9,8.4-14.9
						c0.4-0.3,1-0.7,1.5-0.6c0.6,0,1.1,0.2,1.5,0.7C47.5-47.3,49-41.4,45.4-37.8z M67.1-5.9c-2.8,0.9-5.8,1.3-8.7,1.3
						S52.5-5,49.7-5.9C48.8-6.2,48.2-7,48.2-8c0.6-7.4,4.9-13,10.2-13S68-15.4,68.6-8C68.7-7,68-6.2,67.1-5.9z M50.2-33.3
						c0-4.6,3.7-8.2,8.2-8.2s8.2,3.7,8.2,8.2s-3.7,8.2-8.2,8.2S50.2-28.7,50.2-33.3z M68.6-58.4c-0.6,7.4-4.9,13-10.2,13
						s-9.6-5.6-10.2-13c-0.1-0.9,0.6-1.8,1.5-2.1c5.7-1.8,11.9-1.8,17.6,0C68-60.3,68.7-59.4,68.6-58.4z M86.5-27.4
						c-1.2,5.7-4.1,10.9-8.4,14.9c-0.3,0.3-0.9,0.6-1.5,0.6h-0.1c-0.6,0-1.1-0.2-1.5-0.7c-5.9-6.6-7.4-12.5-3.9-16
						c2.9-2.9,9.5-3.4,14.1-0.9C86.3-29.3,86.7-28.4,86.5-27.4z"/>
					<path d="M58.4-77.3c-24.3,0-44.1,19.8-44.1,44.1s19.8,44.1,44.1,44.1S102.5-9,102.5-33.3S82.7-77.3,58.4-77.3z M58.4-0.2
						c-18.2,0-33-14.8-33-33s14.8-33,33-33s33,14.8,33,33S76.6-0.2,58.4-0.2z"/>
				</g>
			</g>
		</g>
	</g>
	<g id="Heavy-S" transform="matrix(1 0 0 1 2579.36 696)">
		<g>
			<g>
				<g>
					<path d="M57.3-66.2c-18.1,0-32.9,14.8-32.9,32.9S39.2-0.4,57.3-0.4s32.9-14.8,32.9-32.9S75.4-66.2,57.3-66.2z M74.2-53.9
						c0.3-0.4,0.9-0.7,1.5-0.7c0.4,0,1.1,0.2,1.5,0.6c4.3,4,7.2,9.2,8.4,14.9c0.2,0.9-0.2,1.8-1.1,2.2c-2,1-4.4,1.6-6.7,1.6
						c-3,0-5.8-0.9-7.5-2.5C66.8-41.4,68.3-47.3,74.2-53.9z M40.5-12.4c-0.3,0.4-0.9,0.7-1.5,0.7c0,0,0,0-0.1,0
						c-0.6,0-1-0.2-1.5-0.6c-4.3-4-7.2-9.2-8.4-14.9c-0.2-0.9,0.2-1.8,1.1-2.2c4.6-2.4,11.2-1.9,14.1,0.9
						C47.9-24.9,46.4-19,40.5-12.4z M44.4-37.8c-1.7,1.7-4.5,2.5-7.5,2.5c-2.2,0-4.7-0.6-6.7-1.6c-0.8-0.4-1.2-1.3-1.1-2.2
						c1.2-5.7,4.1-10.9,8.4-14.9c0.4-0.3,1-0.7,1.5-0.6c0.6,0,1.1,0.2,1.5,0.7C46.4-47.3,47.9-41.4,44.4-37.8z M66.1-5.9
						c-2.9,0.9-5.8,1.3-8.8,1.3c-3,0-5.9-0.4-8.7-1.3C47.7-6.2,47.1-7,47.1-8c0.6-7.4,4.9-13,10.2-13s9.6,5.6,10.2,13
						C67.6-7,67-6.2,66.1-5.9z M49.1-33.3c0-4.6,3.7-8.2,8.2-8.2s8.2,3.7,8.2,8.2s-3.7,8.2-8.2,8.2S49.1-28.7,49.1-33.3z M67.5-58.4
						c-0.6,7.4-4.9,13-10.2,13s-9.6-5.6-10.2-13c-0.1-0.9,0.6-1.8,1.5-2.1c5.7-1.8,11.9-1.8,17.6,0C67-60.3,67.6-59.4,67.5-58.4z
						 M85.5-27.4c-1.2,5.7-4.1,10.9-8.4,14.9c-0.3,0.3-0.9,0.6-1.5,0.6h-0.1c-0.6,0-1.1-0.2-1.5-0.7c-5.9-6.6-7.4-12.5-3.9-16
						c2.9-2.9,9.5-3.4,14.1-0.9C85.2-29.3,85.6-28.4,85.5-27.4z"/>
					<path d="M57.3-77.3c-24.3,0-44.1,19.8-44.1,44.1s19.8,44,44.1,44S101.4-9,101.4-33.3S81.6-77.3,57.3-77.3z M57.3-0.2
						c-18.2,0-33-14.8-33-33s14.8-33,33-33s33,14.8,33,33S75.5-0.2,57.3-0.2z"/>
				</g>
			</g>
		</g>
	</g>
	<g id="Bold-S" transform="matrix(1 0 0 1 2283.87 696)">
		<g>
			<g>
				<g>
					<path d="M56.1-66.2c-18.1,0-32.9,14.8-32.9,32.9S38-0.4,56.1-0.4S89-15.2,89-33.3S74.2-66.2,56.1-66.2z M72.9-53.9
						c0.3-0.4,0.9-0.7,1.5-0.7c0.4,0,1.1,0.2,1.5,0.6c4.3,4,7.2,9.2,8.4,14.9c0.2,0.9-0.2,1.8-1.1,2.2c-2,1-4.4,1.6-6.7,1.6
						c-3,0-5.8-0.9-7.5-2.5C65.5-41.4,67-47.3,72.9-53.9z M39.3-12.4c-0.3,0.4-0.9,0.7-1.5,0.7c0,0,0,0-0.1,0c-0.6,0-1-0.2-1.5-0.6
						c-4.3-4-7.2-9.2-8.4-14.9c-0.2-0.9,0.2-1.8,1.1-2.2c4.6-2.4,11.2-1.9,14.1,0.9C46.7-24.9,45.2-19,39.3-12.4z M43.1-37.8
						c-1.7,1.7-4.5,2.5-7.5,2.5c-2.2,0-4.7-0.6-6.7-1.6c-0.8-0.4-1.2-1.3-1.1-2.2C29-44.8,31.9-50,36.2-54c0.4-0.3,1-0.7,1.5-0.6
						c0.6,0,1.1,0.2,1.5,0.7C45.2-47.3,46.7-41.4,43.1-37.8z M64.8-5.9C62-5,59-4.5,56.1-4.5S50.2-5,47.4-5.9
						C46.5-6.2,45.9-7,45.9-8c0.6-7.4,4.9-13,10.2-13s9.6,5.6,10.2,13C66.4-7,65.7-6.2,64.8-5.9z M47.9-33.3c0-4.6,3.7-8.2,8.2-8.2
						s8.2,3.7,8.2,8.2s-3.7,8.2-8.2,8.2S47.9-28.7,47.9-33.3z M66.3-58.4c-0.6,7.4-4.9,13-10.2,13s-9.6-5.6-10.2-13
						c-0.1-0.9,0.6-1.8,1.5-2.1c5.7-1.8,11.9-1.8,17.6,0C65.7-60.3,66.4-59.4,66.3-58.4z M84.2-27.4C83-21.7,80-16.5,75.8-12.5
						c-0.3,0.3-0.9,0.6-1.5,0.6h-0.1c-0.6,0-1.1-0.2-1.5-0.7c-5.9-6.6-7.4-12.5-3.9-16c2.9-2.9,9.5-3.4,14.1-0.9
						C84-29.3,84.4-28.4,84.2-27.4z"/>
					<path d="M56.1-77.3c-24.3,0-44.1,19.7-44.1,44s19.8,44.1,44.1,44.1S100.2-9,100.2-33.3S80.4-77.3,56.1-77.3z M56.1-0.2
						c-18.2,0-33-14.8-33-33s14.8-33,33-33s33,14.8,33,33S74.3-0.2,56.1-0.2z"/>
				</g>
			</g>
		</g>
	</g>
	<g id="Semibold-S" transform="matrix(1 0 0 1 1987.99 696)">
		<g>
			<g>
				<g>
					<path d="M55.3-66.2c-18.1,0-32.9,14.8-32.9,32.9S37.2-0.4,55.3-0.4s32.9-14.8,32.9-32.9S73.4-66.2,55.3-66.2z M72.1-53.9
						c0.3-0.4,0.9-0.7,1.5-0.7c0.4,0,1.1,0.2,1.5,0.6c4.3,4,7.2,9.2,8.4,14.9c0.2,0.9-0.2,1.8-1.1,2.2c-2,1-4.4,1.6-6.7,1.6
						c-3,0-5.8-0.9-7.5-2.5C64.7-41.4,66.2-47.3,72.1-53.9z M38.4-12.4c-0.3,0.4-0.9,0.7-1.3,0.7c0,0,0,0-0.1,0
						c-0.6,0-1-0.2-1.5-0.6c-4.3-4-7.2-9.2-8.4-14.9c-0.2-0.9,0.2-1.8,1.1-2.2c4.6-2.4,11.2-1.9,14.1,0.9
						C45.8-24.9,44.3-19,38.4-12.4z M42.3-37.8c-1.7,1.7-4.5,2.5-7.5,2.5c-2.2,0-4.7-0.6-6.7-1.6c-0.8-0.4-1.2-1.3-1.1-2.2
						c1.2-5.7,4.1-10.9,8.4-14.9c0.4-0.3,1-0.7,1.5-0.6c0.6,0,1.1,0.2,1.5,0.7C44.3-47.3,45.8-41.4,42.3-37.8z M64-5.9
						c-2.8,0.9-5.8,1.3-8.7,1.3S49.4-5,46.5-5.9C45.6-6.2,45-7,45-8c0.6-7.4,4.9-13,10.2-13s9.6,5.6,10.2,13C65.5-7,64.9-6.2,64-5.9
						z M47-33.3c0-4.6,3.7-8.2,8.2-8.2s8.2,3.7,8.2,8.2s-3.7,8.2-8.2,8.2S47-28.7,47-33.3z M65.5-58.4c-0.6,7.4-4.9,13-10.2,13
						s-9.6-5.6-10.2-13c-0.1-0.9,0.6-1.8,1.5-2.1c5.7-1.8,11.9-1.8,17.6,0C64.9-60.3,65.5-59.4,65.5-58.4z M83.4-27.4
						c-1.2,5.7-4.1,10.9-8.4,14.9c-0.3,0.3-0.9,0.6-1.5,0.6h-0.1c-0.6,0-1.1-0.2-1.5-0.7c-5.9-6.6-7.4-12.5-3.9-16
						c2.9-2.9,9.5-3.4,14.1-0.9C83.2-29.3,83.6-28.4,83.4-27.4z"/>
					<path d="M55.3-77.3c-24.3,0-44.1,19.8-44.1,44.1s19.8,44,44.1,44s44-19.8,44-44.1S79.6-77.3,55.3-77.3z M55.3-0.2
						c-18.2,0-33-14.8-33-33s14.8-33,33-33s33,14.8,33,33S73.5-0.2,55.3-0.2z"/>
				</g>
			</g>
		</g>
	</g>
	<g id="Medium-S" transform="matrix(1 0 0 1 1691.92 696)">
		<g>
			<g>
				<g>
					<path d="M54.6-66.2c-18.1,0-32.9,14.8-32.9,32.9S36.5-0.4,54.6-0.4s32.9-14.8,32.9-32.9S72.7-66.2,54.6-66.2z M71.5-53.9
						c0.3-0.4,0.9-0.7,1.5-0.7c0.4,0,1.1,0.2,1.5,0.6c4.3,4,7.2,9.2,8.4,14.9c0.2,0.9-0.2,1.8-1.1,2.2c-2,1-4.4,1.6-6.7,1.6
						c-3,0-5.8-0.9-7.5-2.5C64.1-41.4,65.6-47.3,71.5-53.9z M37.8-12.4c-0.3,0.4-0.9,0.7-1.5,0.7c0,0,0,0-0.1,0
						c-0.6,0-1-0.2-1.5-0.6c-4.3-4-7.2-9.2-8.4-14.9c-0.2-0.9,0.2-1.8,1.1-2.2c4.6-2.4,11.2-1.9,14.1,0.9
						C45.2-24.9,43.7-19,37.8-12.4z M41.7-37.8c-1.7,1.7-4.5,2.5-7.5,2.5c-2.2,0-4.7-0.6-6.7-1.6c-0.8-0.4-1.2-1.3-1.1-2.2
						c1.2-5.7,4.1-10.9,8.4-14.9c0.4-0.3,1-0.7,1.5-0.6c0.6,0,1.1,0.2,1.5,0.7C43.7-47.3,45.2-41.4,41.7-37.8z M63.4-5.9
						c-2.8,0.9-5.8,1.3-8.7,1.3c-2.9,0-5.9-0.4-8.8-1.3C45-6.2,44.4-7,44.4-8c0.6-7.4,4.9-13,10.2-13s9.6,5.6,10.2,13
						C64.9-7,64.3-6.2,63.4-5.9z M46.4-33.3c0-4.6,3.7-8.2,8.2-8.2s8.2,3.7,8.2,8.2s-3.7,8.2-8.2,8.2S46.4-28.7,46.4-33.3z
						 M64.8-58.4c-0.6,7.4-4.9,13-10.2,13S45-51,44.4-58.4c-0.1-0.9,0.6-1.8,1.5-2.1c5.7-1.8,11.9-1.8,17.6,0
						C64.3-60.3,64.9-59.4,64.8-58.4z M82.8-27.4c-1.2,5.7-4.1,10.9-8.4,14.9c-0.3,0.3-0.9,0.6-1.5,0.6h-0.1c-0.6,0-1.1-0.2-1.5-0.7
						c-5.9-6.6-7.4-12.5-3.9-16c2.9-2.9,9.5-3.4,14.1-0.9C82.6-29.3,82.9-28.4,82.8-27.4z"/>
					<path d="M54.6-77.3c-24.3,0-44.1,19.8-44.1,44.1s19.8,44.1,44.1,44.1S98.7-9,98.7-33.3S78.9-77.3,54.6-77.3z M54.6-0.2
						c-18.2,0-33-14.8-33-33s14.8-33,33-33s33,14.8,33,33S72.9-0.2,54.6-0.2z"/>
				</g>
			</g>
		</g>
	</g>
	<g id="Light-S" transform="matrix(1 0 0 1 1100.33 696)">
		<g>
			<g>
				<g>
					<path d="M52.8-66.2c-18.1,0-32.9,14.8-32.9,32.9S34.7-0.4,52.8-0.4s32.9-14.8,32.9-32.9S70.9-66.2,52.8-66.2z M69.6-53.9
						c0.3-0.4,0.9-0.7,1.5-0.7c0.4,0,1.1,0.2,1.5,0.6c4.3,4,7.2,9.2,8.4,14.9c0.2,0.9-0.2,1.8-1.1,2.2c-2,1-4.4,1.6-6.7,1.6
						c-3,0-5.8-0.9-7.5-2.5C62.2-41.4,63.7-47.3,69.6-53.9z M36-12.4c-0.4,0.4-0.9,0.7-1.5,0.7c0,0,0,0-0.1,0c-0.6,0-1-0.2-1.5-0.6
						c-4.3-4-7.2-9.2-8.4-14.9c-0.2-0.9,0.2-1.8,1.1-2.2c4.6-2.4,11.2-1.9,14.1,0.9C43.4-24.9,41.9-19,36-12.4z M39.8-37.8
						c-1.7,1.7-4.5,2.5-7.5,2.5c-2.2,0-4.7-0.6-6.7-1.6c-0.8-0.4-1.2-1.3-1.1-2.2c1.2-5.7,4.1-10.9,8.4-14.9c0.4-0.3,1-0.7,1.5-0.6
						c0.6,0,1.1,0.2,1.5,0.7C41.9-47.3,43.4-41.4,39.8-37.8z M61.5-5.9c-2.8,0.9-5.8,1.3-8.7,1.3S46.9-5,44.1-5.9
						C43.2-6.2,42.6-7,42.6-8c0.6-7.4,4.9-13,10.2-13S62.4-15.4,63-8C63.1-7,62.4-6.2,61.5-5.9z M44.6-33.3c0-4.6,3.7-8.2,8.2-8.2
						s8.2,3.7,8.2,8.2s-3.7,8.2-8.2,8.2S44.6-28.7,44.6-33.3z M63-58.4c-0.6,7.4-4.9,13-10.2,13s-9.6-5.6-10.2-13
						c-0.1-0.9,0.6-1.8,1.5-2.1c5.7-1.8,11.9-1.8,17.6,0C62.4-60.3,63.1-59.4,63-58.4z M80.9-27.4c-1.2,5.7-4.1,10.9-8.4,14.9
						c-0.3,0.3-0.9,0.6-1.5,0.6h-0.1c-0.6,0-1.1-0.2-1.5-0.7c-5.9-6.6-7.4-12.5-3.9-16c2.9-2.9,9.5-3.4,14.1-0.9
						C80.7-29.3,81.1-28.4,80.9-27.4z"/>
					<path d="M52.8-77.3c-24.3,0-44.1,19.8-44.1,44.1s19.8,44.1,44.1,44.1S96.9-9,96.9-33.3S77.1-77.3,52.8-77.3z M52.8-0.2
						c-18.2,0-33-14.8-33-33s14.8-33,33-33s33,14.8,33,33S71-0.2,52.8-0.2z"/>
				</g>
			</g>
		</g>
	</g>
	<g id="Thin-S" transform="matrix(1 0 0 1 804.982 696)">
		<g>
			<g>
				<g>
					<path d="M51.4-66.2c-18.1,0-32.9,14.8-32.9,32.9S33.3-0.4,51.4-0.4s32.9-14.8,32.9-32.9S69.5-66.2,51.4-66.2z M68.3-53.9
						c0.3-0.4,0.9-0.7,1.5-0.7c0.4,0,1.1,0.2,1.5,0.6c4.3,4,7.2,9.2,8.4,14.9c0.2,0.9-0.2,1.8-1.1,2.2c-2,1-4.4,1.6-6.7,1.6
						c-3,0-5.8-0.9-7.5-2.5C60.9-41.4,62.4-47.3,68.3-53.9z M34.6-12.4c-0.3,0.4-0.9,0.7-1.5,0.7c0,0,0,0-0.1,0
						c-0.6,0-1-0.2-1.5-0.6c-4.3-4-7.2-9.2-8.4-14.9c-0.2-0.9,0.2-1.8,1.1-2.2c4.6-2.4,11.2-1.9,14.1,0.9C42-24.9,40.5-19,34.6-12.4
						z M38.5-37.8c-1.7,1.7-4.5,2.5-7.5,2.5c-2.2,0-4.7-0.6-6.7-1.6c-0.8-0.4-1.2-1.3-1.1-2.2c1.2-5.7,4.1-10.9,8.4-14.9
						c0.4-0.3,1-0.7,1.5-0.6c0.6,0,1.1,0.2,1.5,0.7C40.5-47.3,42-41.4,38.5-37.8z M60.2-5.9c-2.8,0.9-5.8,1.3-8.7,1.3
						c-2.9,0-5.9-0.4-8.7-1.3C41.9-6.2,41.3-7,41.3-8c0.6-7.4,4.9-13,10.2-13s9.6,5.6,10.2,13C61.7-7,61.1-6.2,60.2-5.9z M43.2-33.3
						c0-4.6,3.7-8.2,8.2-8.2s8.2,3.7,8.2,8.2s-3.7,8.2-8.2,8.2S43.2-28.7,43.2-33.3z M61.6-58.4c-0.6,7.4-4.9,13-10.2,13
						s-9.6-5.6-10.2-13c-0.1-0.9,0.6-1.8,1.5-2.1c5.7-1.8,11.9-1.8,17.6,0C61.1-60.3,61.7-59.4,61.6-58.4z M79.6-27.4
						c-1.2,5.7-4.1,10.9-8.4,14.9c-0.3,0.3-0.9,0.6-1.5,0.6h-0.1c-0.6,0-1.1-0.2-1.5-0.7c-5.9-6.6-7.4-12.5-3.9-16
						c2.9-2.9,9.5-3.4,14.1-0.9C79.4-29.3,79.7-28.4,79.6-27.4z"/>
					<path d="M51.4-77.3c-24.3,0-44.1,19.8-44.1,44.1s19.8,44.1,44.1,44.1S95.5-9,95.5-33.3S75.7-77.3,51.4-77.3z M51.4-0.2
						c-18.2,0-33-14.8-33-33s14.8-33,33-33s33,14.8,33,33S69.7-0.2,51.4-0.2z"/>
				</g>
			</g>
		</g>
	</g>
	<g id="Ultralight-S" transform="matrix(1 0 0 1 508.954 696)">
		<g>
			<g>
				<g>
					<path d="M50.8-66.2c-18.1,0-32.9,14.8-32.9,32.9S32.7-0.4,50.8-0.4s32.9-14.8,32.9-32.9S68.9-66.2,50.8-66.2z M67.6-53.9
						c0.3-0.4,0.9-0.7,1.5-0.7c0.4,0,1.1,0.2,1.5,0.6c4.3,4,7.2,9.2,8.4,14.9c0.2,0.9-0.2,1.8-1.1,2.2c-2,1-4.4,1.6-6.7,1.6
						c-3,0-5.8-0.9-7.5-2.5C60.2-41.4,61.7-47.3,67.6-53.9z M33.9-12.4c-0.3,0.4-0.9,0.7-1.5,0.7c0,0,0,0-0.1,0
						c-0.6,0-1-0.2-1.5-0.6c-4.3-4-7.2-9.2-8.4-14.9c-0.2-0.9,0.2-1.8,1.1-2.2c4.6-2.4,11.2-1.9,14.1,0.9
						C41.3-24.9,39.8-19,33.9-12.4z M37.8-37.8c-1.7,1.7-4.5,2.5-7.5,2.5c-2.2,0-4.7-0.6-6.7-1.6c-0.8-0.4-1.2-1.3-1.1-2.2
						c1.2-5.7,4.1-10.9,8.4-14.9c0.4-0.3,1-0.7,1.5-0.6c0.6,0,1.1,0.2,1.5,0.7C39.8-47.3,41.3-41.4,37.8-37.8z M59.5-5.9
						c-2.9,0.9-5.8,1.3-8.7,1.3S44.9-5,42-5.9C41.1-6.2,40.5-7,40.5-8c0.6-7.4,4.9-13,10.2-13s9.6,5.6,10.2,13
						C61-7,60.4-6.2,59.5-5.9z M42.5-33.3c0-4.6,3.7-8.2,8.2-8.2s8.2,3.7,8.2,8.2s-3.7,8.2-8.2,8.2S42.5-28.7,42.5-33.3z M61-58.4
						c-0.6,7.4-4.9,13-10.2,13s-9.6-5.6-10.2-13c-0.1-0.9,0.6-1.8,1.5-2.1c5.7-1.8,11.9-1.8,17.6,0C60.4-60.3,61-59.4,61-58.4z
						 M78.9-27.4c-1.2,5.7-4.1,10.9-8.4,14.9c-0.3,0.3-0.9,0.6-1.5,0.6h-0.1c-0.6,0-1.1-0.2-1.5-0.7c-5.9-6.6-7.4-12.5-3.9-16
						c2.9-2.9,9.5-3.4,14.1-0.9C78.7-29.3,79.1-28.4,78.9-27.4z"/>
					<path d="M50.8-77.3c-24.3,0-44.1,19.8-44.1,44.1s19.8,44.1,44.1,44.1s44-19.9,44-44.2S75.1-77.3,50.8-77.3z M50.8-0.2
						c-18.2,0-33-14.8-33-33s14.8-33,33-33s33,14.8,33,33S69-0.2,50.8-0.2z"/>
				</g>
			</g>
		</g>
	</g>
	<g id="Regular-S_1_" transform="matrix(1 0 0 1 1396.01 696)">
		<g>
			<g>
				<g>
					<path d="M53.8-66.2c-18.1,0-32.9,14.8-32.9,32.9S35.7-0.4,53.8-0.4s32.9-14.8,32.9-32.9S71.9-66.2,53.8-66.2z M70.7-53.9
						c0.3-0.4,0.9-0.7,1.5-0.7c0.4,0,1.1,0.2,1.5,0.6c4.3,4,7.2,9.2,8.4,14.9c0.2,0.9-0.2,1.8-1.1,2.2c-2,1-4.4,1.6-6.7,1.6
						c-3,0-5.8-0.9-7.5-2.5C63.3-41.4,64.8-47.3,70.7-53.9z M37-12.4c-0.3,0.4-0.9,0.7-1.5,0.7c0,0,0,0-0.1,0c-0.6,0-1-0.2-1.5-0.6
						c-4.3-4-7.2-9.2-8.4-14.9c-0.2-0.9,0.2-1.8,1.1-2.2c4.6-2.4,11.2-1.9,14.1,0.9C44.4-24.9,42.9-19,37-12.4z M40.9-37.8
						c-1.7,1.7-4.5,2.5-7.5,2.5c-2.2,0-4.7-0.6-6.7-1.6c-0.8-0.4-1.2-1.3-1.1-2.2C26.8-44.8,29.7-50,34-54c0.4-0.3,1-0.7,1.5-0.6
						c0.6,0,1.1,0.2,1.5,0.7C42.9-47.3,44.4-41.4,40.9-37.8z M62.6-5.9c-2.8,0.9-5.8,1.3-8.7,1.3C51-4.5,48-5,45.1-5.9
						C44.2-6.2,43.6-7,43.6-8c0.6-7.4,4.9-13,10.2-13S63.4-15.4,64-8C64.1-7,63.5-6.2,62.6-5.9z M45.6-33.3c0-4.6,3.7-8.2,8.2-8.2
						s8.2,3.7,8.2,8.2s-3.7,8.2-8.2,8.2S45.6-28.7,45.6-33.3z M64-58.4c-0.6,7.4-4.9,13-10.2,13s-9.6-5.6-10.2-13
						c-0.1-0.9,0.6-1.8,1.5-2.1c5.7-1.8,11.9-1.8,17.6,0C63.5-60.3,64.1-59.4,64-58.4z M82-27.4c-1.2,5.7-4.1,10.9-8.4,14.9
						c-0.3,0.3-0.9,0.6-1.5,0.6H72c-0.6,0-1.1-0.2-1.5-0.7c-5.9-6.6-7.4-12.5-3.9-16c2.9-2.9,9.5-3.4,14.1-0.9
						C81.8-29.3,82.1-28.4,82-27.4z"/>
					<path d="M53.8-77.3c-24.3,0-44.1,19.8-44.1,44.1s19.8,44.1,44.1,44.1S97.9-9,97.9-33.3S78.1-77.3,53.8-77.3z M53.8-0.2
						c-18.2,0-33-14.8-33-33s14.8-33,33-33s33,14.8,33,33S72.1-0.2,53.8-0.2z"/>
				</g>
			</g>
		</g>
	</g>
</g>
</svg>
