<?xml version="1.0" encoding="utf-8"?>
<!-- Generator: Adobe Illustrator 23.1.1, SVG Export Plug-In . SVG Version: 6.00 Build 0)  -->
<svg version="1.1" xmlns="http://www.w3.org/2000/svg" xmlns:xlink="http://www.w3.org/1999/xlink" x="0px" y="0px"
	 viewBox="0 0 3300 2200" style="enable-background:new 0 0 3300 2200;" xml:space="preserve">
<style type="text/css">
	.st0{fill:#FFFFFF;}
	.st1{fill:none;stroke:#000000;stroke-width:0.5;}
	.st2{font-family:'Arial-BoldMT';}
	.st3{font-size:12px;}
	.st4{font-family:'ArialMT';}
	.st5{opacity:0.4;fill:#00AEEF;enable-background:new    ;}
	.st6{fill:#27AAE1;}
	.st7{fill:none;stroke:#27AAE1;stroke-width:0.577;}
</style>
<g id="Livello_1">
	<g id="Notes">
		<rect id="artboard" class="st0" width="3300" height="2200"/>
		<line class="st1" x1="263" y1="292" x2="3036" y2="292"/>
		<text transform="matrix(1 0 0 1 263 322)" class="st2 st3">Weight/Scale Variations</text>
		<text transform="matrix(1 0 0 1 536.0362 322)" class="st4 st3">Ultralight</text>
		<text transform="matrix(1 0 0 1 844.7501 322)" class="st4 st3">Thin</text>
		<text transform="matrix(1 0 0 1 1140.1193 322)" class="st4 st3">Light</text>
		<text transform="matrix(1 0 0 1 1428.8282 322)" class="st4 st3">Regular</text>
		<text transform="matrix(1 0 0 1 1725.2202 322)" class="st4 st3">Medium</text>
		<text transform="matrix(1 0 0 1 2018.2563 322)" class="st4 st3">Semibold</text>
		<text transform="matrix(1 0 0 1 2327.9712 322)" class="st4 st3">Bold</text>
		<text transform="matrix(1 0 0 1 2619.6831 322)" class="st4 st3">Heavy</text>
		<text transform="matrix(1 0 0 1 2918.728 322)" class="st4 st3">Black</text>
		<line class="st1" x1="263" y1="1903" x2="3036" y2="1903"/>
		<g transform="matrix(1 0 0 1 263 1933)">
			<path d="M9.2,0.8c4.3,0,7.9-3.6,7.9-7.9c0-4.3-3.6-7.9-7.9-7.9c-4.3,0-7.9,3.6-7.9,7.9C1.4-2.7,5,0.8,9.2,0.8z M9.2-0.7
				c-3.5,0-6.4-2.8-6.4-6.4c0-3.6,2.8-6.4,6.4-6.4c3.6,0,6.4,2.8,6.4,6.4C15.7-3.5,12.8-0.7,9.2-0.7z M9.2-3.4
				c0.5,0,0.7-0.3,0.7-0.8v-2.1h2.2C12.7-6.3,13-6.6,13-7c0-0.5-0.3-0.7-0.8-0.7H10V-10c0-0.5-0.3-0.8-0.7-0.8S8.5-10.5,8.5-10v2.2
				H6.3C5.8-7.8,5.4-7.5,5.4-7c0,0.5,0.4,0.7,0.8,0.7h2.2v2.1C8.5-3.8,8.8-3.4,9.2-3.4z"/>
		</g>
		<g transform="matrix(1 0 0 1 281.506 1933)">
			<path d="M11.7,2.9c5.4,0,10-4.5,10-10c0-5.4-4.5-10-10-10c-5.4,0-10,4.5-10,10C1.7-1.6,6.3,2.9,11.7,2.9z M11.7,1.2
				c-4.6,0-8.3-3.7-8.3-8.3c0-4.6,3.7-8.3,8.3-8.3c4.6,0,8.3,3.7,8.3,8.3C20-2.4,16.3,1.2,11.7,1.2z M11.7-2.4
				c0.5,0,0.8-0.4,0.8-0.9v-2.9h3.1c0.5,0,0.9-0.3,0.9-0.8c0-0.5-0.4-0.8-0.9-0.8h-3.1v-3.1c0-0.6-0.3-0.9-0.8-0.9
				c-0.5,0-0.8,0.4-0.8,0.9v3.1h-3C7.3-7.9,6.9-7.6,6.9-7c0,0.5,0.4,0.8,0.9,0.8h3v2.9C10.9-2.8,11.2-2.4,11.7-2.4z"/>
		</g>
		<g transform="matrix(1 0 0 1 304.924 1933)">
			<path d="M15,5.7c7,0,12.7-5.8,12.7-12.7c0-7-5.8-12.7-12.7-12.7C8-19.8,2.3-14,2.3-7C2.3-0.1,8,5.7,15,5.7z M15,3.9
				C8.9,3.9,4.1-1,4.1-7c0-6,4.8-10.9,10.9-10.9c6,0,10.9,4.9,10.9,10.9C25.9-1,21,3.9,15,3.9z M15-1.1c0.6,0,0.9-0.4,0.9-1v-4.1
				h4.2c0.6,0,1-0.3,1-0.9c0-0.6-0.4-0.9-1-0.9h-4.2v-4.2c0-0.6-0.4-1-0.9-1c-0.6,0-0.9,0.4-0.9,1v4.2H9.8c-0.6,0-1,0.3-1,0.9
				c0,0.6,0.4,0.9,1,0.9h4.2v4.1C14.1-1.5,14.4-1.1,15-1.1z"/>
		</g>
		<text transform="matrix(1 0 0 1 263 1953)" class="st2 st3">Design Variations</text>
		<text transform="matrix(1 0 0 1 263 1971)" class="st4 st3">Symbols are supported in up to nine weights and three scales.</text>
		<text transform="matrix(1 0 0 1 263 1989)" class="st4 st3">For optimal layout with text and other symbols, vertically align</text>
		<text transform="matrix(1 0 0 1 263 2007)" class="st4 st3">symbols with the adjacent text.</text>
		<rect x="776" y="1919" class="st5" width="3" height="14"/>
		<g transform="matrix(1 0 0 1 779 1933)">
			<path d="M10.5,0h1.8L7.2-14.1H5.4L0.2,0h1.8l1.4-4h5.6L10.5,0z M6.3-12L6.3-12l2.3,6.4H4L6.3-12z"/>
		</g>
		<rect x="791.6" y="1919" class="st5" width="3" height="14"/>
		<text transform="matrix(1 0 0 1 776 1953)" class="st2 st3">Margins</text>
		<text transform="matrix(1 0 0 1 776 1971)" class="st4 st3">Leading and trailing margins on the left and right side of each symbol</text>
		<text transform="matrix(1 0 0 1 776 1989)" class="st4 st3">can be adjusted by modifying the width of the blue rectangles.</text>
		<text transform="matrix(1 0 0 1 776 2007)" class="st4 st3">Modifications are automatically applied proportionally to all</text>
		<text transform="matrix(1 0 0 1 776 2025)" class="st4 st3">scales and weights.</text>
		<g transform="matrix(1 0 0 1 1289 1933)">
			<path d="M2.8,3.1l1.5,1.5c0.8,0.8,1.8,0.8,2.7-0.2L17.3-6.7c0.4,0.3,0.8,0.3,1.3,0.2l1-0.2L20.3-6l0,0.5C20.2-5,20.4-4.5,20.8-4
				l0.8,0.8c0.5,0.5,1.2,0.5,1.6,0.1l3.3-3.3c0.5-0.5,0.5-1.1,0-1.6l-0.8-0.8c-0.5-0.5-0.9-0.7-1.4-0.6l-0.5,0.1l-0.7-0.7l0.3-1.1
				c0.1-0.6,0-1-0.6-1.6l-2.4-2.4c-3.5-3.5-8.1-3.4-11.2-0.3c-0.4,0.4-0.5,1-0.2,1.4c0.2,0.4,0.7,0.6,1.4,0.4c1.5-0.4,3-0.3,4.5,0.7
				l-0.6,1.6c-0.2,0.6-0.2,1.1,0,1.5L3,0.4C2.1,1.3,2,2.3,2.8,3.1z M10.7-15.1c2.7-2,6-1.7,8.4,0.7l2.6,2.6c0.2,0.2,0.3,0.4,0.2,0.7
				l-0.4,1.6L23.1-8L24-8c0.3,0,0.4,0,0.6,0.2l0.6,0.6l-2.8,2.7l-0.6-0.6c-0.2-0.2-0.2-0.3-0.2-0.6l0.1-1l-1.6-1.6l-1.6,0.3
				c-0.3,0.1-0.4,0.1-0.7-0.2l-2.2-2.2c-0.2-0.2-0.3-0.4-0.1-0.7l0.9-2.3c-1.6-1.5-3.7-2.4-5.8-1.7c-0.1,0-0.2,0-0.2,0
				C10.6-15,10.6-15.1,10.7-15.1z M4.1,2.4c-0.5-0.5-0.3-0.8,0-1.1l11-10.1l1.2,1.2L6.2,3.3c-0.3,0.3-0.7,0.4-1.1,0L4.1,2.4z"/>
		</g>
		<text transform="matrix(1 0 0 1 1289 1953)" class="st2 st3">Exporting</text>
		<text transform="matrix(1 0 0 1 1289 1971)" class="st4 st3">Symbols should be outlined when exporting to ensure the</text>
		<text transform="matrix(1 0 0 1 1289 1989)" class="st4 st3">design is preserved when submitting to Xcode.</text>
		<text id="template-version" transform="matrix(1 0 0 1 2958.8496 1933)" class="st4 st3">Template v.1.0</text>
		<text transform="matrix(1 0 0 1 2767.1719 1951)" class="st4 st3">Generated from square.and.arrow.down.on.square</text>
		<text transform="matrix(1 0 0 1 2921.9238 1969)" class="st4 st3">Typeset at 100 points</text>
		<text transform="matrix(1 0 0 1 263 726)" class="st4 st3">Small</text>
		<text transform="matrix(1 0 0 1 263 1156)" class="st4 st3">Medium</text>
		<text transform="matrix(1 0 0 1 263 1586)" class="st4 st3">Large</text>
	</g>
	<g id="Guides">
		<g id="H-reference" transform="matrix(1 0 0 1 339 696)">
			<path class="st6" d="M54.9,0h2.7L30.6-70.5h-2.5L1,0h2.7l9.3-24.5h32.8L54.9,0z M29.2-67.1h0.2l15.4,40.4h-31L29.2-67.1z"/>
		</g>
		<line id="Baseline-S" class="st7" x1="263" y1="696" x2="3036" y2="696"/>
		<line id="Capline-S" class="st7" x1="263" y1="625.5" x2="3036" y2="625.5"/>
		<g transform="matrix(1 0 0 1 339 1126)">
			<path class="st6" d="M54.9,0h2.7L30.6-70.5h-2.5L1,0h2.7l9.3-24.5h32.8L54.9,0z M29.2-67.1h0.2l15.4,40.4h-31L29.2-67.1z"/>
		</g>
		<line id="Baseline-M" class="st7" x1="263" y1="1126" x2="3036" y2="1126"/>
		<line id="Capline-M" class="st7" x1="263" y1="1055.5" x2="3036" y2="1055.5"/>
		<g transform="matrix(1 0 0 1 339 1556)">
			<path class="st6" d="M54.9,0h2.7L30.6-70.5h-2.5L1,0h2.7l9.3-24.5h32.8L54.9,0z M29.2-67.1h0.2l15.4,40.4h-31L29.2-67.1z"/>
		</g>
		<line id="Baseline-L" class="st7" x1="263" y1="1556" x2="3036" y2="1556"/>
		<line id="Capline-L" class="st7" x1="263" y1="1485.5" x2="3036" y2="1485.5"/>
		<rect id="left-margin" x="1381.9" y="1030.8" class="st5" width="12.5" height="119.3"/>
		<rect id="right-margin" x="1505.4" y="1030.8" class="st5" width="12.5" height="119.3"/>
	</g>
	<g id="Black-L" transform="matrix(1 0 0 1 2839.21 1556)">
		<g>
			<g>
				<path d="M135.1-21.5C135.7-20.5,136.3-19.4,135.1-21.5C133.9-23.8,134.5-22.7,135.1-21.5c-4.1-7.1-11-11.6-18.4-14.5
					c-4.9-1.9-10-3.3-15.1-4.5v-33.4c4.3,0.8,8.6,2.1,12.1,4.7c1.6,1.2,3.1,2.7,4.2,4.4c0.6,0.9,1.1,1.8,1.4,2.8
					c0.4,1,0.6,2,0.9,2.9c1.2,3.2,4.4,5.5,7.8,5.6c3.5,0.2,6.9-1.9,8.4-5.1c0.7-1.6,1-3.3,0.7-5c-0.2-1.1-0.5-2.1-0.8-3.1
					c-0.4-1.1-0.8-2.2-1.2-3.2c-1.7-3.8-4.1-7.2-7-10.1c-6.2-6.1-14.5-9.6-23-11.2c-1.1-0.2-2.3-0.4-3.4-0.5v-0.7v-9
					c0-3.4-2-6.6-5.1-8c-3.1-1.4-6.9-0.9-9.5,1.4c-1.9,1.7-3,4.1-3,6.6v9v0.8c-8.6,1.2-17.3,4.6-23.8,10.5c-3,2.8-5.5,6.2-7.2,9.9
					c-1.8,4-2.7,8.4-2.6,12.8c0,4.3,0.8,8.7,2.7,12.6c1.8,3.7,4.6,6.8,7.8,9.4c6.7,5.2,15,7.9,23.1,10V8.5
					c-4.1-1.2-8.1-3.1-11.2-6.1c-1.5-1.5-2.8-3.1-3.9-5c-0.5-0.9-1-1.9-1.4-2.9c-0.4-1-0.6-2-0.9-3.1c-1.1-3.3-4.1-5.7-7.6-6
					c-3.5-0.3-7,1.6-8.6,4.7c-0.8,1.5-1.1,3.3-1,5c0.1,1,0.4,2,0.7,3c0.3,1.1,0.7,2.1,1.1,3.2c1.6,4,3.9,7.7,6.6,11
					c5.6,6.6,13.3,11,21.6,13.3c1.5,0.4,3,0.8,4.5,1v10.3c0,3.4,2,6.6,5.1,8c3.1,1.4,6.9,0.9,9.5-1.4c1.9-1.7,3-4.1,3-6.6v-9.4
					c8.9-0.7,17.8-3.3,24.9-8.8c6.7-5.2,11.2-12.9,12.2-21.4C139.4-9.2,138.3-15.9,135.1-21.5z M84-44.7c-2-0.6-3.9-1.3-5.6-1.9
					c-2-0.8-4-1.8-5.8-3c-1.6-1.1-3.1-2.4-3.9-4.3c-0.8-1.9-0.9-4.2-0.7-6.2c0.2-2,0.9-3.9,2.1-5.6c3.1-4.5,8.7-6.8,13.9-7.9V-44.7z
					 M119.6,0.3c-3.5,6.3-11.2,8.7-17.9,9.5v-32c4.1,1.1,8.3,2.3,12.1,4.3c1.7,0.9,3.4,2,4.8,3.5c1.2,1.4,2,3,2.4,4.8
					C121.6-6.4,121.3-2.7,119.6,0.3z"/>
				<g>
					<path d="M119.6,0.3C119.6,0.3,119.6,0.3,119.6,0.3L119.6,0.3C119.6,0.3,119.6,0.3,119.6,0.3z"/>
				</g>
				<g>
					<path d="M119.7,0c0,0.1-0.1,0.2-0.1,0.2l0,0C119.7,0.2,119.7,0.1,119.7,0z"/>
				</g>
				<g>
					<path d="M119.9-0.3C119.9-0.3,119.9-0.3,119.9-0.3L119.9-0.3z"/>
				</g>
				<g>
					<path d="M119.5,0.5c-0.1,0.1-0.1,0.2-0.1,0.2C119.4,0.7,119.4,0.6,119.5,0.5z"/>
				</g>
			</g>
		</g>
	</g>
	<g id="Heavy-L" transform="matrix(1 0 0 1 2544.26 1556)">
		<g>
			<g>
				<path d="M133.4-21.5C134-20.5,134.6-19.4,133.4-21.5C132.1-23.8,132.7-22.7,133.4-21.5c-4.1-7.1-11-11.6-18.4-14.5
					c-4.9-1.9-10-3.3-15.1-4.5v-33.4c4.3,0.8,8.6,2.1,12.1,4.7c1.6,1.2,3.1,2.7,4.2,4.4c0.6,0.9,1.1,1.8,1.4,2.8
					c0.4,1,0.6,2,0.9,2.9c1.2,3.2,4.4,5.5,7.8,5.6c3.5,0.2,6.9-1.9,8.4-5.1c0.7-1.6,1-3.3,0.7-5c-0.2-1.1-0.5-2.1-0.8-3.1
					c-0.4-1.1-0.8-2.2-1.2-3.2c-1.7-3.8-4.1-7.2-7-10.1c-6.2-6.1-14.5-9.6-23-11.2c-1.1-0.2-2.3-0.4-3.4-0.5v-0.7v-9
					c0-3.4-2-6.6-5.1-8c-3.1-1.4-6.9-0.9-9.5,1.4c-1.9,1.7-3,4.1-3,6.6v9v0.8c-8.6,1.2-17.3,4.6-23.8,10.5c-3,2.8-5.5,6.2-7.2,9.9
					c-1.8,4-2.7,8.4-2.6,12.8c0,4.3,0.8,8.7,2.7,12.6c1.8,3.7,4.6,6.8,7.8,9.4c6.7,5.2,15,7.9,23.1,10V8.5
					c-4.1-1.2-8.1-3.1-11.2-6.1c-1.5-1.5-2.8-3.1-3.9-5c-0.5-0.9-1-1.9-1.4-2.9c-0.4-1-0.6-2-0.9-3.1c-1.1-3.3-4.1-5.7-7.6-6
					c-3.5-0.3-7,1.6-8.6,4.7c-0.8,1.5-1.1,3.3-1,5c0.1,1,0.4,2,0.7,3c0.3,1.1,0.7,2.1,1.1,3.2c1.6,4,3.9,7.7,6.6,11
					c5.6,6.6,13.3,11,21.6,13.3c1.5,0.4,3,0.8,4.5,1v10.3c0,3.4,2,6.6,5.1,8c3.1,1.4,6.9,0.9,9.5-1.4c1.9-1.7,3-4.1,3-6.6v-9.4
					c8.9-0.7,17.8-3.3,24.9-8.8c6.7-5.2,11.2-12.9,12.2-21.4C137.6-9.2,136.6-15.9,133.4-21.5z M82.3-44.7c-2-0.6-3.9-1.3-5.6-1.9
					c-2-0.8-4-1.8-5.8-3c-1.6-1.1-3.1-2.4-3.9-4.3c-0.8-1.9-0.9-4.2-0.7-6.2c0.2-2,0.9-3.9,2.1-5.6c3.1-4.5,8.7-6.8,13.9-7.9V-44.7z
					 M117.8,0.3c-3.5,6.3-11.2,8.7-17.9,9.5v-32c4.1,1.1,8.3,2.3,12.1,4.3c1.7,0.9,3.4,2,4.8,3.5c1.2,1.4,2,3,2.4,4.8
					C119.9-6.4,119.5-2.7,117.8,0.3z"/>
				<g>
					<path d="M117.8,0.3C117.8,0.3,117.8,0.3,117.8,0.3L117.8,0.3C117.8,0.3,117.8,0.3,117.8,0.3z"/>
				</g>
				<g>
					<path d="M118,0c0,0.1-0.1,0.2-0.1,0.2l0,0C117.9,0.2,117.9,0.1,118,0z"/>
				</g>
				<g>
					<path d="M118.1-0.3C118.2-0.3,118.2-0.3,118.1-0.3L118.1-0.3z"/>
				</g>
				<g>
					<path d="M117.7,0.5c-0.1,0.1-0.1,0.2-0.1,0.2C117.6,0.7,117.7,0.6,117.7,0.5z"/>
				</g>
			</g>
		</g>
	</g>
	<g id="Bold-L" transform="matrix(1 0 0 1 2249.5 1556)">
		<g>
			<g>
				<path d="M131.4-21.5C132-20.5,132.6-19.4,131.4-21.5C130.1-23.8,130.7-22.7,131.4-21.5c-4.1-7.1-11-11.6-18.4-14.5
					c-4.9-1.9-10-3.3-15.1-4.5v-33.4c4.3,0.8,8.6,2.1,12.1,4.7c1.6,1.2,3.1,2.7,4.2,4.4c0.6,0.9,1.1,1.8,1.4,2.8
					c0.4,1,0.6,2,0.9,2.9c1.2,3.2,4.4,5.5,7.8,5.6c3.5,0.2,6.9-1.9,8.4-5.1c0.7-1.6,1-3.3,0.7-5c-0.2-1.1-0.5-2.1-0.8-3.1
					c-0.4-1.1-0.8-2.2-1.2-3.2c-1.7-3.8-4.1-7.2-7-10.1c-6.2-6.1-14.5-9.6-23-11.2c-1.1-0.2-2.3-0.4-3.4-0.5v-0.7v-9
					c0-3.4-2-6.6-5.1-8c-3.1-1.4-6.9-0.9-9.5,1.4c-1.9,1.7-3,4.1-3,6.6v9v0.8c-8.6,1.2-17.3,4.6-23.8,10.5c-3,2.8-5.5,6.2-7.2,9.9
					c-1.8,4-2.7,8.4-2.6,12.8c0,4.3,0.8,8.7,2.7,12.6c1.8,3.7,4.6,6.8,7.8,9.4c6.7,5.2,15,7.9,23.1,10V8.5
					c-4.1-1.2-8.1-3.1-11.2-6.1c-1.5-1.5-2.8-3.1-3.9-5c-0.5-0.9-1-1.9-1.4-2.9c-0.4-1-0.6-2-0.9-3.1c-1.1-3.3-4.1-5.7-7.6-6
					c-3.5-0.3-7,1.6-8.6,4.7c-0.8,1.5-1.1,3.3-1,5c0.1,1,0.4,2,0.7,3c0.3,1.1,0.7,2.1,1.1,3.2c1.6,4,3.9,7.7,6.6,11
					c5.6,6.6,13.3,11,21.6,13.3c1.5,0.4,3,0.8,4.5,1v10.3c0,3.4,2,6.6,5.1,8c3.1,1.4,6.9,0.9,9.5-1.4c1.9-1.7,3-4.1,3-6.6v-9.4
					c8.9-0.7,17.8-3.3,24.9-8.8C129.5,13.4,134,5.7,135-2.8C135.7-9.2,134.6-15.9,131.4-21.5z M80.3-44.7c-2-0.6-3.9-1.3-5.6-1.9
					c-2-0.8-4-1.8-5.8-3c-1.6-1.1-3.1-2.4-3.9-4.3c-0.8-1.9-0.9-4.2-0.7-6.2c0.2-2,0.9-3.9,2.1-5.6c3.1-4.5,8.7-6.8,13.9-7.9V-44.7z
					 M115.9,0.3C112.4,6.5,104.7,9,98,9.7v-32c4.1,1.1,8.3,2.3,12.1,4.3c1.7,0.9,3.4,2,4.8,3.5c1.2,1.4,2,3,2.4,4.8
					C117.9-6.4,117.6-2.7,115.9,0.3z"/>
				<g>
					<path d="M115.9,0.3C115.9,0.3,115.9,0.3,115.9,0.3L115.9,0.3C115.9,0.3,115.9,0.3,115.9,0.3z"/>
				</g>
				<g>
					<path d="M116,0c0,0.1-0.1,0.2-0.1,0.2l0,0C115.9,0.2,116,0.1,116,0z"/>
				</g>
				<g>
					<path d="M116.2-0.3C116.2-0.3,116.2-0.3,116.2-0.3L116.2-0.3z"/>
				</g>
				<g>
					<path d="M115.8,0.5c-0.1,0.1-0.1,0.2-0.1,0.2C115.7,0.7,115.7,0.6,115.8,0.5z"/>
				</g>
			</g>
		</g>
	</g>
	<g id="Semibold-L" transform="matrix(1 0 0 1 1954.16 1556)">
		<g>
			<g>
				<path d="M130-21.5C130.7-20.5,131.2-19.4,130-21.5C128.8-23.8,129.4-22.7,130-21.5c-4.1-7.1-11-11.6-18.4-14.5
					c-4.9-1.9-10-3.3-15.1-4.5v-33.4c4.3,0.8,8.6,2.1,12.1,4.7c1.6,1.2,3.1,2.7,4.2,4.4c0.6,0.9,1.1,1.8,1.4,2.8
					c0.4,1,0.6,2,0.9,2.9c1.2,3.2,4.4,5.5,7.8,5.6c3.5,0.2,6.9-1.9,8.4-5.1c0.7-1.6,1-3.3,0.7-5c-0.2-1.1-0.5-2.1-0.8-3.1
					c-0.4-1.1-0.8-2.2-1.2-3.2c-1.7-3.8-4.1-7.2-7-10.1c-6.2-6.1-14.5-9.6-23-11.2c-1.1-0.2-2.3-0.4-3.4-0.5v-0.7v-9
					c0-3.4-2-6.6-5.1-8c-3.1-1.4-6.9-0.9-9.5,1.4c-1.9,1.7-3,4.1-3,6.6v9v0.8c-8.6,1.2-17.3,4.6-23.8,10.5c-3,2.8-5.5,6.2-7.2,9.9
					c-1.8,4-2.7,8.4-2.6,12.8c0,4.3,0.8,8.7,2.7,12.6c1.8,3.7,4.6,6.8,7.8,9.4c6.7,5.2,15,7.9,23.1,10V8.5
					c-4.1-1.2-8.1-3.1-11.2-6.1c-1.5-1.5-2.8-3.1-3.9-5c-0.5-0.9-1-1.9-1.4-2.9c-0.4-1-0.6-2-0.9-3.1c-1.1-3.3-4.1-5.7-7.6-6
					c-3.5-0.3-7,1.6-8.6,4.7c-0.8,1.5-1.1,3.3-1,5c0.1,1,0.4,2,0.7,3c0.3,1.1,0.7,2.1,1.1,3.2c1.6,4,3.9,7.7,6.6,11
					c5.6,6.6,13.3,11,21.6,13.3c1.5,0.4,3,0.8,4.5,1v10.3c0,3.4,2,6.6,5.1,8c3.1,1.4,6.9,0.9,9.5-1.4c1.9-1.7,3-4.1,3-6.6v-9.4
					c8.9-0.7,17.8-3.3,24.9-8.8c6.7-5.2,11.2-12.9,12.2-21.4C134.3-9.2,133.2-15.9,130-21.5z M79-44.7c-2-0.6-3.9-1.3-5.6-1.9
					c-2-0.8-4-1.8-5.8-3c-1.6-1.1-3.1-2.4-3.9-4.3c-0.8-1.9-0.9-4.2-0.7-6.2c0.2-2,0.9-3.9,2.1-5.6c3.1-4.5,8.7-6.8,13.9-7.9V-44.7z
					 M114.5,0.3C111,6.5,103.3,9,96.6,9.7v-32c4.1,1.1,8.3,2.3,12.1,4.3c1.7,0.9,3.4,2,4.8,3.5c1.2,1.4,2,3,2.4,4.8
					C116.5-6.4,116.2-2.7,114.5,0.3z"/>
				<g>
					<path d="M114.5,0.3C114.5,0.3,114.5,0.3,114.5,0.3L114.5,0.3C114.5,0.3,114.5,0.3,114.5,0.3z"/>
				</g>
				<g>
					<path d="M114.7,0c0,0.1-0.1,0.2-0.1,0.2l0,0C114.6,0.2,114.6,0.1,114.7,0z"/>
				</g>
				<g>
					<path d="M114.8-0.3C114.8-0.3,114.8-0.3,114.8-0.3L114.8-0.3z"/>
				</g>
				<g>
					<path d="M114.4,0.5c-0.1,0.1-0.1,0.2-0.1,0.2C114.3,0.7,114.3,0.6,114.4,0.5z"/>
				</g>
			</g>
		</g>
	</g>
	<g id="Medium-L" transform="matrix(1 0 0 1 1658.47 1556)">
		<g>
			<g>
				<path d="M129-21.5C129.6-20.5,130.2-19.4,129-21.5C127.8-23.8,128.4-22.7,129-21.5c-4.1-7.1-11-11.6-18.4-14.5
					c-4.9-1.9-10-3.3-15.1-4.5v-33.4c4.3,0.8,8.6,2.1,12.1,4.7c1.6,1.2,3.1,2.7,4.2,4.4c0.6,0.9,1.1,1.8,1.4,2.8
					c0.4,1,0.6,2,0.9,2.9c1.2,3.2,4.4,5.5,7.8,5.6c3.5,0.2,6.9-1.9,8.4-5.1c0.7-1.6,1-3.3,0.7-5c-0.2-1.1-0.5-2.1-0.8-3.1
					c-0.4-1.1-0.8-2.2-1.2-3.2c-1.7-3.8-4.1-7.2-7-10.1c-6.2-6.1-14.5-9.6-23-11.2c-1.1-0.2-2.3-0.4-3.4-0.5v-0.7v-9
					c0-3.4-2-6.6-5.1-8c-3.1-1.4-6.9-0.9-9.5,1.4c-1.9,1.7-3,4.1-3,6.6v9v0.8c-8.6,1.2-17.3,4.6-23.8,10.5c-3,2.8-5.5,6.2-7.2,9.9
					c-1.8,4-2.7,8.4-2.6,12.8c0,4.3,0.8,8.7,2.7,12.6c1.8,3.7,4.6,6.8,7.8,9.4c6.7,5.2,15,7.9,23.1,10V8.5
					c-4.1-1.2-8.1-3.1-11.2-6.1c-1.5-1.5-2.8-3.1-3.9-5c-0.5-0.9-1-1.9-1.4-2.9c-0.4-1-0.6-2-0.9-3.1c-1.1-3.3-4.1-5.7-7.6-6
					c-3.5-0.3-7,1.6-8.6,4.7c-0.8,1.5-1.1,3.3-1,5c0.1,1,0.4,2,0.7,3c0.3,1.1,0.7,2.1,1.1,3.2c1.6,4,3.9,7.7,6.6,11
					c5.6,6.6,13.3,11,21.6,13.3c1.5,0.4,3,0.8,4.5,1v10.3c0,3.4,2,6.6,5.1,8c3.1,1.4,6.9,0.9,9.5-1.4c1.9-1.7,3-4.1,3-6.6v-9.4
					c8.9-0.7,17.8-3.3,24.9-8.8c6.7-5.2,11.2-12.9,12.2-21.4C133.3-9.2,132.2-15.9,129-21.5z M77.9-44.7c-2-0.6-3.9-1.3-5.6-1.9
					c-2-0.8-4-1.8-5.8-3c-1.6-1.1-3.1-2.4-3.9-4.3c-0.8-1.9-0.9-4.2-0.7-6.2c0.2-2,0.9-3.9,2.1-5.6c3.1-4.5,8.7-6.8,13.9-7.9V-44.7z
					 M113.5,0.3C110,6.5,102.3,9,95.6,9.7v-32c4.1,1.1,8.3,2.3,12.1,4.3c1.7,0.9,3.4,2,4.8,3.5c1.2,1.4,2,3,2.4,4.8
					C115.5-6.4,115.2-2.7,113.5,0.3z"/>
				<g>
					<path d="M113.5,0.3C113.5,0.3,113.5,0.3,113.5,0.3L113.5,0.3C113.5,0.3,113.5,0.3,113.5,0.3z"/>
				</g>
				<g>
					<path d="M113.6,0c0,0.1-0.1,0.2-0.1,0.2l0,0C113.6,0.2,113.6,0.1,113.6,0z"/>
				</g>
				<g>
					<path d="M113.8-0.3C113.8-0.3,113.8-0.3,113.8-0.3L113.8-0.3z"/>
				</g>
				<g>
					<path d="M113.4,0.5c-0.1,0.1-0.1,0.2-0.1,0.2C113.3,0.7,113.3,0.6,113.4,0.5z"/>
				</g>
			</g>
		</g>
	</g>
	<g id="Regular-L" transform="matrix(1 0 0 1 1363.1 1556)">
		<g>
			<g>
				<path d="M127.7-21.5C128.3-20.5,128.9-19.4,127.7-21.5C126.4-23.8,127-22.7,127.7-21.5c-4.1-7.1-11-11.6-18.4-14.5
					c-4.9-1.9-10-3.3-15.1-4.5v-33.4c4.3,0.8,8.6,2.1,12.1,4.7c1.6,1.2,3.1,2.7,4.2,4.4c0.6,0.9,1.1,1.8,1.4,2.8
					c0.4,1,0.6,2,0.9,2.9c1.2,3.2,4.4,5.5,7.8,5.6c3.5,0.2,6.9-1.9,8.4-5.1c0.7-1.6,1-3.3,0.7-5c-0.2-1.1-0.5-2.1-0.8-3.1
					c-0.4-1.1-0.8-2.2-1.2-3.2c-1.7-3.8-4.1-7.2-7-10.1c-6.2-6.1-14.5-9.6-23-11.2c-1.1-0.2-2.3-0.4-3.4-0.5v-0.7v-9
					c0-3.4-2-6.6-5.1-8c-3.1-1.4-6.9-0.9-9.5,1.4c-1.9,1.7-3,4.1-3,6.6v9v0.8c-8.6,1.2-17.3,4.6-23.8,10.5c-3,2.8-5.5,6.2-7.2,9.9
					c-1.8,4-2.7,8.4-2.6,12.8c0,4.3,0.8,8.7,2.7,12.6c1.8,3.7,4.6,6.8,7.8,9.4c6.7,5.2,15,7.9,23.1,10V8.5
					c-4.1-1.2-8.1-3.1-11.2-6.1c-1.5-1.5-2.8-3.1-3.9-5c-0.5-0.9-1-1.9-1.4-2.9c-0.4-1-0.6-2-0.9-3.1c-1.1-3.3-4.1-5.7-7.6-6
					c-3.5-0.3-7,1.6-8.6,4.7c-0.8,1.5-1.1,3.3-1,5c0.1,1,0.4,2,0.7,3c0.3,1.1,0.7,2.1,1.1,3.2c1.6,4,3.9,7.7,6.6,11
					c5.6,6.6,13.3,11,21.6,13.3c1.5,0.4,3,0.8,4.5,1v10.3c0,3.4,2,6.6,5.1,8c3.1,1.4,6.9,0.9,9.5-1.4c1.9-1.7,3-4.1,3-6.6v-9.4
					c8.9-0.7,17.8-3.3,24.9-8.8c6.7-5.2,11.2-12.9,12.2-21.4C131.9-9.2,130.9-15.9,127.7-21.5z M76.6-44.7c-2-0.6-3.9-1.3-5.6-1.9
					c-2-0.8-4-1.8-5.8-3c-1.6-1.1-3.1-2.4-3.9-4.3c-0.8-1.9-0.9-4.2-0.7-6.2c0.2-2,0.9-3.9,2.1-5.6c3.1-4.5,8.7-6.8,13.9-7.9V-44.7z
					 M112.2,0.3c-3.5,6.3-11.2,8.7-17.9,9.5v-32c4.1,1.1,8.3,2.3,12.1,4.3c1.7,0.9,3.4,2,4.8,3.5c1.2,1.4,2,3,2.4,4.8
					C114.2-6.4,113.8-2.7,112.2,0.3z"/>
				<g>
					<path d="M112.1,0.3C112.1,0.3,112.2,0.3,112.1,0.3L112.1,0.3C112.2,0.3,112.1,0.3,112.1,0.3z"/>
				</g>
				<g>
					<path d="M112.3,0c0,0.1-0.1,0.2-0.1,0.2l0,0C112.2,0.2,112.3,0.1,112.3,0z"/>
				</g>
				<g>
					<path d="M112.5-0.3C112.5-0.3,112.5-0.3,112.5-0.3L112.5-0.3z"/>
				</g>
				<g>
					<path d="M112,0.5c-0.1,0.1-0.1,0.2-0.1,0.2C111.9,0.7,112,0.6,112,0.5z"/>
				</g>
			</g>
		</g>
	</g>
	<g id="Light-L" transform="matrix(1 0 0 1 1067.68 1556)">
		<g>
			<g>
				<path d="M126.4-21.5C127-20.5,127.6-19.4,126.4-21.5C125.1-23.8,125.7-22.7,126.4-21.5c-4.1-7.1-11-11.6-18.4-14.5
					c-4.9-1.9-10-3.3-15.1-4.5v-33.4c4.3,0.8,8.6,2.1,12.1,4.7c1.6,1.2,3.1,2.7,4.2,4.4c0.6,0.9,1.1,1.8,1.4,2.8
					c0.4,1,0.6,2,0.9,2.9c1.2,3.2,4.4,5.5,7.8,5.6c3.5,0.2,6.9-1.9,8.4-5.1c0.7-1.6,1-3.3,0.7-5c-0.2-1.1-0.5-2.1-0.8-3.1
					c-0.4-1.1-0.8-2.2-1.2-3.2c-1.7-3.8-4.1-7.2-7-10.1c-6.2-6.1-14.5-9.6-23-11.2c-1.1-0.2-2.3-0.4-3.4-0.5v-0.7v-9
					c0-3.4-2-6.6-5.1-8c-3.1-1.4-6.9-0.9-9.5,1.4c-1.9,1.7-3,4.1-3,6.6v9v0.8c-8.6,1.2-17.3,4.6-23.8,10.5c-3,2.8-5.5,6.2-7.2,9.9
					c-1.8,4-2.7,8.4-2.6,12.8c0,4.3,0.8,8.7,2.7,12.6c1.8,3.7,4.6,6.8,7.8,9.4c6.7,5.2,15,7.9,23.1,10V8.5
					c-4.1-1.2-8.1-3.1-11.2-6.1c-1.5-1.5-2.8-3.1-3.9-5c-0.5-0.9-1-1.9-1.4-2.9c-0.4-1-0.6-2-0.9-3.1c-1.1-3.3-4.1-5.7-7.6-6
					c-3.5-0.3-7,1.6-8.6,4.7c-0.8,1.5-1.1,3.3-1,5c0.1,1,0.4,2,0.7,3c0.3,1.1,0.7,2.1,1.1,3.2c1.6,4,3.9,7.7,6.6,11
					c5.6,6.6,13.3,11,21.6,13.3c1.5,0.4,3,0.8,4.5,1v10.3c0,3.4,2,6.6,5.1,8c3.1,1.4,6.9,0.9,9.5-1.4c1.9-1.7,3-4.1,3-6.6v-9.4
					c8.9-0.7,17.8-3.3,24.9-8.8c6.7-5.2,11.2-12.9,12.2-21.4C130.6-9.2,129.6-15.9,126.4-21.5z M75.3-44.7c-2-0.6-3.9-1.3-5.6-1.9
					c-2-0.8-4-1.8-5.8-3c-1.6-1.1-3.1-2.4-3.9-4.3c-0.8-1.9-0.9-4.2-0.7-6.2c0.2-2,0.9-3.9,2.1-5.6c3.1-4.5,8.7-6.8,13.9-7.9V-44.7z
					 M110.9,0.3C107.3,6.5,99.6,9,92.9,9.7v-32c4.1,1.1,8.3,2.3,12.1,4.3c1.7,0.9,3.4,2,4.8,3.5c1.2,1.4,2,3,2.4,4.8
					C112.9-6.4,112.6-2.7,110.9,0.3z"/>
				<g>
					<path d="M110.8,0.3C110.8,0.3,110.9,0.3,110.8,0.3L110.8,0.3C110.9,0.3,110.8,0.3,110.8,0.3z"/>
				</g>
				<g>
					<path d="M111,0c0,0.1-0.1,0.2-0.1,0.2l0,0C110.9,0.2,111,0.1,111,0z"/>
				</g>
				<g>
					<path d="M111.2-0.3C111.2-0.3,111.2-0.3,111.2-0.3L111.2-0.3z"/>
				</g>
				<g>
					<path d="M110.7,0.5c-0.1,0.1-0.1,0.2-0.1,0.2C110.6,0.7,110.7,0.6,110.7,0.5z"/>
				</g>
			</g>
		</g>
	</g>
	<g id="Thin-L" transform="matrix(1 0 0 1 772.682 1556)">
		<g>
			<g>
				<path d="M124.7-21.5C125.3-20.5,125.9-19.4,124.7-21.5C123.4-23.8,124-22.7,124.7-21.5c-4.1-7.1-11-11.6-18.4-14.5
					c-4.9-1.9-10-3.3-15.1-4.5v-33.4c4.3,0.8,8.6,2.1,12.1,4.7c1.6,1.2,3.1,2.7,4.2,4.4c0.6,0.9,1.1,1.8,1.4,2.8
					c0.4,1,0.6,2,0.9,2.9c1.2,3.2,4.4,5.5,7.8,5.6c3.5,0.2,6.9-1.9,8.4-5.1c0.7-1.6,1-3.3,0.7-5c-0.2-1.1-0.5-2.1-0.8-3.1
					c-0.4-1.1-0.8-2.2-1.2-3.2c-1.7-3.8-4.1-7.2-7-10.1c-6.2-6.1-14.5-9.6-23-11.2c-1.1-0.2-2.3-0.4-3.4-0.5v-0.7v-9
					c0-3.4-2-6.6-5.1-8c-3.1-1.4-6.9-0.9-9.5,1.4c-1.9,1.7-3,4.1-3,6.6v9v0.8c-8.6,1.2-17.3,4.6-23.8,10.5c-3,2.8-5.5,6.2-7.2,9.9
					c-1.8,4-2.7,8.4-2.6,12.8c0,4.3,0.8,8.7,2.7,12.6c1.8,3.7,4.6,6.8,7.8,9.4c6.7,5.2,15,7.9,23.1,10V8.5
					c-4.1-1.2-8.1-3.1-11.2-6.1c-1.5-1.5-2.8-3.1-3.9-5c-0.5-0.9-1-1.9-1.4-2.9c-0.4-1-0.6-2-0.9-3.1c-1.1-3.3-4.1-5.7-7.6-6
					c-3.5-0.3-7,1.6-8.6,4.7c-0.8,1.5-1.1,3.3-1,5c0.1,1,0.4,2,0.7,3c0.3,1.1,0.7,2.1,1.1,3.2c1.6,4,3.9,7.7,6.6,11
					c5.6,6.6,13.3,11,21.6,13.3c1.5,0.4,3,0.8,4.5,1v10.3c0,3.4,2,6.6,5.1,8c3.1,1.4,6.9,0.9,9.5-1.4c1.9-1.7,3-4.1,3-6.6v-9.4
					c8.9-0.7,17.8-3.3,24.9-8.8c6.7-5.2,11.2-12.9,12.2-21.4C128.9-9.2,127.9-15.9,124.7-21.5z M73.6-44.7c-2-0.6-3.9-1.3-5.6-1.9
					c-2-0.8-4-1.8-5.8-3c-1.6-1.1-3.1-2.4-3.9-4.3c-0.8-1.9-0.9-4.2-0.7-6.2c0.2-2,0.9-3.9,2.1-5.6c3.1-4.5,8.7-6.8,13.9-7.9V-44.7z
					 M109.2,0.3C105.6,6.5,97.9,9,91.2,9.7v-32c4.1,1.1,8.3,2.3,12.1,4.3c1.7,0.9,3.4,2,4.8,3.5c1.2,1.4,2,3,2.4,4.8
					C111.2-6.4,110.8-2.7,109.2,0.3z"/>
				<g>
					<path d="M109.1,0.3C109.1,0.3,109.1,0.3,109.1,0.3L109.1,0.3C109.1,0.3,109.1,0.3,109.1,0.3z"/>
				</g>
				<g>
					<path d="M109.3,0c0,0.1-0.1,0.2-0.1,0.2l0,0C109.2,0.2,109.3,0.1,109.3,0z"/>
				</g>
				<g>
					<path d="M109.5-0.3C109.5-0.3,109.5-0.3,109.5-0.3L109.5-0.3z"/>
				</g>
				<g>
					<path d="M109,0.5c-0.1,0.1-0.1,0.2-0.1,0.2C108.9,0.7,109,0.6,109,0.5z"/>
				</g>
			</g>
		</g>
	</g>
	<g id="Ultralight-L" transform="matrix(1 0 0 1 476.85 1556)">
		<g>
			<g>
				<path d="M123.8-21.5C124.4-20.5,125-19.4,123.8-21.5C122.5-23.8,123.1-22.7,123.8-21.5c-4.1-7.1-11-11.6-18.4-14.5
					c-4.9-1.9-10-3.3-15.1-4.5v-33.4c4.3,0.8,8.6,2.1,12.1,4.7c1.6,1.2,3.1,2.7,4.2,4.4c0.6,0.9,1.1,1.8,1.4,2.8
					c0.4,1,0.6,2,0.9,2.9c1.2,3.2,4.4,5.5,7.8,5.6c3.5,0.2,6.9-1.9,8.4-5.1c0.7-1.6,1-3.3,0.7-5c-0.2-1.1-0.5-2.1-0.8-3.1
					c-0.4-1.1-0.8-2.2-1.2-3.2c-1.7-3.8-4.1-7.2-7-10.1c-6.2-6.1-14.5-9.6-23-11.2c-1.1-0.2-2.3-0.4-3.4-0.5v-0.7v-9
					c0-3.4-2-6.6-5.1-8c-3.1-1.4-6.9-0.9-9.5,1.4c-1.9,1.7-3,4.1-3,6.6v9v0.8c-8.6,1.2-17.3,4.6-23.8,10.5c-3,2.8-5.5,6.2-7.2,9.9
					c-1.8,4-2.7,8.4-2.6,12.8c0,4.3,0.8,8.7,2.7,12.6c1.8,3.7,4.6,6.8,7.8,9.4c6.7,5.2,15,7.9,23.1,10V8.5
					c-4.1-1.2-8.1-3.1-11.2-6.1c-1.5-1.5-2.8-3.1-3.9-5c-0.5-0.9-1-1.9-1.4-2.9c-0.4-1-0.6-2-0.9-3.1c-1.1-3.3-4.1-5.7-7.6-6
					c-3.5-0.3-7,1.6-8.6,4.7c-0.8,1.5-1.1,3.3-1,5c0.1,1,0.4,2,0.7,3c0.3,1.1,0.7,2.1,1.1,3.2c1.6,4,3.9,7.7,6.6,11
					c5.6,6.6,13.3,11,21.6,13.3c1.5,0.4,3,0.8,4.5,1v10.3c0,3.4,2,6.6,5.1,8c3.1,1.4,6.9,0.9,9.5-1.4c1.9-1.7,3-4.1,3-6.6v-9.4
					c8.9-0.7,17.8-3.3,24.9-8.8c6.7-5.2,11.2-12.9,12.2-21.4C128.1-9.2,127-15.9,123.8-21.5z M72.7-44.7c-2-0.6-3.9-1.3-5.6-1.9
					c-2-0.8-4-1.8-5.8-3c-1.6-1.1-3.1-2.4-3.9-4.3c-0.8-1.9-0.9-4.2-0.7-6.2c0.2-2,0.9-3.9,2.1-5.6c3.1-4.5,8.7-6.8,13.9-7.9V-44.7z
					 M108.3,0.3C104.8,6.5,97.1,9,90.3,9.7v-32c4.1,1.1,8.3,2.3,12.1,4.3c1.7,0.9,3.4,2,4.8,3.5c1.2,1.4,2,3,2.4,4.8
					C110.3-6.4,110-2.7,108.3,0.3z"/>
				<g>
					<path d="M108.2,0.3C108.3,0.3,108.3,0.3,108.2,0.3L108.2,0.3C108.3,0.3,108.3,0.3,108.2,0.3z"/>
				</g>
				<g>
					<path d="M108.4,0c0,0.1-0.1,0.2-0.1,0.2l0,0C108.3,0.2,108.4,0.1,108.4,0z"/>
				</g>
				<g>
					<path d="M108.6-0.3C108.6-0.3,108.6-0.3,108.6-0.3L108.6-0.3z"/>
				</g>
				<g>
					<path d="M108.2,0.5c-0.1,0.1-0.1,0.2-0.1,0.2C108.1,0.7,108.1,0.6,108.2,0.5z"/>
				</g>
			</g>
		</g>
	</g>
	<g id="Black-M" transform="matrix(1 0 0 1 2858.74 1126)">
		<g>
			<g>
				<path d="M106-27.3C106.5-26.5,106.9-25.7,106-27.3C105-29,105.5-28.2,106-27.3c-3.1-5.4-8.5-8.9-14.1-11.1
					c-3.7-1.5-7.6-2.5-11.5-3.4v-25.6c3.3,0.6,6.6,1.6,9.3,3.6c1.2,0.9,2.3,2,3.2,3.3c0.4,0.7,0.8,1.4,1.1,2.1
					c0.3,0.7,0.4,1.5,0.7,2.3c1,2.5,3.4,4.2,6,4.3c2.7,0.1,5.3-1.4,6.4-3.9c0.6-1.2,0.8-2.5,0.6-3.8c-0.1-0.8-0.4-1.6-0.6-2.4
					c-0.3-0.8-0.6-1.7-1-2.5c-1.3-2.9-3.1-5.5-5.4-7.8c-4.8-4.7-11.1-7.4-17.6-8.6c-0.9-0.2-1.8-0.3-2.6-0.4v-0.5v-6.9
					c0-2.6-1.6-5-3.9-6.1c-2.4-1.1-5.3-0.7-7.3,1.1c-1.4,1.3-2.3,3.1-2.3,5.1v6.9v0.6c-6.6,0.9-13.2,3.5-18.2,8.1
					c-2.3,2.1-4.2,4.7-5.5,7.6c-1.4,3.1-2,6.4-2,9.8c0,3.3,0.6,6.7,2.1,9.7c1.4,2.8,3.5,5.2,6,7.2c5.1,4,11.5,6,17.7,7.7v26.7
					c-3.2-0.9-6.2-2.4-8.6-4.7c-1.2-1.1-2.2-2.4-3-3.8c-0.4-0.7-0.8-1.5-1-2.2c-0.3-0.8-0.5-1.6-0.7-2.3c-0.8-2.5-3.2-4.4-5.8-4.6
					c-2.7-0.2-5.3,1.2-6.6,3.6c-0.6,1.2-0.9,2.5-0.7,3.8c0.1,0.8,0.3,1.5,0.5,2.3c0.2,0.8,0.5,1.6,0.8,2.4c1.2,3.1,3,5.9,5.1,8.4
					c4.3,5,10.2,8.4,16.5,10.2c1.1,0.3,2.3,0.6,3.5,0.8v7.9c0,2.6,1.6,5,3.9,6.1c2.4,1.1,5.3,0.7,7.3-1.1c1.4-1.3,2.3-3.1,2.3-5.1
					v-7.2C87.2,9.6,94,7.7,99.4,3.5c5.2-4,8.6-9.9,9.3-16.4C109.3-17.8,108.5-23,106-27.3z M66.9-45.1c-1.6-0.5-3-1-4.3-1.5
					c-1.5-0.6-3-1.3-4.4-2.3c-1.2-0.8-2.4-1.9-3-3.3c-0.6-1.5-0.7-3.2-0.5-4.8c0.2-1.6,0.7-3,1.6-4.3c2.4-3.4,6.7-5.2,10.6-6.1
					V-45.1z M94.1-10.6c-2.7,4.8-8.6,6.7-13.7,7.2v-24.6c3.2,0.8,6.4,1.8,9.3,3.3c1.3,0.7,2.6,1.5,3.7,2.7c1,1,1.5,2.3,1.8,3.7
					C95.7-15.7,95.4-12.9,94.1-10.6z"/>
				<g>
					<path d="M94.1-10.6C94.1-10.6,94.1-10.6,94.1-10.6L94.1-10.6C94.1-10.6,94.1-10.6,94.1-10.6z"/>
				</g>
				<g>
					<path d="M94.2-10.8c0,0.1-0.1,0.1-0.1,0.2l0,0C94.2-10.7,94.2-10.7,94.2-10.8z"/>
				</g>
				<g>
					<path d="M94.4-11C94.4-11,94.4-11,94.4-11L94.4-11z"/>
				</g>
				<g>
					<path d="M94-10.4c0,0.1-0.1,0.1-0.1,0.2C94-10.3,94-10.3,94-10.4z"/>
				</g>
			</g>
		</g>
	</g>
	<g id="Heavy-M" transform="matrix(1 0 0 1 2563.59 1126)">
		<g>
			<g>
				<path d="M104.5-27.3C104.9-26.5,105.4-25.7,104.5-27.3C103.5-29,103.9-28.2,104.5-27.3c-3.1-5.4-8.5-8.9-14.1-11.1
					c-3.7-1.5-7.6-2.5-11.5-3.4v-25.6c3.3,0.6,6.6,1.6,9.3,3.6c1.2,0.9,2.3,2,3.2,3.3c0.4,0.7,0.8,1.4,1.1,2.1
					c0.3,0.7,0.4,1.5,0.7,2.3c1,2.5,3.4,4.2,6,4.3c2.7,0.1,5.3-1.4,6.4-3.9c0.6-1.2,0.8-2.5,0.6-3.8c-0.1-0.8-0.4-1.6-0.6-2.4
					c-0.3-0.8-0.6-1.7-1-2.5c-1.3-2.9-3.1-5.5-5.4-7.8c-4.8-4.7-11.1-7.4-17.6-8.6c-0.9-0.2-1.8-0.3-2.6-0.4v-0.5v-6.9
					c0-2.6-1.6-5-3.9-6.1c-2.4-1.1-5.3-0.7-7.3,1.1c-1.4,1.3-2.3,3.1-2.3,5.1v6.9v0.6c-6.6,0.9-13.2,3.5-18.2,8.1
					c-2.3,2.1-4.2,4.7-5.5,7.6c-1.4,3.1-2,6.4-2,9.8c0,3.3,0.6,6.7,2.1,9.7c1.4,2.8,3.5,5.2,6,7.2c5.1,4,11.5,6,17.7,7.7v26.7
					c-3.2-0.9-6.2-2.4-8.6-4.7c-1.2-1.1-2.2-2.4-3-3.8c-0.4-0.7-0.8-1.5-1-2.2c-0.3-0.8-0.5-1.6-0.7-2.3c-0.8-2.5-3.2-4.4-5.8-4.6
					c-2.7-0.2-5.3,1.2-6.6,3.6c-0.6,1.2-0.9,2.5-0.7,3.8c0.1,0.8,0.3,1.5,0.5,2.3c0.2,0.8,0.5,1.6,0.8,2.4c1.2,3.1,3,5.9,5.1,8.4
					c4.3,5,10.2,8.4,16.5,10.2C63,9,64.2,9.3,65.3,9.5v7.9c0,2.6,1.6,5,3.9,6.1c2.4,1.1,5.3,0.7,7.3-1.1c1.4-1.3,2.3-3.1,2.3-5.1
					v-7.2c6.8-0.5,13.6-2.5,19.1-6.7c5.2-4,8.6-9.9,9.3-16.4C107.7-17.8,106.9-23,104.5-27.3z M65.3-45.1c-1.6-0.5-3-1-4.3-1.5
					c-1.5-0.6-3-1.3-4.4-2.3c-1.2-0.8-2.4-1.9-3-3.3c-0.6-1.5-0.7-3.2-0.5-4.8c0.2-1.6,0.7-3,1.6-4.3c2.4-3.4,6.7-5.2,10.6-6.1
					V-45.1z M92.6-10.6C89.9-5.8,84-3.9,78.8-3.3v-24.6c3.2,0.8,6.4,1.8,9.3,3.3c1.3,0.7,2.6,1.5,3.7,2.7c1,1,1.5,2.3,1.8,3.7
					C94.1-15.7,93.9-12.9,92.6-10.6z"/>
				<g>
					<path d="M92.5-10.6C92.6-10.6,92.6-10.6,92.5-10.6L92.5-10.6C92.6-10.6,92.6-10.6,92.5-10.6z"/>
				</g>
				<g>
					<path d="M92.7-10.8c0,0.1-0.1,0.1-0.1,0.2l0,0C92.6-10.7,92.6-10.7,92.7-10.8z"/>
				</g>
				<g>
					<path d="M92.8-11C92.8-11,92.8-11,92.8-11L92.8-11z"/>
				</g>
				<g>
					<path d="M92.5-10.4c0,0.1-0.1,0.1-0.1,0.2C92.4-10.3,92.4-10.3,92.5-10.4z"/>
				</g>
			</g>
		</g>
	</g>
	<g id="Bold-M" transform="matrix(1 0 0 1 2268.66 1126)">
		<g>
			<g>
				<path d="M102.7-27.3C103.2-26.5,103.6-25.7,102.7-27.3C101.7-29,102.2-28.2,102.7-27.3c-3.1-5.4-8.5-8.9-14.1-11.1
					c-3.7-1.5-7.6-2.5-11.5-3.4v-25.6c3.3,0.6,6.6,1.6,9.3,3.6c1.2,0.9,2.3,2,3.2,3.3c0.4,0.7,0.8,1.4,1.1,2.1
					c0.3,0.7,0.4,1.5,0.7,2.3c1,2.5,3.4,4.2,6,4.3c2.7,0.1,5.3-1.4,6.4-3.9c0.6-1.2,0.8-2.5,0.6-3.8c-0.1-0.8-0.4-1.6-0.6-2.4
					c-0.3-0.8-0.6-1.7-1-2.5c-1.3-2.9-3.1-5.5-5.4-7.8c-4.8-4.7-11.1-7.4-17.6-8.6c-0.9-0.2-1.8-0.3-2.6-0.4v-0.5v-6.9
					c0-2.6-1.6-5-3.9-6.1c-2.4-1.1-5.3-0.7-7.3,1.1c-1.4,1.3-2.3,3.1-2.3,5.1v6.9v0.6c-6.6,0.9-13.2,3.5-18.2,8.1
					c-2.3,2.1-4.2,4.7-5.5,7.6c-1.4,3.1-2,6.4-2,9.8c0,3.3,0.6,6.7,2.1,9.7c1.4,2.8,3.5,5.2,6,7.2c5.1,4,11.5,6,17.7,7.7v26.7
					c-3.2-0.9-6.2-2.4-8.6-4.7c-1.2-1.1-2.2-2.4-3-3.8c-0.4-0.7-0.8-1.5-1-2.2c-0.3-0.8-0.5-1.6-0.7-2.3c-0.8-2.5-3.2-4.4-5.8-4.6
					c-2.7-0.2-5.3,1.2-6.6,3.6c-0.6,1.2-0.9,2.5-0.7,3.8c0.1,0.8,0.3,1.5,0.5,2.3c0.2,0.8,0.5,1.6,0.8,2.4c1.2,3.1,3,5.9,5.1,8.4
					c4.3,5,10.2,8.4,16.5,10.2c1.1,0.3,2.3,0.6,3.5,0.8v7.9c0,2.6,1.6,5,3.9,6.1c2.4,1.1,5.3,0.7,7.3-1.1c1.4-1.3,2.3-3.1,2.3-5.1
					v-7.2c6.8-0.5,13.6-2.5,19.1-6.7c5.2-4,8.6-9.9,9.3-16.4C105.9-17.8,105.1-23,102.7-27.3z M63.5-45.1c-1.6-0.5-3-1-4.3-1.5
					c-1.5-0.6-3-1.3-4.4-2.3c-1.2-0.8-2.4-1.9-3-3.3c-0.6-1.5-0.7-3.2-0.5-4.8c0.2-1.6,0.7-3,1.6-4.3c2.4-3.4,6.7-5.2,10.6-6.1
					V-45.1z M90.8-10.6C88.1-5.8,82.2-3.9,77-3.3v-24.6c3.2,0.8,6.4,1.8,9.3,3.3c1.3,0.7,2.6,1.5,3.7,2.7c1,1,1.5,2.3,1.8,3.7
					C92.3-15.7,92.1-12.9,90.8-10.6z"/>
				<g>
					<path d="M90.8-10.6C90.8-10.6,90.8-10.6,90.8-10.6L90.8-10.6C90.8-10.6,90.8-10.6,90.8-10.6z"/>
				</g>
				<g>
					<path d="M90.9-10.8c0,0.1-0.1,0.1-0.1,0.2l0,0C90.8-10.7,90.9-10.7,90.9-10.8z"/>
				</g>
				<g>
					<path d="M91-11C91-11,91-11,91-11L91-11z"/>
				</g>
				<g>
					<path d="M90.7-10.4c0,0.1-0.1,0.1-0.1,0.2C90.6-10.3,90.6-10.3,90.7-10.4z"/>
				</g>
			</g>
		</g>
	</g>
	<g id="Semibold-M" transform="matrix(1 0 0 1 1973.17 1126)">
		<g>
			<g>
				<path d="M101.5-27.3C101.9-26.5,102.4-25.7,101.5-27.3C100.5-29,100.9-28.2,101.5-27.3c-3.1-5.4-8.5-8.9-14.1-11.1
					c-3.7-1.5-7.6-2.5-11.5-3.4v-25.6c3.3,0.6,6.6,1.6,9.3,3.6c1.2,0.9,2.3,2,3.2,3.3c0.4,0.7,0.8,1.4,1.1,2.1
					c0.3,0.7,0.4,1.5,0.7,2.3c1,2.5,3.4,4.2,6,4.3c2.7,0.1,5.3-1.4,6.4-3.9c0.6-1.2,0.8-2.5,0.6-3.8c-0.1-0.8-0.4-1.6-0.6-2.4
					c-0.3-0.8-0.6-1.7-1-2.5c-1.3-2.9-3.1-5.5-5.4-7.8c-4.8-4.7-11.1-7.4-17.6-8.6c-0.9-0.2-1.8-0.3-2.6-0.4v-0.5v-6.9
					c0-2.6-1.6-5-3.9-6.1c-2.4-1.1-5.3-0.7-7.3,1.1c-1.4,1.3-2.3,3.1-2.3,5.1v6.9v0.6c-6.6,0.9-13.2,3.5-18.2,8.1
					c-2.3,2.1-4.2,4.7-5.5,7.6c-1.4,3.1-2,6.4-2,9.8c0,3.3,0.6,6.7,2.1,9.7c1.4,2.8,3.5,5.2,6,7.2c5.1,4,11.5,6,17.7,7.7v26.7
					c-3.2-0.9-6.2-2.4-8.6-4.7c-1.2-1.1-2.2-2.4-3-3.8c-0.4-0.7-0.8-1.5-1-2.2c-0.3-0.8-0.5-1.6-0.7-2.3c-0.8-2.5-3.2-4.4-5.8-4.6
					c-2.7-0.2-5.3,1.2-6.6,3.6c-0.6,1.2-0.9,2.5-0.7,3.8c0.1,0.8,0.3,1.5,0.5,2.3c0.2,0.8,0.5,1.6,0.8,2.4c1.2,3.1,3,5.9,5.1,8.4
					c4.3,5,10.2,8.4,16.5,10.2C60,9,61.2,9.3,62.3,9.5v7.9c0,2.6,1.6,5,3.9,6.1c2.4,1.1,5.3,0.7,7.3-1.1c1.4-1.3,2.3-3.1,2.3-5.1
					v-7.2c6.8-0.5,13.6-2.5,19.1-6.7c5.2-4,8.6-9.9,9.3-16.4C104.7-17.8,103.9-23,101.5-27.3z M62.3-45.1c-1.6-0.5-3-1-4.3-1.5
					c-1.5-0.6-3-1.3-4.4-2.3c-1.2-0.8-2.4-1.9-3-3.3c-0.6-1.5-0.7-3.2-0.5-4.8c0.2-1.6,0.7-3,1.6-4.3c2.4-3.4,6.7-5.2,10.6-6.1
					V-45.1z M89.6-10.6C86.9-5.8,81-3.9,75.8-3.3v-24.6c3.2,0.8,6.4,1.8,9.3,3.3c1.3,0.7,2.6,1.5,3.7,2.7c1,1,1.5,2.3,1.8,3.7
					C91.1-15.7,90.9-12.9,89.6-10.6z"/>
				<g>
					<path d="M89.5-10.6C89.6-10.6,89.6-10.6,89.5-10.6L89.5-10.6C89.6-10.6,89.6-10.6,89.5-10.6z"/>
				</g>
				<g>
					<path d="M89.7-10.8c0,0.1-0.1,0.1-0.1,0.2l0,0C89.6-10.7,89.6-10.7,89.7-10.8z"/>
				</g>
				<g>
					<path d="M89.8-11C89.8-11,89.8-11,89.8-11L89.8-11z"/>
				</g>
				<g>
					<path d="M89.5-10.4c0,0.1-0.1,0.1-0.1,0.2C89.4-10.3,89.4-10.3,89.5-10.4z"/>
				</g>
			</g>
		</g>
	</g>
	<g id="Medium-M" transform="matrix(1 0 0 1 1677.39 1126)">
		<g>
			<g>
				<path d="M100.5-27.3C101-26.5,101.5-25.7,100.5-27.3C99.6-29,100-28.2,100.5-27.3c-3.1-5.4-8.5-8.9-14.1-11.1
					c-3.7-1.5-7.6-2.5-11.5-3.4v-25.6c3.3,0.6,6.6,1.6,9.3,3.6c1.2,0.9,2.3,2,3.2,3.3c0.4,0.7,0.8,1.4,1.1,2.1
					c0.3,0.7,0.4,1.5,0.7,2.3c1,2.5,3.4,4.2,6,4.3c2.7,0.1,5.3-1.4,6.4-3.9c0.6-1.2,0.8-2.5,0.6-3.8c-0.1-0.8-0.4-1.6-0.6-2.4
					c-0.3-0.8-0.6-1.7-1-2.5c-1.3-2.9-3.1-5.5-5.4-7.8c-4.8-4.7-11.1-7.4-17.6-8.6c-0.9-0.2-1.8-0.3-2.6-0.4v-0.5v-6.9
					c0-2.6-1.6-5-3.9-6.1c-2.4-1.1-5.3-0.7-7.3,1.1c-1.4,1.3-2.3,3.1-2.3,5.1v6.9v0.6c-6.6,0.9-13.2,3.5-18.2,8.1
					c-2.3,2.1-4.2,4.7-5.5,7.6c-1.4,3.1-2,6.4-2,9.8c0,3.3,0.6,6.7,2.1,9.7c1.4,2.8,3.5,5.2,6,7.2c5.1,4,11.5,6,17.7,7.7v26.7
					c-3.2-0.9-6.2-2.4-8.6-4.7c-1.2-1.1-2.2-2.4-3-3.8c-0.4-0.7-0.8-1.5-1-2.2c-0.3-0.8-0.5-1.6-0.7-2.3c-0.8-2.5-3.2-4.4-5.8-4.6
					c-2.7-0.2-5.3,1.2-6.6,3.6c-0.6,1.2-0.9,2.5-0.7,3.8c0.1,0.8,0.3,1.5,0.5,2.3c0.2,0.8,0.5,1.6,0.8,2.4c1.2,3.1,3,5.9,5.1,8.4
					c4.3,5,10.2,8.4,16.5,10.2c1.1,0.3,2.3,0.6,3.5,0.8v7.9c0,2.6,1.6,5,3.9,6.1c2.4,1.1,5.3,0.7,7.3-1.1c1.4-1.3,2.3-3.1,2.3-5.1
					v-7.2c6.8-0.5,13.6-2.5,19.1-6.7c5.2-4,8.6-9.9,9.3-16.4C103.8-17.8,103-23,100.5-27.3z M61.4-45.1c-1.6-0.5-3-1-4.3-1.5
					c-1.5-0.6-3-1.3-4.4-2.3c-1.2-0.8-2.4-1.9-3-3.3c-0.6-1.5-0.7-3.2-0.5-4.8c0.2-1.6,0.7-3,1.6-4.3c2.4-3.4,6.7-5.2,10.6-6.1
					V-45.1z M88.6-10.6C85.9-5.8,80-3.9,74.9-3.3v-24.6c3.2,0.8,6.4,1.8,9.3,3.3c1.3,0.7,2.6,1.5,3.7,2.7c1,1,1.5,2.3,1.8,3.7
					C90.2-15.7,89.9-12.9,88.6-10.6z"/>
				<g>
					<path d="M88.6-10.6C88.6-10.6,88.6-10.6,88.6-10.6L88.6-10.6C88.6-10.6,88.6-10.6,88.6-10.6z"/>
				</g>
				<g>
					<path d="M88.7-10.8c0,0.1-0.1,0.1-0.1,0.2l0,0C88.7-10.7,88.7-10.7,88.7-10.8z"/>
				</g>
				<g>
					<path d="M88.9-11C88.9-11,88.9-11,88.9-11L88.9-11z"/>
				</g>
				<g>
					<path d="M88.5-10.4c0,0.1-0.1,0.1-0.1,0.2C88.5-10.3,88.5-10.3,88.5-10.4z"/>
				</g>
			</g>
		</g>
	</g>
	<g id="Regular-M" transform="matrix(1 0 0 1 1381.88 1126)">
		<g>
			<g>
				<path d="M99.3-27.3C99.8-26.5,100.3-25.7,99.3-27.3C98.4-29,98.8-28.2,99.3-27.3c-3.1-5.4-8.5-8.9-14.1-11.1
					c-3.7-1.5-7.6-2.5-11.5-3.4v-25.6c3.3,0.6,6.6,1.6,9.3,3.6c1.2,0.9,2.3,2,3.2,3.3c0.4,0.7,0.8,1.4,1.1,2.1
					c0.3,0.7,0.4,1.5,0.7,2.3c1,2.5,3.4,4.2,6,4.3c2.7,0.1,5.3-1.4,6.4-3.9c0.6-1.2,0.8-2.5,0.6-3.8c-0.1-0.8-0.4-1.6-0.6-2.4
					c-0.3-0.8-0.6-1.7-1-2.5c-1.3-2.9-3.1-5.5-5.4-7.8c-4.8-4.7-11.1-7.4-17.6-8.6c-0.9-0.2-1.8-0.3-2.6-0.4v-0.5v-6.9
					c0-2.6-1.6-5-3.9-6.1c-2.4-1.1-5.3-0.7-7.3,1.1c-1.4,1.3-2.3,3.1-2.3,5.1v6.9v0.6C53.6-80.1,47-77.5,42-72.9
					c-2.3,2.1-4.2,4.7-5.5,7.6c-1.4,3.1-2,6.4-2,9.8c0,3.3,0.6,6.7,2.1,9.7c1.4,2.8,3.5,5.2,6,7.2c5.1,4,11.5,6,17.7,7.7v26.7
					C57-5.2,54-6.7,51.6-9c-1.2-1.1-2.2-2.4-3-3.8c-0.4-0.7-0.8-1.5-1-2.2c-0.3-0.8-0.5-1.6-0.7-2.3c-0.8-2.5-3.2-4.4-5.8-4.6
					c-2.7-0.2-5.3,1.2-6.6,3.6c-0.6,1.2-0.9,2.5-0.7,3.8c0.1,0.8,0.3,1.5,0.5,2.3c0.2,0.8,0.5,1.6,0.8,2.4c1.2,3.1,3,5.9,5.1,8.4
					c4.3,5,10.2,8.4,16.5,10.2C57.9,9,59,9.3,60.2,9.5v7.9c0,2.6,1.6,5,3.9,6.1c2.4,1.1,5.3,0.7,7.3-1.1c1.4-1.3,2.3-3.1,2.3-5.1
					v-7.2c6.8-0.5,13.6-2.5,19.1-6.7c5.2-4,8.6-9.9,9.3-16.4C102.6-17.8,101.8-23,99.3-27.3z M60.2-45.1c-1.6-0.5-3-1-4.3-1.5
					c-1.5-0.6-3-1.3-4.4-2.3c-1.2-0.8-2.4-1.9-3-3.3c-0.6-1.5-0.7-3.2-0.5-4.8c0.2-1.6,0.7-3,1.6-4.3c2.4-3.4,6.7-5.2,10.6-6.1
					V-45.1z M87.4-10.6c-2.7,4.8-8.6,6.7-13.7,7.2v-24.6c3.2,0.8,6.4,1.8,9.3,3.3c1.3,0.7,2.6,1.5,3.7,2.7c1,1,1.5,2.3,1.8,3.7
					C89-15.7,88.7-12.9,87.4-10.6z"/>
				<g>
					<path d="M87.4-10.6C87.4-10.6,87.4-10.6,87.4-10.6L87.4-10.6C87.4-10.6,87.4-10.6,87.4-10.6z"/>
				</g>
				<g>
					<path d="M87.5-10.8c0,0.1-0.1,0.1-0.1,0.2l0,0C87.5-10.7,87.5-10.7,87.5-10.8z"/>
				</g>
				<g>
					<path d="M87.7-11C87.7-11,87.7-11,87.7-11L87.7-11z"/>
				</g>
				<g>
					<path d="M87.3-10.4c0,0.1-0.1,0.1-0.1,0.2C87.3-10.3,87.3-10.3,87.3-10.4z"/>
				</g>
			</g>
		</g>
	</g>
	<g id="Light-M" transform="matrix(1 0 0 1 1086.31 1126)">
		<g>
			<g>
				<path d="M98.2-27.3C98.7-26.5,99.1-25.7,98.2-27.3C97.2-29,97.7-28.2,98.2-27.3c-3.1-5.4-8.5-8.9-14.1-11.1
					c-3.7-1.5-7.6-2.5-11.5-3.4v-25.6c3.3,0.6,6.6,1.6,9.3,3.6c1.2,0.9,2.3,2,3.2,3.3c0.4,0.7,0.8,1.4,1.1,2.1
					c0.3,0.7,0.4,1.5,0.7,2.3c1,2.5,3.4,4.2,6,4.3c2.7,0.1,5.3-1.4,6.4-3.9c0.6-1.2,0.8-2.5,0.6-3.8c-0.1-0.8-0.4-1.6-0.6-2.4
					c-0.3-0.8-0.6-1.7-1-2.5c-1.3-2.9-3.1-5.5-5.4-7.8c-4.8-4.7-11.1-7.4-17.6-8.6c-0.9-0.2-1.8-0.3-2.6-0.4v-0.5v-6.9
					c0-2.6-1.6-5-3.9-6.1c-2.4-1.1-5.3-0.7-7.3,1.1c-1.4,1.3-2.3,3.1-2.3,5.1v6.9v0.6c-6.6,0.9-13.2,3.5-18.2,8.1
					c-2.3,2.1-4.2,4.7-5.5,7.6c-1.4,3.1-2,6.4-2,9.8c0,3.3,0.6,6.7,2.1,9.7c1.4,2.8,3.5,5.2,6,7.2c5.1,4,11.5,6,17.7,7.7v26.7
					c-3.2-0.9-6.2-2.4-8.6-4.7c-1.2-1.1-2.2-2.4-3-3.8c-0.4-0.7-0.8-1.5-1-2.2c-0.3-0.8-0.5-1.6-0.7-2.3c-0.8-2.5-3.2-4.4-5.8-4.6
					c-2.7-0.2-5.3,1.2-6.6,3.6c-0.6,1.2-0.9,2.5-0.7,3.8c0.1,0.8,0.3,1.5,0.5,2.3c0.2,0.8,0.5,1.6,0.8,2.4c1.2,3.1,3,5.9,5.1,8.4
					c4.3,5,10.2,8.4,16.5,10.2C56.7,9,57.9,9.3,59,9.5v7.9c0,2.6,1.6,5,3.9,6.1c2.4,1.1,5.3,0.7,7.3-1.1c1.4-1.3,2.3-3.1,2.3-5.1
					v-7.2c6.8-0.5,13.6-2.5,19.1-6.7c5.2-4,8.6-9.9,9.3-16.4C101.4-17.8,100.6-23,98.2-27.3z M59-45.1c-1.6-0.5-3-1-4.3-1.5
					c-1.5-0.6-3-1.3-4.4-2.3c-1.2-0.8-2.4-1.9-3-3.3c-0.6-1.5-0.7-3.2-0.5-4.8c0.2-1.6,0.7-3,1.6-4.3c2.4-3.4,6.7-5.2,10.6-6.1
					V-45.1z M86.3-10.6c-2.7,4.8-8.6,6.7-13.7,7.2v-24.6c3.2,0.8,6.4,1.8,9.3,3.3c1.3,0.7,2.6,1.5,3.7,2.7c1,1,1.5,2.3,1.8,3.7
					C87.8-15.7,87.6-12.9,86.3-10.6z"/>
				<g>
					<path d="M86.3-10.6C86.3-10.6,86.3-10.6,86.3-10.6L86.3-10.6C86.3-10.6,86.3-10.6,86.3-10.6z"/>
				</g>
				<g>
					<path d="M86.4-10.8c0,0.1-0.1,0.1-0.1,0.2l0,0C86.3-10.7,86.4-10.7,86.4-10.8z"/>
				</g>
				<g>
					<path d="M86.5-11C86.5-11,86.5-11,86.5-11L86.5-11z"/>
				</g>
				<g>
					<path d="M86.2-10.4c0,0.1-0.1,0.1-0.1,0.2C86.1-10.3,86.2-10.3,86.2-10.4z"/>
				</g>
			</g>
		</g>
	</g>
	<g id="Thin-M" transform="matrix(1 0 0 1 791.139 1126)">
		<g>
			<g>
				<path d="M96.7-27.3C97.1-26.5,97.6-25.7,96.7-27.3C95.7-29,96.1-28.2,96.7-27.3c-3.1-5.4-8.5-8.9-14.1-11.1
					c-3.7-1.5-7.6-2.5-11.5-3.4v-25.6c3.3,0.6,6.6,1.6,9.3,3.6c1.2,0.9,2.3,2,3.2,3.3c0.4,0.7,0.8,1.4,1.1,2.1
					c0.3,0.7,0.4,1.5,0.7,2.3c1,2.5,3.4,4.2,6,4.3c2.7,0.1,5.3-1.4,6.4-3.9c0.6-1.2,0.8-2.5,0.6-3.8c-0.1-0.8-0.4-1.6-0.6-2.4
					c-0.3-0.8-0.6-1.7-1-2.5c-1.3-2.9-3.1-5.5-5.4-7.8c-4.8-4.7-11.1-7.4-17.6-8.6c-0.9-0.2-1.8-0.3-2.6-0.4v-0.5v-6.9
					c0-2.6-1.6-5-3.9-6.1c-2.4-1.1-5.3-0.7-7.3,1.1c-1.4,1.3-2.3,3.1-2.3,5.1v6.9v0.6c-6.6,0.9-13.2,3.5-18.2,8.1
					c-2.3,2.1-4.2,4.7-5.5,7.6c-1.4,3.1-2,6.4-2,9.8c0,3.3,0.6,6.7,2.1,9.7c1.4,2.8,3.5,5.2,6,7.2c5.1,4,11.5,6,17.7,7.7v26.7
					c-3.2-0.9-6.2-2.4-8.6-4.7c-1.2-1.1-2.2-2.4-3-3.8c-0.4-0.7-0.8-1.5-1-2.2c-0.3-0.8-0.5-1.6-0.7-2.3c-0.8-2.5-3.2-4.4-5.8-4.6
					c-2.7-0.2-5.3,1.2-6.6,3.6c-0.6,1.2-0.9,2.5-0.7,3.8c0.1,0.8,0.3,1.5,0.5,2.3c0.2,0.8,0.5,1.6,0.8,2.4c1.2,3.1,3,5.9,5.1,8.4
					C41.8,3.6,47.7,7,54,8.7c1.1,0.3,2.3,0.6,3.5,0.8v7.9c0,2.6,1.6,5,3.9,6.1c2.4,1.1,5.3,0.7,7.3-1.1c1.4-1.3,2.3-3.1,2.3-5.1
					v-7.2c6.8-0.5,13.6-2.5,19.1-6.7c5.2-4,8.6-9.9,9.3-16.4C99.9-17.8,99.1-23,96.7-27.3z M57.5-45.1c-1.6-0.5-3-1-4.3-1.5
					c-1.5-0.6-3-1.3-4.4-2.3c-1.2-0.8-2.4-1.9-3-3.3c-0.6-1.5-0.7-3.2-0.5-4.8c0.2-1.6,0.7-3,1.6-4.3c2.4-3.4,6.7-5.2,10.6-6.1
					V-45.1z M84.8-10.6C82.1-5.8,76.2-3.9,71-3.3v-24.6c3.2,0.8,6.4,1.8,9.3,3.3c1.3,0.7,2.6,1.5,3.7,2.7c1,1,1.5,2.3,1.8,3.7
					C86.3-15.7,86-12.9,84.8-10.6z"/>
				<g>
					<path d="M84.7-10.6C84.7-10.6,84.7-10.6,84.7-10.6L84.7-10.6C84.7-10.6,84.7-10.6,84.7-10.6z"/>
				</g>
				<g>
					<path d="M84.9-10.8c0,0.1-0.1,0.1-0.1,0.2l0,0C84.8-10.7,84.8-10.7,84.9-10.8z"/>
				</g>
				<g>
					<path d="M85-11C85-11,85-11,85-11L85-11z"/>
				</g>
				<g>
					<path d="M84.7-10.4c0,0.1-0.1,0.1-0.1,0.2C84.6-10.3,84.6-10.3,84.7-10.4z"/>
				</g>
			</g>
		</g>
	</g>
	<g id="Ultralight-M" transform="matrix(1 0 0 1 495.209 1126)">
		<g>
			<g>
				<path d="M95.9-27.3C96.3-26.5,96.8-25.7,95.9-27.3C94.9-29,95.4-28.2,95.9-27.3c-3.1-5.4-8.5-8.9-14.1-11.1
					c-3.7-1.5-7.6-2.5-11.5-3.4v-25.6c3.3,0.6,6.6,1.6,9.3,3.6c1.2,0.9,2.3,2,3.2,3.3c0.4,0.7,0.8,1.4,1.1,2.1
					c0.3,0.7,0.4,1.5,0.7,2.3c1,2.5,3.4,4.2,6,4.3c2.7,0.1,5.3-1.4,6.4-3.9c0.6-1.2,0.8-2.5,0.6-3.8c-0.1-0.8-0.4-1.6-0.6-2.4
					c-0.3-0.8-0.6-1.7-1-2.5c-1.3-2.9-3.1-5.5-5.4-7.8c-4.8-4.7-11.1-7.4-17.6-8.6c-0.9-0.2-1.8-0.3-2.6-0.4v-0.5v-6.9
					c0-2.6-1.6-5-3.9-6.1c-2.4-1.1-5.3-0.7-7.3,1.1c-1.4,1.3-2.3,3.1-2.3,5.1v6.9v0.6c-6.6,0.9-13.2,3.5-18.2,8.1
					c-2.3,2.1-4.2,4.7-5.5,7.6c-1.4,3.1-2,6.4-2,9.8c0,3.3,0.6,6.7,2.1,9.7c1.4,2.8,3.5,5.2,6,7.2c5.1,4,11.5,6,17.7,7.7v26.7
					c-3.2-0.9-6.2-2.4-8.6-4.7c-1.2-1.1-2.2-2.4-3-3.8c-0.4-0.7-0.8-1.5-1-2.2c-0.3-0.8-0.5-1.6-0.7-2.3c-0.8-2.5-3.2-4.4-5.8-4.6
					c-2.7-0.2-5.3,1.2-6.6,3.6c-0.6,1.2-0.9,2.5-0.7,3.8c0.1,0.8,0.3,1.5,0.5,2.3c0.2,0.8,0.5,1.6,0.8,2.4c1.2,3.1,3,5.9,5.1,8.4
					C41,3.6,46.9,7,53.3,8.7c1.1,0.3,2.3,0.6,3.5,0.8v7.9c0,2.6,1.6,5,3.9,6.1c2.4,1.1,5.3,0.7,7.3-1.1c1.4-1.3,2.3-3.1,2.3-5.1
					v-7.2C77,9.6,83.8,7.7,89.3,3.5c5.2-4,8.6-9.9,9.3-16.4C99.1-17.8,98.3-23,95.9-27.3z M56.7-45.1c-1.6-0.5-3-1-4.3-1.5
					c-1.5-0.6-3-1.3-4.4-2.3c-1.2-0.8-2.4-1.9-3-3.3c-0.6-1.5-0.7-3.2-0.5-4.8c0.2-1.6,0.7-3,1.6-4.3c2.4-3.4,6.7-5.2,10.6-6.1
					V-45.1z M84-10.6c-2.7,4.8-8.6,6.7-13.7,7.2v-24.6c3.2,0.8,6.4,1.8,9.3,3.3c1.3,0.7,2.6,1.5,3.7,2.7c1,1,1.5,2.3,1.8,3.7
					C85.5-15.7,85.3-12.9,84-10.6z"/>
				<g>
					<path d="M84-10.6C84-10.6,84-10.6,84-10.6L84-10.6C84-10.6,84-10.6,84-10.6z"/>
				</g>
				<g>
					<path d="M84.1-10.8c0,0.1-0.1,0.1-0.1,0.2l0,0C84-10.7,84.1-10.7,84.1-10.8z"/>
				</g>
				<g>
					<path d="M84.2-11C84.2-11,84.2-11,84.2-11L84.2-11z"/>
				</g>
				<g>
					<path d="M83.9-10.4c0,0.1-0.1,0.1-0.1,0.2C83.8-10.3,83.8-10.3,83.9-10.4z"/>
				</g>
			</g>
		</g>
	</g>
	<g id="Black-S" transform="matrix(1 0 0 1 2875 696)">
		<g>
			<g>
				<path d="M84.5-26.4C84.9-25.7,85.3-25.1,84.5-26.4C83.7-27.9,84.1-27.2,84.5-26.4c-2.6-4.5-7-7.4-11.7-9.2
					c-3.1-1.2-6.3-2.1-9.6-2.8v-21.3c2.7,0.5,5.5,1.3,7.7,3c1,0.8,1.9,1.7,2.7,2.8c0.4,0.6,0.7,1.1,0.9,1.8c0.2,0.6,0.4,1.3,0.6,1.9
					c0.8,2.1,2.8,3.5,5,3.6c2.2,0.1,4.4-1.2,5.3-3.2c0.5-1,0.6-2.1,0.5-3.2c-0.1-0.7-0.3-1.4-0.5-2c-0.2-0.7-0.5-1.4-0.8-2.1
					c-1.1-2.4-2.6-4.6-4.5-6.5c-4-3.9-9.2-6.1-14.7-7.1c-0.7-0.1-1.5-0.2-2.2-0.3v-0.5v-5.7c0-2.2-1.3-4.2-3.3-5.1
					c-2-0.9-4.4-0.6-6.1,0.9c-1.2,1.1-1.9,2.6-1.9,4.2v5.7v0.5c-5.5,0.8-11,2.9-15.1,6.7c-1.9,1.8-3.5,3.9-4.6,6.3
					c-1.2,2.6-1.7,5.3-1.7,8.1c0,2.8,0.5,5.5,1.7,8c1.1,2.4,2.9,4.4,5,6c4.3,3.3,9.6,5,14.7,6.4v22.2c-2.6-0.7-5.2-2-7.1-3.9
					c-1-0.9-1.8-2-2.5-3.2c-0.3-0.6-0.6-1.2-0.9-1.8c-0.2-0.6-0.4-1.3-0.6-2c-0.7-2.1-2.6-3.6-4.8-3.8c-2.2-0.2-4.4,1-5.5,3
					c-0.5,1-0.7,2.1-0.6,3.2c0.1,0.6,0.3,1.3,0.4,1.9c0.2,0.7,0.4,1.4,0.7,2c1,2.6,2.5,4.9,4.2,7c3.6,4.2,8.5,7,13.7,8.4
					C50,3.8,51,4,51.9,4.2v6.5c0,2.2,1.3,4.2,3.3,5.1c2,0.9,4.4,0.6,6.1-0.9c1.2-1.1,1.9-2.6,1.9-4.2v-6C68.8,4.3,74.5,2.7,79-0.8
					c4.3-3.3,7.2-8.2,7.7-13.6C87.2-18.5,86.5-22.8,84.5-26.4z M51.9-41.2c-1.3-0.4-2.5-0.8-3.6-1.2c-1.3-0.5-2.5-1.1-3.7-1.9
					c-1-0.7-2-1.6-2.5-2.7c-0.5-1.2-0.6-2.7-0.4-4c0.1-1.3,0.6-2.5,1.3-3.6c2-2.9,5.5-4.4,8.8-5.1V-41.2z M74.6-12.5
					c-2.2,4-7.2,5.5-11.4,6v-20.4c2.6,0.7,5.3,1.5,7.7,2.7c1.1,0.6,2.2,1.3,3,2.2c0.8,0.9,1.3,1.9,1.5,3.1
					C75.9-16.8,75.7-14.4,74.6-12.5z"/>
				<g>
					<path d="M74.6-12.5C74.6-12.5,74.6-12.5,74.6-12.5L74.6-12.5C74.6-12.5,74.6-12.5,74.6-12.5z"/>
				</g>
				<g>
					<path d="M74.7-12.7c0,0-0.1,0.1-0.1,0.2l0,0C74.6-12.6,74.7-12.6,74.7-12.7z"/>
				</g>
				<g>
					<path d="M74.8-12.9C74.8-12.9,74.8-12.9,74.8-12.9L74.8-12.9z"/>
				</g>
				<g>
					<path d="M74.5-12.4c0,0.1-0.1,0.1-0.1,0.1C74.4-12.3,74.5-12.3,74.5-12.4z"/>
				</g>
			</g>
		</g>
	</g>
	<g id="Heavy-S" transform="matrix(1 0 0 1 2579.36 696)">
		<g>
			<g>
				<path d="M83.4-26.4C83.8-25.7,84.2-25.1,83.4-26.4C82.6-27.9,83-27.2,83.4-26.4c-2.6-4.5-7-7.4-11.7-9.2
					c-3.1-1.2-6.3-2.1-9.6-2.8v-21.3c2.7,0.5,5.5,1.3,7.7,3c1,0.8,1.9,1.7,2.7,2.8c0.4,0.6,0.7,1.1,0.9,1.8c0.2,0.6,0.4,1.3,0.6,1.9
					c0.8,2.1,2.8,3.5,5,3.6c2.2,0.1,4.4-1.2,5.3-3.2c0.5-1,0.6-2.1,0.5-3.2c-0.1-0.7-0.3-1.4-0.5-2c-0.2-0.7-0.5-1.4-0.8-2.1
					c-1.1-2.4-2.6-4.6-4.5-6.5c-4-3.9-9.2-6.1-14.7-7.1c-0.7-0.1-1.5-0.2-2.2-0.3v-0.5v-5.7c0-2.2-1.3-4.2-3.3-5.1
					c-2-0.9-4.4-0.6-6.1,0.9c-1.2,1.1-1.9,2.6-1.9,4.2v5.7v0.5c-5.5,0.8-11,2.9-15.1,6.7c-1.9,1.8-3.5,3.9-4.6,6.3
					c-1.2,2.6-1.7,5.3-1.7,8.1c0,2.8,0.5,5.5,1.7,8c1.1,2.4,2.9,4.4,5,6c4.3,3.3,9.6,5,14.7,6.4v22.2c-2.6-0.7-5.2-2-7.1-3.9
					c-1-0.9-1.8-2-2.5-3.2c-0.3-0.6-0.6-1.2-0.9-1.8c-0.2-0.6-0.4-1.3-0.6-2c-0.7-2.1-2.6-3.6-4.8-3.8c-2.2-0.2-4.4,1-5.5,3
					c-0.5,1-0.7,2.1-0.6,3.2c0.1,0.6,0.3,1.3,0.4,1.9c0.2,0.7,0.4,1.4,0.7,2c1,2.6,2.5,4.9,4.2,7c3.6,4.2,8.5,7,13.7,8.4
					c0.9,0.3,1.9,0.5,2.9,0.7v6.5c0,2.2,1.3,4.2,3.3,5.1c2,0.9,4.4,0.6,6.1-0.9c1.2-1.1,1.9-2.6,1.9-4.2v-6
					c5.6-0.5,11.3-2.1,15.8-5.6c4.3-3.3,7.2-8.2,7.7-13.6C86.1-18.5,85.5-22.8,83.4-26.4z M50.9-41.2c-1.3-0.4-2.5-0.8-3.6-1.2
					c-1.3-0.5-2.5-1.1-3.7-1.9c-1-0.7-2-1.6-2.5-2.7c-0.5-1.2-0.6-2.7-0.4-4c0.1-1.3,0.6-2.5,1.3-3.6c2-2.9,5.5-4.4,8.8-5.1V-41.2z
					 M73.5-12.5c-2.2,4-7.2,5.5-11.4,6v-20.4c2.6,0.7,5.3,1.5,7.7,2.7c1.1,0.6,2.2,1.3,3,2.2c0.8,0.9,1.3,1.9,1.5,3.1
					C74.8-16.8,74.6-14.4,73.5-12.5z"/>
				<g>
					<path d="M73.5-12.5C73.5-12.5,73.5-12.5,73.5-12.5L73.5-12.5C73.5-12.5,73.5-12.5,73.5-12.5z"/>
				</g>
				<g>
					<path d="M73.6-12.7c0,0-0.1,0.1-0.1,0.2l0,0C73.6-12.6,73.6-12.6,73.6-12.7z"/>
				</g>
				<g>
					<path d="M73.7-12.9C73.7-12.9,73.7-12.9,73.7-12.9L73.7-12.9z"/>
				</g>
				<g>
					<path d="M73.4-12.4c0,0.1-0.1,0.1-0.1,0.1C73.4-12.3,73.4-12.3,73.4-12.4z"/>
				</g>
			</g>
		</g>
	</g>
	<g id="Bold-S" transform="matrix(1 0 0 1 2283.87 696)">
		<g>
			<g>
				<path d="M82.2-26.4C82.6-25.7,83-25.1,82.2-26.4C81.4-27.9,81.8-27.2,82.2-26.4c-2.6-4.5-7-7.4-11.7-9.2
					c-3.1-1.2-6.3-2.1-9.6-2.8v-21.3c2.7,0.5,5.5,1.3,7.7,3c1,0.8,1.9,1.7,2.7,2.8c0.4,0.6,0.7,1.1,0.9,1.8c0.2,0.6,0.4,1.3,0.6,1.9
					c0.8,2.1,2.8,3.5,5,3.6c2.2,0.1,4.4-1.2,5.3-3.2c0.5-1,0.6-2.1,0.5-3.2c-0.1-0.7-0.3-1.4-0.5-2c-0.2-0.7-0.5-1.4-0.8-2.1
					c-1.1-2.4-2.6-4.6-4.5-6.5c-4-3.9-9.2-6.1-14.7-7.1c-0.7-0.1-1.5-0.2-2.2-0.3v-0.5v-5.7c0-2.2-1.3-4.2-3.3-5.1
					c-2-0.9-4.4-0.6-6.1,0.9c-1.2,1.1-1.9,2.6-1.9,4.2v5.7v0.5c-5.5,0.8-11,2.9-15.1,6.7c-1.9,1.8-3.5,3.9-4.6,6.3
					c-1.2,2.6-1.7,5.3-1.7,8.1c0,2.8,0.5,5.5,1.7,8c1.1,2.4,2.9,4.4,5,6c4.3,3.3,9.6,5,14.7,6.4v22.2c-2.6-0.7-5.2-2-7.1-3.9
					c-1-0.9-1.8-2-2.5-3.2c-0.3-0.6-0.6-1.2-0.9-1.8c-0.2-0.6-0.4-1.3-0.6-2c-0.7-2.1-2.6-3.6-4.8-3.8c-2.2-0.2-4.4,1-5.5,3
					c-0.5,1-0.7,2.1-0.6,3.2c0.1,0.6,0.3,1.3,0.4,1.9c0.2,0.7,0.4,1.4,0.7,2c1,2.6,2.5,4.9,4.2,7c3.6,4.2,8.5,7,13.7,8.4
					c0.9,0.3,1.9,0.5,2.9,0.7v6.5c0,2.2,1.3,4.2,3.3,5.1c2,0.9,4.4,0.6,6.1-0.9c1.2-1.1,1.9-2.6,1.9-4.2v-6
					c5.6-0.5,11.3-2.1,15.8-5.6c4.3-3.3,7.2-8.2,7.7-13.6C84.9-18.5,84.2-22.8,82.2-26.4z M49.6-41.2c-1.3-0.4-2.5-0.8-3.6-1.2
					c-1.3-0.5-2.5-1.1-3.7-1.9c-1-0.7-2-1.6-2.5-2.7c-0.5-1.2-0.6-2.7-0.4-4c0.1-1.3,0.6-2.5,1.3-3.6c2-2.9,5.5-4.4,8.8-5.1V-41.2z
					 M72.3-12.5c-2.2,4-7.2,5.5-11.4,6v-20.4c2.6,0.7,5.3,1.5,7.7,2.7c1.1,0.6,2.2,1.3,3,2.2c0.8,0.9,1.3,1.9,1.5,3.1
					C73.6-16.8,73.4-14.4,72.3-12.5z"/>
				<g>
					<path d="M72.3-12.5C72.3-12.5,72.3-12.5,72.3-12.5L72.3-12.5C72.3-12.5,72.3-12.5,72.3-12.5z"/>
				</g>
				<g>
					<path d="M72.4-12.7c0,0-0.1,0.1-0.1,0.2l0,0C72.3-12.6,72.4-12.6,72.4-12.7z"/>
				</g>
				<g>
					<path d="M72.5-12.9C72.5-12.9,72.5-12.9,72.5-12.9L72.5-12.9z"/>
				</g>
				<g>
					<path d="M72.2-12.4c0,0.1-0.1,0.1-0.1,0.1C72.2-12.3,72.2-12.3,72.2-12.4z"/>
				</g>
			</g>
		</g>
	</g>
	<g id="Semibold-S" transform="matrix(1 0 0 1 1987.99 696)">
		<g>
			<g>
				<path d="M81.4-26.4C81.8-25.7,82.1-25.1,81.4-26.4C80.5-27.9,80.9-27.2,81.4-26.4c-2.6-4.5-7-7.4-11.7-9.2
					c-3.1-1.2-6.3-2.1-9.6-2.8v-21.3c2.7,0.5,5.5,1.3,7.7,3c1,0.8,1.9,1.7,2.7,2.8c0.4,0.6,0.7,1.1,0.9,1.8c0.2,0.6,0.4,1.3,0.6,1.9
					c0.8,2.1,2.8,3.5,5,3.6c2.2,0.1,4.4-1.2,5.3-3.2c0.5-1,0.6-2.1,0.5-3.2c-0.1-0.7-0.3-1.4-0.5-2c-0.2-0.7-0.5-1.4-0.8-2.1
					c-1.1-2.4-2.6-4.6-4.5-6.5c-4-3.9-9.2-6.1-14.7-7.1c-0.7-0.1-1.5-0.2-2.2-0.3v-0.5v-5.7c0-2.2-1.3-4.2-3.3-5.1
					c-2-0.9-4.4-0.6-6.1,0.9c-1.2,1.1-1.9,2.6-1.9,4.2v5.7v0.5c-5.5,0.8-11,2.9-15.1,6.7c-1.9,1.8-3.5,3.9-4.6,6.3
					c-1.2,2.6-1.7,5.3-1.7,8.1c0,2.8,0.5,5.5,1.7,8c1.1,2.4,2.9,4.4,5,6c4.3,3.3,9.6,5,14.7,6.4v22.2c-2.6-0.7-5.2-2-7.1-3.9
					c-1-0.9-1.8-2-2.5-3.2c-0.3-0.6-0.6-1.2-0.9-1.8c-0.2-0.6-0.4-1.3-0.6-2c-0.7-2.1-2.6-3.6-4.8-3.8c-2.2-0.2-4.4,1-5.5,3
					c-0.5,1-0.7,2.1-0.6,3.2c0.1,0.6,0.3,1.3,0.4,1.9c0.2,0.7,0.4,1.4,0.7,2c1,2.6,2.5,4.9,4.2,7c3.6,4.2,8.5,7,13.7,8.4
					c0.9,0.3,1.9,0.5,2.9,0.7v6.5c0,2.2,1.3,4.2,3.3,5.1c2,0.9,4.4,0.6,6.1-0.9c1.2-1.1,1.9-2.6,1.9-4.2v-6
					c5.6-0.5,11.3-2.1,15.8-5.6c4.3-3.3,7.2-8.2,7.7-13.6C84.1-18.5,83.4-22.8,81.4-26.4z M48.8-41.2c-1.3-0.4-2.5-0.8-3.6-1.2
					c-1.3-0.5-2.5-1.1-3.7-1.9c-1-0.7-2-1.6-2.5-2.7c-0.5-1.2-0.6-2.7-0.4-4c0.1-1.3,0.6-2.5,1.3-3.6c2-2.9,5.5-4.4,8.8-5.1V-41.2z
					 M71.5-12.5c-2.2,4-7.2,5.5-11.4,6v-20.4c2.6,0.7,5.3,1.5,7.7,2.7c1.1,0.6,2.2,1.3,3,2.2c0.8,0.9,1.3,1.9,1.5,3.1
					C72.8-16.8,72.5-14.4,71.5-12.5z"/>
				<g>
					<path d="M71.4-12.5C71.5-12.5,71.5-12.5,71.4-12.5L71.4-12.5C71.5-12.5,71.5-12.5,71.4-12.5z"/>
				</g>
				<g>
					<path d="M71.6-12.7c0,0-0.1,0.1-0.1,0.2l0,0C71.5-12.6,71.5-12.6,71.6-12.7z"/>
				</g>
				<g>
					<path d="M71.7-12.9C71.7-12.9,71.7-12.9,71.7-12.9L71.7-12.9z"/>
				</g>
				<g>
					<path d="M71.4-12.4c0,0.1-0.1,0.1-0.1,0.1C71.3-12.3,71.4-12.3,71.4-12.4z"/>
				</g>
			</g>
		</g>
	</g>
	<g id="Medium-S" transform="matrix(1 0 0 1 1691.92 696)">
		<g>
			<g>
				<path d="M80.7-26.4C81.1-25.7,81.5-25.1,80.7-26.4C79.9-27.9,80.3-27.2,80.7-26.4c-2.6-4.5-7-7.4-11.7-9.2
					c-3.1-1.2-6.3-2.1-9.6-2.8v-21.3c2.7,0.5,5.5,1.3,7.7,3c1,0.8,1.9,1.7,2.7,2.8c0.4,0.6,0.7,1.1,0.9,1.8c0.2,0.6,0.4,1.3,0.6,1.9
					c0.8,2.1,2.8,3.5,5,3.6c2.2,0.1,4.4-1.2,5.3-3.2c0.5-1,0.6-2.1,0.5-3.2c-0.1-0.7-0.3-1.4-0.5-2c-0.2-0.7-0.5-1.4-0.8-2.1
					c-1.1-2.4-2.6-4.6-4.5-6.5c-4-3.9-9.2-6.1-14.7-7.1c-0.7-0.1-1.5-0.2-2.2-0.3v-0.5v-5.7c0-2.2-1.3-4.2-3.3-5.1
					c-2-0.9-4.4-0.6-6.1,0.9c-1.2,1.1-1.9,2.6-1.9,4.2v5.7v0.5c-5.5,0.8-11,2.9-15.1,6.7c-1.9,1.8-3.5,3.9-4.6,6.3
					c-1.2,2.6-1.7,5.3-1.7,8.1c0,2.8,0.5,5.5,1.7,8c1.1,2.4,2.9,4.4,5,6c4.3,3.3,9.6,5,14.7,6.4v22.2c-2.6-0.7-5.2-2-7.1-3.9
					c-1-0.9-1.8-2-2.5-3.2c-0.3-0.6-0.6-1.2-0.9-1.8c-0.2-0.6-0.4-1.3-0.6-2c-0.7-2.1-2.6-3.6-4.8-3.8c-2.2-0.2-4.4,1-5.5,3
					c-0.5,1-0.7,2.1-0.6,3.2c0.1,0.6,0.3,1.3,0.4,1.9c0.2,0.7,0.4,1.4,0.7,2c1,2.6,2.5,4.9,4.2,7c3.6,4.2,8.5,7,13.7,8.4
					c0.9,0.3,1.9,0.5,2.9,0.7v6.5c0,2.2,1.3,4.2,3.3,5.1c2,0.9,4.4,0.6,6.1-0.9c1.2-1.1,1.9-2.6,1.9-4.2v-6
					C65,4.3,70.7,2.7,75.2-0.8c4.3-3.3,7.2-8.2,7.7-13.6C83.4-18.5,82.8-22.8,80.7-26.4z M48.2-41.2c-1.3-0.4-2.5-0.8-3.6-1.2
					c-1.3-0.5-2.5-1.1-3.7-1.9c-1-0.7-2-1.6-2.5-2.7c-0.5-1.2-0.6-2.7-0.4-4c0.1-1.3,0.6-2.5,1.3-3.6c2-2.9,5.5-4.4,8.8-5.1V-41.2z
					 M70.8-12.5c-2.2,4-7.2,5.5-11.4,6v-20.4c2.6,0.7,5.3,1.5,7.7,2.7c1.1,0.6,2.2,1.3,3,2.2c0.8,0.9,1.3,1.9,1.5,3.1
					C72.1-16.8,71.9-14.4,70.8-12.5z"/>
				<g>
					<path d="M70.8-12.5C70.8-12.5,70.8-12.5,70.8-12.5L70.8-12.5C70.8-12.5,70.8-12.5,70.8-12.5z"/>
				</g>
				<g>
					<path d="M70.9-12.7c0,0-0.1,0.1-0.1,0.2l0,0C70.9-12.6,70.9-12.6,70.9-12.7z"/>
				</g>
				<g>
					<path d="M71-12.9C71-12.9,71-12.9,71-12.9L71-12.9z"/>
				</g>
				<g>
					<path d="M70.7-12.4c0,0.1-0.1,0.1-0.1,0.1C70.7-12.3,70.7-12.3,70.7-12.4z"/>
				</g>
			</g>
		</g>
	</g>
	<g id="Light-S" transform="matrix(1 0 0 1 1100.33 696)">
		<g>
			<g>
				<path d="M78.9-26.4C79.3-25.7,79.7-25.1,78.9-26.4C78.1-27.9,78.5-27.2,78.9-26.4c-2.6-4.5-7-7.4-11.7-9.2
					c-3.1-1.2-6.3-2.1-9.6-2.8v-21.3c2.7,0.5,5.5,1.3,7.7,3c1,0.8,1.9,1.7,2.7,2.8c0.4,0.6,0.7,1.1,0.9,1.8c0.2,0.6,0.4,1.3,0.6,1.9
					c0.8,2.1,2.8,3.5,5,3.6c2.2,0.1,4.4-1.2,5.3-3.2c0.5-1,0.6-2.1,0.5-3.2c-0.1-0.7-0.3-1.4-0.5-2c-0.2-0.7-0.5-1.4-0.8-2.1
					c-1.1-2.4-2.6-4.6-4.5-6.5c-4-3.9-9.2-6.1-14.7-7.1c-0.7-0.1-1.5-0.2-2.2-0.3v-0.5v-5.7c0-2.2-1.3-4.2-3.3-5.1
					c-2-0.9-4.4-0.6-6.1,0.9c-1.2,1.1-1.9,2.6-1.9,4.2v5.7v0.5c-5.5,0.8-11,2.9-15.1,6.7c-1.9,1.8-3.5,3.9-4.6,6.3
					c-1.2,2.6-1.7,5.3-1.7,8.1c0,2.8,0.5,5.5,1.7,8c1.1,2.4,2.9,4.4,5,6c4.3,3.3,9.6,5,14.7,6.4v22.2c-2.6-0.7-5.2-2-7.1-3.9
					c-1-0.9-1.8-2-2.5-3.2c-0.3-0.6-0.6-1.2-0.9-1.8c-0.2-0.6-0.4-1.3-0.6-2c-0.7-2.1-2.6-3.6-4.8-3.8c-2.2-0.2-4.4,1-5.5,3
					c-0.5,1-0.7,2.1-0.6,3.2c0.1,0.6,0.3,1.3,0.4,1.9c0.2,0.7,0.4,1.4,0.7,2c1,2.6,2.5,4.9,4.2,7c3.6,4.2,8.5,7,13.7,8.4
					c0.9,0.3,1.9,0.5,2.9,0.7v6.5c0,2.2,1.3,4.2,3.3,5.1c2,0.9,4.4,0.6,6.1-0.9c1.2-1.1,1.9-2.6,1.9-4.2v-6
					c5.6-0.5,11.3-2.1,15.8-5.6c4.3-3.3,7.2-8.2,7.7-13.6C81.6-18.5,80.9-22.8,78.9-26.4z M46.3-41.2c-1.3-0.4-2.5-0.8-3.6-1.2
					c-1.3-0.5-2.5-1.1-3.7-1.9c-1-0.7-2-1.6-2.5-2.7c-0.5-1.2-0.6-2.7-0.4-4c0.1-1.3,0.6-2.5,1.3-3.6c2-2.9,5.5-4.4,8.8-5.1V-41.2z
					 M69-12.5c-2.2,4-7.2,5.5-11.4,6v-20.4c2.6,0.7,5.3,1.5,7.7,2.7c1.1,0.6,2.2,1.3,3,2.2c0.8,0.9,1.3,1.9,1.5,3.1
					C70.3-16.8,70.1-14.4,69-12.5z"/>
				<g>
					<path d="M69-12.5C69-12.5,69-12.5,69-12.5L69-12.5C69-12.5,69-12.5,69-12.5z"/>
				</g>
				<g>
					<path d="M69.1-12.7c0,0-0.1,0.1-0.1,0.2l0,0C69-12.6,69.1-12.6,69.1-12.7z"/>
				</g>
				<g>
					<path d="M69.2-12.9C69.2-12.9,69.2-12.9,69.2-12.9L69.2-12.9z"/>
				</g>
				<g>
					<path d="M68.9-12.4c0,0.1-0.1,0.1-0.1,0.1C68.9-12.3,68.9-12.3,68.9-12.4z"/>
				</g>
			</g>
		</g>
	</g>
	<g id="Thin-S" transform="matrix(1 0 0 1 804.982 696)">
		<g>
			<g>
				<path d="M77.5-26.4C77.9-25.7,78.3-25.1,77.5-26.4C76.7-27.9,77.1-27.2,77.5-26.4c-2.6-4.5-7-7.4-11.7-9.2
					c-3.1-1.2-6.3-2.1-9.6-2.8v-21.3c2.7,0.5,5.5,1.3,7.7,3c1,0.8,1.9,1.7,2.7,2.8c0.4,0.6,0.7,1.1,0.9,1.8c0.2,0.6,0.4,1.3,0.6,1.9
					c0.8,2.1,2.8,3.5,5,3.6c2.2,0.1,4.4-1.2,5.3-3.2c0.5-1,0.6-2.1,0.5-3.2c-0.1-0.7-0.3-1.4-0.5-2c-0.2-0.7-0.5-1.4-0.8-2.1
					c-1.1-2.4-2.6-4.6-4.5-6.5c-4-3.9-9.2-6.1-14.7-7.1c-0.7-0.1-1.5-0.2-2.2-0.3v-0.5v-5.7c0-2.2-1.3-4.2-3.3-5.1
					c-2-0.9-4.4-0.6-6.1,0.9c-1.2,1.1-1.9,2.6-1.9,4.2v5.7v0.5c-5.5,0.8-11,2.9-15.1,6.7c-1.9,1.8-3.5,3.9-4.6,6.3
					c-1.2,2.6-1.7,5.3-1.7,8.1c0,2.8,0.5,5.5,1.7,8c1.1,2.4,2.9,4.4,5,6c4.3,3.3,9.6,5,14.7,6.4v22.2c-2.6-0.7-5.2-2-7.1-3.9
					c-1-0.9-1.8-2-2.5-3.2c-0.3-0.6-0.6-1.2-0.9-1.8c-0.2-0.6-0.4-1.3-0.6-2c-0.7-2.1-2.6-3.6-4.8-3.8c-2.2-0.2-4.4,1-5.5,3
					c-0.5,1-0.7,2.1-0.6,3.2c0.1,0.6,0.3,1.3,0.4,1.9c0.2,0.7,0.4,1.4,0.7,2c1,2.6,2.5,4.9,4.2,7c3.6,4.2,8.5,7,13.7,8.4
					C43,3.8,44,4,45,4.2v6.5c0,2.2,1.3,4.2,3.3,5.1c2,0.9,4.4,0.6,6.1-0.9c1.2-1.1,1.9-2.6,1.9-4.2v-6C61.8,4.3,67.5,2.7,72-0.8
					c4.3-3.3,7.2-8.2,7.7-13.6C80.2-18.5,79.6-22.8,77.5-26.4z M45-41.2c-1.3-0.4-2.5-0.8-3.6-1.2c-1.3-0.5-2.5-1.1-3.7-1.9
					c-1-0.7-2-1.6-2.5-2.7c-0.5-1.2-0.6-2.7-0.4-4c0.1-1.3,0.6-2.5,1.3-3.6c2-2.9,5.5-4.4,8.8-5.1V-41.2z M67.6-12.5
					c-2.2,4-7.2,5.5-11.4,6v-20.4c2.6,0.7,5.3,1.5,7.7,2.7c1.1,0.6,2.2,1.3,3,2.2c0.8,0.9,1.3,1.9,1.5,3.1
					C68.9-16.8,68.7-14.4,67.6-12.5z"/>
				<g>
					<path d="M67.6-12.5C67.6-12.5,67.6-12.5,67.6-12.5L67.6-12.5C67.6-12.5,67.6-12.5,67.6-12.5z"/>
				</g>
				<g>
					<path d="M67.7-12.7c0,0-0.1,0.1-0.1,0.2l0,0C67.7-12.6,67.7-12.6,67.7-12.7z"/>
				</g>
				<g>
					<path d="M67.8-12.9C67.8-12.9,67.8-12.9,67.8-12.9L67.8-12.9z"/>
				</g>
				<g>
					<path d="M67.6-12.4c0,0.1-0.1,0.1-0.1,0.1C67.5-12.3,67.5-12.3,67.6-12.4z"/>
				</g>
			</g>
		</g>
	</g>
	<g id="Ultralight-S" transform="matrix(1 0 0 1 508.954 696)">
		<g>
			<g>
				<path d="M76.8-26.4C77.2-25.7,77.6-25.1,76.8-26.4C76-27.9,76.4-27.2,76.8-26.4c-2.6-4.5-7-7.4-11.7-9.2
					c-3.1-1.2-6.3-2.1-9.6-2.8v-21.3c2.7,0.5,5.5,1.3,7.7,3c1,0.8,1.9,1.7,2.7,2.8c0.4,0.6,0.7,1.1,0.9,1.8c0.2,0.6,0.4,1.3,0.6,1.9
					c0.8,2.1,2.8,3.5,5,3.6c2.2,0.1,4.4-1.2,5.3-3.2c0.5-1,0.6-2.1,0.5-3.2c-0.1-0.7-0.3-1.4-0.5-2c-0.2-0.7-0.5-1.4-0.8-2.1
					c-1.1-2.4-2.6-4.6-4.5-6.5c-4-3.9-9.2-6.1-14.7-7.1c-0.7-0.1-1.5-0.2-2.2-0.3v-0.5v-5.7c0-2.2-1.3-4.2-3.3-5.1
					c-2-0.9-4.4-0.6-6.1,0.9c-1.2,1.1-1.9,2.6-1.9,4.2v5.7v0.5c-5.5,0.8-11,2.9-15.1,6.7c-1.9,1.8-3.5,3.9-4.6,6.3
					c-1.2,2.6-1.7,5.3-1.7,8.1c0,2.8,0.5,5.5,1.7,8c1.1,2.4,2.9,4.4,5,6c4.3,3.3,9.6,5,14.7,6.4v22.2c-2.6-0.7-5.2-2-7.1-3.9
					c-1-0.9-1.8-2-2.5-3.2c-0.3-0.6-0.6-1.2-0.9-1.8c-0.2-0.6-0.4-1.3-0.6-2c-0.7-2.1-2.6-3.6-4.8-3.8c-2.2-0.2-4.4,1-5.5,3
					c-0.5,1-0.7,2.1-0.6,3.2c0.1,0.6,0.3,1.3,0.4,1.9c0.2,0.7,0.4,1.4,0.7,2c1,2.6,2.5,4.9,4.2,7c3.6,4.2,8.5,7,13.7,8.4
					c0.9,0.3,1.9,0.5,2.9,0.7v6.5c0,2.2,1.3,4.2,3.3,5.1c2,0.9,4.4,0.6,6.1-0.9c1.2-1.1,1.9-2.6,1.9-4.2v-6
					c5.6-0.5,11.3-2.1,15.8-5.6c4.3-3.3,7.2-8.2,7.7-13.6C79.6-18.5,78.9-22.8,76.8-26.4z M44.3-41.2c-1.3-0.4-2.5-0.8-3.6-1.2
					c-1.3-0.5-2.5-1.1-3.7-1.9c-1-0.7-2-1.6-2.5-2.7c-0.5-1.2-0.6-2.7-0.4-4c0.1-1.3,0.6-2.5,1.3-3.6c2-2.9,5.5-4.4,8.8-5.1V-41.2z
					 M67-12.5c-2.2,4-7.2,5.5-11.4,6v-20.4c2.6,0.7,5.3,1.5,7.7,2.7c1.1,0.6,2.2,1.3,3,2.2c0.8,0.9,1.3,1.9,1.5,3.1
					C68.2-16.8,68-14.4,67-12.5z"/>
				<g>
					<path d="M66.9-12.5C66.9-12.5,66.9-12.5,66.9-12.5L66.9-12.5C66.9-12.5,66.9-12.5,66.9-12.5z"/>
				</g>
				<g>
					<path d="M67-12.7c0,0-0.1,0.1-0.1,0.2l0,0C67-12.6,67-12.6,67-12.7z"/>
				</g>
				<g>
					<path d="M67.1-12.9C67.2-12.9,67.2-12.9,67.1-12.9L67.1-12.9z"/>
				</g>
				<g>
					<path d="M66.9-12.4c0,0.1-0.1,0.1-0.1,0.1C66.8-12.3,66.8-12.3,66.9-12.4z"/>
				</g>
			</g>
		</g>
	</g>
	<g id="Regular-S_1_" transform="matrix(1 0 0 1 1396.01 696)">
		<g>
			<g>
				<path d="M79.9-26.4C80.3-25.7,80.7-25.1,79.9-26.4C79.1-27.9,79.5-27.2,79.9-26.4c-2.6-4.5-7-7.4-11.7-9.2
					c-3.1-1.2-6.3-2.1-9.6-2.8v-21.3c2.7,0.5,5.5,1.3,7.7,3c1,0.8,1.9,1.7,2.7,2.8c0.4,0.6,0.7,1.1,0.9,1.8c0.2,0.6,0.4,1.3,0.6,1.9
					c0.8,2.1,2.8,3.5,5,3.6c2.2,0.1,4.4-1.2,5.3-3.2c0.5-1,0.6-2.1,0.5-3.2c-0.1-0.7-0.3-1.4-0.5-2c-0.2-0.7-0.5-1.4-0.8-2.1
					c-1.1-2.4-2.6-4.6-4.5-6.5c-4-3.9-9.2-6.1-14.7-7.1c-0.7-0.1-1.5-0.2-2.2-0.3v-0.5v-5.7c0-2.2-1.3-4.2-3.3-5.1
					c-2-0.9-4.4-0.6-6.1,0.9c-1.2,1.1-1.9,2.6-1.9,4.2v5.7v0.5c-5.5,0.8-11,2.9-15.1,6.7c-1.9,1.8-3.5,3.9-4.6,6.3
					c-1.2,2.6-1.7,5.3-1.7,8.1c0,2.8,0.5,5.5,1.7,8c1.1,2.4,2.9,4.4,5,6c4.3,3.3,9.6,5,14.7,6.4v22.2c-2.6-0.7-5.2-2-7.1-3.9
					c-1-0.9-1.8-2-2.5-3.2c-0.3-0.6-0.6-1.2-0.9-1.8c-0.2-0.6-0.4-1.3-0.6-2c-0.7-2.1-2.6-3.6-4.8-3.8c-2.2-0.2-4.4,1-5.5,3
					c-0.5,1-0.7,2.1-0.6,3.2c0.1,0.6,0.3,1.3,0.4,1.9c0.2,0.7,0.4,1.4,0.7,2c1,2.6,2.5,4.9,4.2,7c3.6,4.2,8.5,7,13.7,8.4
					c0.9,0.3,1.9,0.5,2.9,0.7v6.5c0,2.2,1.3,4.2,3.3,5.1c2,0.9,4.4,0.6,6.1-0.9c1.2-1.1,1.9-2.6,1.9-4.2v-6
					c5.6-0.5,11.3-2.1,15.8-5.6c4.3-3.3,7.2-8.2,7.7-13.6C82.6-18.5,82-22.8,79.9-26.4z M47.4-41.2c-1.3-0.4-2.5-0.8-3.6-1.2
					c-1.3-0.5-2.5-1.1-3.7-1.9c-1-0.7-2-1.6-2.5-2.7c-0.5-1.2-0.6-2.7-0.4-4c0.1-1.3,0.6-2.5,1.3-3.6c2-2.9,5.5-4.4,8.8-5.1V-41.2z
					 M70-12.5c-2.2,4-7.2,5.5-11.4,6v-20.4c2.6,0.7,5.3,1.5,7.7,2.7c1.1,0.6,2.2,1.3,3,2.2c0.8,0.9,1.3,1.9,1.5,3.1
					C71.3-16.8,71.1-14.4,70-12.5z"/>
				<g>
					<path d="M70-12.5C70-12.5,70-12.5,70-12.5L70-12.5C70-12.5,70-12.5,70-12.5z"/>
				</g>
				<g>
					<path d="M70.1-12.7c0,0-0.1,0.1-0.1,0.2l0,0C70.1-12.6,70.1-12.6,70.1-12.7z"/>
				</g>
				<g>
					<path d="M70.2-12.9C70.2-12.9,70.2-12.9,70.2-12.9L70.2-12.9z"/>
				</g>
				<g>
					<path d="M70-12.4c0,0.1-0.1,0.1-0.1,0.1C69.9-12.3,69.9-12.3,70-12.4z"/>
				</g>
			</g>
		</g>
	</g>
</g>
<g id="Livello_2">
</g>
</svg>
