<?xml version="1.0" encoding="UTF-8"?>
<!--Generator: Apple Native CoreSVG 123-->
<!DOCTYPE svg
PUBLIC "-//W3C//DTD SVG 1.1//EN"
       "http://www.w3.org/Graphics/SVG/1.1/DTD/svg11.dtd">
<svg version="1.1" xmlns="http://www.w3.org/2000/svg" xmlns:xlink="http://www.w3.org/1999/xlink" width="3300" height="2200">
 <!--glyph: "uni100396.medium", point size: 100.000000, font version: "Version 15.0d7e11", template writer version: "5"-->
 <g id="Notes">
  <rect height="2200" id="artboard" style="fill:white;opacity:1" width="3300" x="0" y="0"/>
  <line id="" style="fill:none;stroke:black;opacity:1;stroke-width:0.5;" x1="263" x2="3036" y1="292" y2="292"/>
  <text style="stroke:none;fill:black;font-family:-apple-system,&quot;SF Pro Display&quot;,&quot;SF Pro Text&quot;,Helvetica,sans-serif;font-weight:bold;" transform="matrix(1 0 0 1 263 322)">Weight/Scale Variations</text>
  <text style="stroke:none;fill:black;font-family:-apple-system,&quot;SF Pro Display&quot;,&quot;SF Pro Text&quot;,Helvetica,sans-serif;text-anchor:middle;" transform="matrix(1 0 0 1 559.711 322)">Ultralight</text>
  <text style="stroke:none;fill:black;font-family:-apple-system,&quot;SF Pro Display&quot;,&quot;SF Pro Text&quot;,Helvetica,sans-serif;text-anchor:middle;" transform="matrix(1 0 0 1 856.422 322)">Thin</text>
  <text style="stroke:none;fill:black;font-family:-apple-system,&quot;SF Pro Display&quot;,&quot;SF Pro Text&quot;,Helvetica,sans-serif;text-anchor:middle;" transform="matrix(1 0 0 1 1153.13 322)">Light</text>
  <text style="stroke:none;fill:black;font-family:-apple-system,&quot;SF Pro Display&quot;,&quot;SF Pro Text&quot;,Helvetica,sans-serif;text-anchor:middle;" transform="matrix(1 0 0 1 1449.84 322)">Regular</text>
  <text style="stroke:none;fill:black;font-family:-apple-system,&quot;SF Pro Display&quot;,&quot;SF Pro Text&quot;,Helvetica,sans-serif;text-anchor:middle;" transform="matrix(1 0 0 1 1746.56 322)">Medium</text>
  <text style="stroke:none;fill:black;font-family:-apple-system,&quot;SF Pro Display&quot;,&quot;SF Pro Text&quot;,Helvetica,sans-serif;text-anchor:middle;" transform="matrix(1 0 0 1 2043.27 322)">Semibold</text>
  <text style="stroke:none;fill:black;font-family:-apple-system,&quot;SF Pro Display&quot;,&quot;SF Pro Text&quot;,Helvetica,sans-serif;text-anchor:middle;" transform="matrix(1 0 0 1 2339.98 322)">Bold</text>
  <text style="stroke:none;fill:black;font-family:-apple-system,&quot;SF Pro Display&quot;,&quot;SF Pro Text&quot;,Helvetica,sans-serif;text-anchor:middle;" transform="matrix(1 0 0 1 2636.69 322)">Heavy</text>
  <text style="stroke:none;fill:black;font-family:-apple-system,&quot;SF Pro Display&quot;,&quot;SF Pro Text&quot;,Helvetica,sans-serif;text-anchor:middle;" transform="matrix(1 0 0 1 2933.4 322)">Black</text>
  <line id="" style="fill:none;stroke:black;opacity:1;stroke-width:0.5;" x1="263" x2="3036" y1="1903" y2="1903"/>
  <g id="" transform="matrix(1 0 0 1 263 1933)">
   <path d="M 9.24805 0.830078 C 13.5547 0.830078 17.1387 -2.74414 17.1387 -7.05078 C 17.1387 -11.3574 13.5449 -14.9316 9.23828 -14.9316 C 4.94141 -14.9316 1.36719 -11.3574 1.36719 -7.05078 C 1.36719 -2.74414 4.95117 0.830078 9.24805 0.830078 Z M 9.24805 -0.654297 C 5.70312 -0.654297 2.87109 -3.49609 2.87109 -7.05078 C 2.87109 -10.6055 5.69336 -13.4473 9.23828 -13.4473 C 12.793 -13.4473 15.6348 -10.6055 15.6445 -7.05078 C 15.6543 -3.49609 12.8027 -0.654297 9.24805 -0.654297 Z M 9.22852 -3.42773 C 9.69727 -3.42773 9.9707 -3.74023 9.9707 -4.25781 L 9.9707 -6.31836 L 12.1973 -6.31836 C 12.6953 -6.31836 13.0371 -6.57227 13.0371 -7.04102 C 13.0371 -7.51953 12.7148 -7.7832 12.1973 -7.7832 L 9.9707 -7.7832 L 9.9707 -10.0098 C 9.9707 -10.5273 9.69727 -10.8496 9.22852 -10.8496 C 8.75977 -10.8496 8.50586 -10.5078 8.50586 -10.0098 L 8.50586 -7.7832 L 6.29883 -7.7832 C 5.78125 -7.7832 5.44922 -7.51953 5.44922 -7.04102 C 5.44922 -6.57227 5.80078 -6.31836 6.29883 -6.31836 L 8.50586 -6.31836 L 8.50586 -4.25781 C 8.50586 -3.75977 8.75977 -3.42773 9.22852 -3.42773 Z"/>
  </g>
  <g id="" transform="matrix(1 0 0 1 281.506 1933)">
   <path d="M 11.709 2.91016 C 17.1582 2.91016 21.6699 -1.60156 21.6699 -7.05078 C 21.6699 -12.4902 17.1484 -17.0117 11.6992 -17.0117 C 6.25977 -17.0117 1.74805 -12.4902 1.74805 -7.05078 C 1.74805 -1.60156 6.26953 2.91016 11.709 2.91016 Z M 11.709 1.25 C 7.09961 1.25 3.41797 -2.44141 3.41797 -7.05078 C 3.41797 -11.6504 7.08984 -15.3516 11.6992 -15.3516 C 16.3086 -15.3516 20 -11.6504 20.0098 -7.05078 C 20.0195 -2.44141 16.3184 1.25 11.709 1.25 Z M 11.6895 -2.41211 C 12.207 -2.41211 12.5195 -2.77344 12.5195 -3.33984 L 12.5195 -6.23047 L 15.5762 -6.23047 C 16.123 -6.23047 16.5039 -6.51367 16.5039 -7.03125 C 16.5039 -7.55859 16.1426 -7.86133 15.5762 -7.86133 L 12.5195 -7.86133 L 12.5195 -10.9277 C 12.5195 -11.5039 12.207 -11.8555 11.6895 -11.8555 C 11.1719 -11.8555 10.8789 -11.4844 10.8789 -10.9277 L 10.8789 -7.86133 L 7.83203 -7.86133 C 7.26562 -7.86133 6.89453 -7.55859 6.89453 -7.03125 C 6.89453 -6.51367 7.28516 -6.23047 7.83203 -6.23047 L 10.8789 -6.23047 L 10.8789 -3.33984 C 10.8789 -2.79297 11.1719 -2.41211 11.6895 -2.41211 Z"/>
  </g>
  <g id="" transform="matrix(1 0 0 1 304.924 1933)">
   <path d="M 14.9707 5.67383 C 21.9336 5.67383 27.6953 -0.078125 27.6953 -7.04102 C 27.6953 -14.0039 21.9238 -19.7559 14.9609 -19.7559 C 8.00781 -19.7559 2.25586 -14.0039 2.25586 -7.04102 C 2.25586 -0.078125 8.01758 5.67383 14.9707 5.67383 Z M 14.9707 3.85742 C 8.93555 3.85742 4.08203 -1.00586 4.08203 -7.04102 C 4.08203 -13.0762 8.92578 -17.9395 14.9609 -17.9395 C 21.0059 -17.9395 25.8594 -13.0762 25.8691 -7.04102 C 25.8789 -1.00586 21.0156 3.85742 14.9707 3.85742 Z M 14.9512 -1.06445 C 15.5176 -1.06445 15.8691 -1.45508 15.8691 -2.06055 L 15.8691 -6.13281 L 20.1074 -6.13281 C 20.6934 -6.13281 21.1133 -6.46484 21.1133 -7.02148 C 21.1133 -7.59766 20.7227 -7.93945 20.1074 -7.93945 L 15.8691 -7.93945 L 15.8691 -12.1875 C 15.8691 -12.8027 15.5176 -13.1934 14.9512 -13.1934 C 14.3848 -13.1934 14.0625 -12.7832 14.0625 -12.1875 L 14.0625 -7.93945 L 9.83398 -7.93945 C 9.21875 -7.93945 8.80859 -7.59766 8.80859 -7.02148 C 8.80859 -6.46484 9.23828 -6.13281 9.83398 -6.13281 L 14.0625 -6.13281 L 14.0625 -2.06055 C 14.0625 -1.47461 14.3848 -1.06445 14.9512 -1.06445 Z"/>
  </g>
  <text style="stroke:none;fill:black;font-family:-apple-system,&quot;SF Pro Display&quot;,&quot;SF Pro Text&quot;,Helvetica,sans-serif;font-weight:bold;" transform="matrix(1 0 0 1 263 1953)">Design Variations</text>
  <text style="stroke:none;fill:black;font-family:-apple-system,&quot;SF Pro Display&quot;,&quot;SF Pro Text&quot;,Helvetica,sans-serif;" transform="matrix(1 0 0 1 263 1971)">Symbols are supported in up to nine weights and three scales.</text>
  <text style="stroke:none;fill:black;font-family:-apple-system,&quot;SF Pro Display&quot;,&quot;SF Pro Text&quot;,Helvetica,sans-serif;" transform="matrix(1 0 0 1 263 1989)">For optimal layout with text and other symbols, vertically align</text>
  <text style="stroke:none;fill:black;font-family:-apple-system,&quot;SF Pro Display&quot;,&quot;SF Pro Text&quot;,Helvetica,sans-serif;" transform="matrix(1 0 0 1 263 2007)">symbols with the adjacent text.</text>
  <rect height="14" id="" style="fill:#00AEEF;stroke:none;opacity:0.4;" width="3" x="776" y="1919"/>
  <g id="" transform="matrix(1 0 0 1 779 1933)">
   <path d="M 10.5273 0 L 12.373 0 L 7.17773 -14.0918 L 5.43945 -14.0918 L 0.244141 0 L 2.08984 0 L 3.50586 -4.0332 L 9.11133 -4.0332 Z M 6.2793 -11.9531 L 6.33789 -11.9531 L 8.59375 -5.52734 L 4.02344 -5.52734 Z"/>
  </g>
  <rect height="14" id="" style="fill:#00AEEF;stroke:none;opacity:0.4;" width="3" x="791.617" y="1919"/>
  <text style="stroke:none;fill:black;font-family:-apple-system,&quot;SF Pro Display&quot;,&quot;SF Pro Text&quot;,Helvetica,sans-serif;font-weight:bold;" transform="matrix(1 0 0 1 776 1953)">Margins</text>
  <text style="stroke:none;fill:black;font-family:-apple-system,&quot;SF Pro Display&quot;,&quot;SF Pro Text&quot;,Helvetica,sans-serif;" transform="matrix(1 0 0 1 776 1971)">Leading and trailing margins on the left and right side of each symbol</text>
  <text style="stroke:none;fill:black;font-family:-apple-system,&quot;SF Pro Display&quot;,&quot;SF Pro Text&quot;,Helvetica,sans-serif;" transform="matrix(1 0 0 1 776 1989)">can be adjusted by modifying the width of the blue rectangles.</text>
  <text style="stroke:none;fill:black;font-family:-apple-system,&quot;SF Pro Display&quot;,&quot;SF Pro Text&quot;,Helvetica,sans-serif;" transform="matrix(1 0 0 1 776 2007)">Modifications are automatically applied proportionally to all</text>
  <text style="stroke:none;fill:black;font-family:-apple-system,&quot;SF Pro Display&quot;,&quot;SF Pro Text&quot;,Helvetica,sans-serif;" transform="matrix(1 0 0 1 776 2025)">scales and weights.</text>
  <g id="" transform="matrix(1 0 0 1 1289 1933)">
   <path d="M 2.83203 3.11523 L 4.375 4.6582 C 5.22461 5.48828 6.19141 5.41992 7.06055 4.46289 L 17.2754 -6.66016 C 17.7051 -6.36719 18.0957 -6.37695 18.5645 -6.47461 L 19.6094 -6.68945 L 20.3027 -5.99609 L 20.2539 -5.47852 C 20.1855 -4.95117 20.3516 -4.53125 20.8496 -4.0332 L 21.6602 -3.22266 C 22.168 -2.71484 22.8223 -2.68555 23.3008 -3.16406 L 26.5527 -6.41602 C 27.0312 -6.89453 27.0117 -7.54883 26.5039 -8.05664 L 25.6836 -8.87695 C 25.1855 -9.375 24.7754 -9.55078 24.2383 -9.47266 L 23.7109 -9.41406 L 23.0566 -10.0781 L 23.3398 -11.2207 C 23.4863 -11.7871 23.3398 -12.2559 22.7148 -12.8613 L 20.3027 -15.2539 C 16.7578 -18.7793 12.2266 -18.6719 9.11133 -15.5371 C 8.69141 -15.1074 8.64258 -14.5215 8.91602 -14.0918 C 9.15039 -13.7207 9.62891 -13.4961 10.2734 -13.6621 C 11.7871 -14.043 13.3008 -13.9258 14.7852 -12.9199 L 14.1602 -11.3379 C 13.9258 -10.752 13.9453 -10.2734 14.1797 -9.83398 L 3.01758 0.439453 C 2.08008 1.30859 1.97266 2.25586 2.83203 3.11523 Z M 10.6738 -15.1465 C 13.3398 -17.1387 16.6504 -16.8262 19.0527 -14.4141 L 21.6797 -11.8066 C 21.9141 -11.5723 21.9434 -11.3867 21.8848 -11.0938 L 21.5039 -9.53125 L 23.0762 -7.95898 L 24.043 -8.04688 C 24.3262 -8.07617 24.4141 -8.05664 24.6387 -7.83203 L 25.2637 -7.20703 L 22.5098 -4.46289 L 21.8848 -5.07812 C 21.6602 -5.30273 21.6406 -5.40039 21.6699 -5.68359 L 21.7578 -6.64062 L 20.1953 -8.20312 L 18.5742 -7.89062 C 18.291 -7.83203 18.1445 -7.83203 17.9102 -8.07617 L 15.7324 -10.2539 C 15.5078 -10.4883 15.4785 -10.625 15.6055 -10.9473 L 16.5527 -13.2227 C 14.9512 -14.7559 12.8418 -15.6055 10.8008 -14.9512 C 10.7129 -14.9219 10.6445 -14.9414 10.6152 -14.9805 C 10.5859 -15.0293 10.5859 -15.0781 10.6738 -15.1465 Z M 4.10156 2.41211 C 3.61328 1.91406 3.78906 1.61133 4.12109 1.30859 L 15.0781 -8.80859 L 16.3086 -7.57812 L 6.15234 3.34961 C 5.84961 3.68164 5.46875 3.7793 5.06836 3.37891 Z"/>
  </g>
  <text style="stroke:none;fill:black;font-family:-apple-system,&quot;SF Pro Display&quot;,&quot;SF Pro Text&quot;,Helvetica,sans-serif;font-weight:bold;" transform="matrix(1 0 0 1 1289 1953)">Exporting</text>
  <text style="stroke:none;fill:black;font-family:-apple-system,&quot;SF Pro Display&quot;,&quot;SF Pro Text&quot;,Helvetica,sans-serif;" transform="matrix(1 0 0 1 1289 1971)">Symbols should be outlined when exporting to ensure the</text>
  <text style="stroke:none;fill:black;font-family:-apple-system,&quot;SF Pro Display&quot;,&quot;SF Pro Text&quot;,Helvetica,sans-serif;" transform="matrix(1 0 0 1 1289 1989)">design is preserved when submitting to Xcode.</text>
  <text id="template-version" style="stroke:none;fill:black;font-family:-apple-system,&quot;SF Pro Display&quot;,&quot;SF Pro Text&quot;,Helvetica,sans-serif;text-anchor:end;" transform="matrix(1 0 0 1 3036 1933)">Template v.1.0</text>
  <text style="stroke:none;fill:black;font-family:-apple-system,&quot;SF Pro Display&quot;,&quot;SF Pro Text&quot;,Helvetica,sans-serif;text-anchor:end;" transform="matrix(1 0 0 1 3036 1951)">Generated from wrench.fill</text>
  <text style="stroke:none;fill:black;font-family:-apple-system,&quot;SF Pro Display&quot;,&quot;SF Pro Text&quot;,Helvetica,sans-serif;text-anchor:end;" transform="matrix(1 0 0 1 3036 1969)">Typeset at 100 points</text>
  <text style="stroke:none;fill:black;font-family:-apple-system,&quot;SF Pro Display&quot;,&quot;SF Pro Text&quot;,Helvetica,sans-serif;" transform="matrix(1 0 0 1 263 726)">Small</text>
  <text style="stroke:none;fill:black;font-family:-apple-system,&quot;SF Pro Display&quot;,&quot;SF Pro Text&quot;,Helvetica,sans-serif;" transform="matrix(1 0 0 1 263 1156)">Medium</text>
  <text style="stroke:none;fill:black;font-family:-apple-system,&quot;SF Pro Display&quot;,&quot;SF Pro Text&quot;,Helvetica,sans-serif;" transform="matrix(1 0 0 1 263 1586)">Large</text>
 </g>
 <g id="Guides">
  <g id="H-reference" style="fill:#27AAE1;stroke:none;" transform="matrix(1 0 0 1 339 696)">
   <path d="M 54.9316 0 L 57.666 0 L 30.5664 -70.459 L 28.0762 -70.459 L 0.976562 0 L 3.66211 0 L 12.9395 -24.4629 L 45.7031 -24.4629 Z M 29.1992 -67.0898 L 29.4434 -67.0898 L 44.8242 -26.709 L 13.8184 -26.709 Z"/>
  </g>
  <line id="Baseline-S" style="fill:none;stroke:#27AAE1;opacity:1;stroke-width:0.577;" x1="263" x2="3036" y1="696" y2="696"/>
  <line id="Capline-S" style="fill:none;stroke:#27AAE1;opacity:1;stroke-width:0.577;" x1="263" x2="3036" y1="625.541" y2="625.541"/>
  <g id="H-reference" style="fill:#27AAE1;stroke:none;" transform="matrix(1 0 0 1 339 1126)">
   <path d="M 54.9316 0 L 57.666 0 L 30.5664 -70.459 L 28.0762 -70.459 L 0.976562 0 L 3.66211 0 L 12.9395 -24.4629 L 45.7031 -24.4629 Z M 29.1992 -67.0898 L 29.4434 -67.0898 L 44.8242 -26.709 L 13.8184 -26.709 Z"/>
  </g>
  <line id="Baseline-M" style="fill:none;stroke:#27AAE1;opacity:1;stroke-width:0.577;" x1="263" x2="3036" y1="1126" y2="1126"/>
  <line id="Capline-M" style="fill:none;stroke:#27AAE1;opacity:1;stroke-width:0.577;" x1="263" x2="3036" y1="1055.54" y2="1055.54"/>
  <g id="H-reference" style="fill:#27AAE1;stroke:none;" transform="matrix(1 0 0 1 339 1556)">
   <path d="M 54.9316 0 L 57.666 0 L 30.5664 -70.459 L 28.0762 -70.459 L 0.976562 0 L 3.66211 0 L 12.9395 -24.4629 L 45.7031 -24.4629 Z M 29.1992 -67.0898 L 29.4434 -67.0898 L 44.8242 -26.709 L 13.8184 -26.709 Z"/>
  </g>
  <line id="Baseline-L" style="fill:none;stroke:#27AAE1;opacity:1;stroke-width:0.577;" x1="263" x2="3036" y1="1556" y2="1556"/>
  <line id="Capline-L" style="fill:none;stroke:#27AAE1;opacity:1;stroke-width:0.577;" x1="263" x2="3036" y1="1485.54" y2="1485.54"/>
  <rect height="119.336" id="left-margin" style="fill:#00AEEF;stroke:none;opacity:0.4;" width="11.2727" x="1381.36" y="1030.79"/>
  <rect height="119.336" id="right-margin" style="fill:#00AEEF;stroke:none;opacity:0.4;" width="11.2958" x="1507.03" y="1030.79"/>
 </g>
 <g id="Symbols">
  <g id="Black-L" transform="matrix(1 0 0 1 2838.72 1556)">
   <path d="M 23.4863 39.4043 C 35.9375 51.8066 53.3691 51.2207 66.6016 37.9395 C 79.0039 25.3906 94.4336 -3.41797 112.158 -21.1426 C 122.168 -31.1523 133.936 -25.1465 149.414 -31.3965 L 138.379 -72.2656 C 137.207 -76.6113 139.258 -80.2246 143.75 -81.543 L 170.312 -89.4043 C 169.238 -93.3105 166.748 -98.9258 162.549 -103.223 C 146.094 -119.971 118.555 -120.557 101.953 -104.736 C 77.7832 -81.7383 94.1895 -59.7168 82.6172 -48.2422 C 65.2832 -30.957 38.6719 -17.627 24.8535 -3.71094 C 11.5723 9.57031 10.9863 27.002 23.4863 39.4043 Z M 159.229 -36.8652 C 161.426 -38.5254 163.428 -40.4297 165.332 -42.5293 C 173.242 -51.2207 176.807 -63.623 173.828 -74.9512 L 154.492 -69.2871 C 153.027 -68.7988 151.904 -68.7012 150.684 -68.7988 Z M 107.715 -61.6211 C 106.25 -61.1816 104.932 -62.0117 104.541 -63.4277 C 104.199 -64.6973 105.029 -66.1133 106.348 -66.4551 L 120.459 -70.2148 C 121.68 -70.5566 122.949 -69.7754 123.438 -68.457 C 123.975 -67.041 123.047 -65.6738 121.68 -65.332 Z M 109.473 -54.4922 C 108.008 -54.1016 106.787 -54.8828 106.348 -56.3477 C 105.957 -57.6172 106.787 -58.9844 108.105 -59.3262 L 122.217 -63.0859 C 123.438 -63.4277 124.756 -62.6953 125.146 -61.3281 C 125.635 -59.8633 124.756 -58.5449 123.438 -58.2031 Z M 111.23 -47.3633 C 109.912 -47.0215 108.398 -47.8027 108.105 -49.2188 C 107.861 -50.5859 108.643 -51.9043 109.912 -52.2461 L 124.023 -55.957 C 125.439 -56.3477 126.709 -55.5664 127.1 -54.2969 C 127.539 -52.9297 126.611 -51.5625 125.342 -51.2695 Z M 38.1836 24.7559 C 34.5703 21.0938 34.6191 15.2344 38.1348 11.5723 C 41.6504 7.91016 47.6562 8.10547 51.3184 11.5723 C 55.0781 15.1367 54.7852 21.0938 51.2207 24.7559 C 47.8516 28.2715 41.6992 28.2715 38.1836 24.7559 Z"/>
  </g>
  <g id="Heavy-L" transform="matrix(1 0 0 1 2543.62 1556)">
   <path d="M 23.0957 38.4766 C 35.0098 50.3418 51.6113 49.7559 64.3555 37.0117 C 76.1719 25.1465 92.0898 -4.15039 109.57 -21.6309 C 119.824 -31.8848 131.543 -25.8301 146.289 -31.7871 L 135.303 -72.2168 C 134.082 -76.6602 136.084 -80.4199 140.869 -81.8359 L 166.65 -89.2578 C 165.625 -92.7246 163.281 -97.6562 159.521 -101.514 C 143.555 -117.725 116.943 -118.311 100.879 -103.027 C 77.5391 -80.7617 93.8477 -59.0332 81.6406 -46.8262 C 64.3555 -29.6387 38.0371 -16.5039 24.4629 -2.83203 C 11.7188 9.96094 11.1328 26.5625 23.0957 38.4766 Z M 155.225 -36.5723 C 157.52 -38.1836 159.668 -40.1855 161.816 -42.3828 C 169.678 -50.6348 173.291 -62.5977 170.752 -72.998 L 151.367 -67.3828 C 149.707 -66.9434 148.389 -66.7969 147.021 -66.9922 Z M 105.908 -61.1816 C 104.492 -60.791 103.223 -61.5723 102.832 -62.9883 C 102.49 -64.209 103.271 -65.5762 104.59 -65.918 L 118.75 -69.7266 C 119.971 -70.0195 121.191 -69.2871 121.68 -67.9688 C 122.217 -66.6016 121.289 -65.2344 119.971 -64.8926 Z M 107.715 -54.0039 C 106.25 -53.6133 105.078 -54.3457 104.639 -55.8105 C 104.248 -57.0312 105.029 -58.3984 106.348 -58.7402 L 120.557 -62.5 C 121.729 -62.8418 123.047 -62.1094 123.438 -60.791 C 123.877 -59.3262 123.047 -58.0566 121.729 -57.7148 Z M 109.473 -46.8262 C 108.154 -46.4844 106.689 -47.2168 106.445 -48.6328 C 106.152 -49.9512 106.934 -51.2207 108.203 -51.5625 L 122.363 -55.3223 C 123.73 -55.6641 125 -54.9316 125.342 -53.6621 C 125.732 -52.3438 124.854 -51.0254 123.633 -50.6836 Z M 36.5234 25.0977 C 32.7148 21.2891 32.7148 15.0391 36.4258 11.1816 C 40.1367 7.32422 46.4844 7.4707 50.3906 11.1816 C 54.3457 14.9414 54.0039 21.1914 50.293 25.0977 C 46.7285 28.8574 40.2344 28.8086 36.5234 25.0977 Z"/>
  </g>
  <g id="Bold-L" transform="matrix(1 0 0 1 2248.74 1556)">
   <path d="M 22.6562 37.4023 C 33.9844 48.6816 49.707 48.0957 61.8652 35.9375 C 72.9492 24.8047 89.4043 -4.93164 106.641 -22.1191 C 117.139 -32.666 128.857 -26.6113 142.773 -32.2266 L 131.836 -72.1191 C 130.615 -76.7578 132.471 -80.6641 137.695 -82.1289 L 162.5 -89.1113 C 161.572 -92.0898 159.375 -96.2402 156.104 -99.6094 C 140.723 -115.283 115.088 -115.723 99.707 -101.074 C 77.2461 -79.6875 93.5059 -58.252 80.5176 -45.3125 C 63.3301 -28.1738 37.3535 -15.2832 24.0234 -1.85547 C 11.8652 10.3516 11.2793 26.0254 22.6562 37.4023 Z M 150.732 -36.2793 C 153.125 -37.8418 155.518 -39.8438 157.91 -42.2363 C 165.625 -50.0488 169.385 -61.377 167.285 -70.8496 L 147.852 -65.332 C 145.996 -64.7949 144.531 -64.6973 142.969 -64.9414 Z M 103.906 -60.7422 C 102.539 -60.3516 101.318 -61.0352 100.928 -62.4512 C 100.586 -63.623 101.367 -64.9902 102.637 -65.332 L 116.895 -69.1406 C 118.066 -69.4336 119.287 -68.75 119.727 -67.4316 C 120.215 -66.0645 119.336 -64.7949 118.018 -64.4531 Z M 105.713 -53.4668 C 104.346 -53.0762 103.174 -53.8086 102.734 -55.2246 C 102.344 -56.3477 103.125 -57.7148 104.395 -58.0566 L 118.652 -61.8652 C 119.824 -62.1582 121.094 -61.4746 121.484 -60.2051 C 121.924 -58.7891 121.094 -57.5195 119.824 -57.1777 Z M 107.471 -46.1914 C 106.201 -45.8496 104.834 -46.5332 104.541 -47.9492 C 104.248 -49.2188 104.98 -50.4395 106.25 -50.7812 L 120.459 -54.541 C 121.826 -54.9316 123.047 -54.1992 123.389 -52.9785 C 123.73 -51.6602 122.9 -50.3906 121.729 -50.0488 Z M 34.6191 25.4883 C 30.6152 21.4355 30.6152 14.7949 34.5215 10.7422 C 38.4766 6.64062 45.2148 6.78711 49.3164 10.6934 C 53.5156 14.6973 53.1738 21.3379 49.2676 25.4883 C 45.5078 29.4434 38.5742 29.3945 34.6191 25.4883 Z"/>
  </g>
  <g id="Semibold-L" transform="matrix(1 0 0 1 1953.28 1556)">
   <path d="M 22.3633 36.6699 C 33.252 47.5586 48.3887 46.9727 60.1074 35.2051 C 70.752 24.6094 87.5488 -5.46875 104.59 -22.4609 C 115.332 -33.2031 127.002 -27.1973 140.381 -32.5195 L 129.492 -72.0703 C 128.174 -76.8066 130.029 -80.8105 135.498 -82.3242 L 159.668 -89.0137 C 158.789 -91.6504 156.689 -95.2637 153.76 -98.291 C 138.77 -113.574 113.818 -113.965 98.877 -99.7559 C 77.0508 -78.9551 93.2129 -57.7148 79.7363 -44.2383 C 62.6465 -27.1484 36.8652 -14.4531 23.7305 -1.17188 C 11.9629 10.6445 11.377 25.6836 22.3633 36.6699 Z M 147.656 -36.084 C 150.146 -37.5977 152.637 -39.6484 155.176 -42.1387 C 162.842 -49.6094 166.699 -60.5469 164.941 -69.3359 L 145.41 -63.8672 C 143.457 -63.3301 141.846 -63.2324 140.137 -63.5254 Z M 102.539 -60.4004 C 101.172 -60.0586 100 -60.7422 99.6094 -62.1094 C 99.2676 -63.2324 100 -64.5508 101.27 -64.8926 L 115.576 -68.75 C 116.748 -69.043 117.969 -68.3594 118.359 -67.0898 C 118.799 -65.7227 117.969 -64.502 116.699 -64.1602 Z M 104.346 -53.0762 C 102.979 -52.7344 101.855 -53.418 101.416 -54.7852 C 101.025 -55.9082 101.807 -57.2266 103.076 -57.5684 L 117.334 -61.4258 C 118.506 -61.7188 119.775 -61.0352 120.166 -59.7656 C 120.557 -58.3984 119.775 -57.1777 118.506 -56.8359 Z M 106.104 -45.752 C 104.834 -45.4102 103.516 -46.0938 103.223 -47.4609 C 102.93 -48.7305 103.662 -49.9023 104.932 -50.2441 L 119.189 -54.0527 C 120.508 -54.4434 121.729 -53.7109 122.021 -52.4902 C 122.363 -51.2207 121.582 -49.9512 120.41 -49.6094 Z M 33.3496 25.7324 C 29.1504 21.582 29.1504 14.6484 33.252 10.4004 C 37.3535 6.20117 44.2871 6.34766 48.584 10.4004 C 52.9297 14.502 52.5879 21.3867 48.5352 25.7324 C 44.6289 29.8828 37.4512 29.834 33.3496 25.7324 Z"/>
  </g>
  <g id="Medium-L" transform="matrix(1 0 0 1 1657.52 1556)">
   <path d="M 22.1191 36.084 C 32.7148 46.6797 47.3633 46.1426 58.8379 34.668 C 69.0918 24.4141 86.1816 -5.85938 103.076 -22.7539 C 113.965 -33.6426 125.586 -27.5879 138.525 -32.7148 L 127.686 -72.0703 C 126.367 -76.8555 128.174 -80.9082 133.789 -82.4707 L 157.52 -88.916 C 156.689 -91.3086 154.639 -94.5312 151.953 -97.3145 C 137.305 -112.256 112.891 -112.646 98.2422 -98.7305 C 76.9043 -78.418 93.0176 -57.3242 79.1504 -43.4082 C 62.0605 -26.3672 36.5234 -13.8184 23.4863 -0.634766 C 12.0605 10.8887 11.4258 25.4395 22.1191 36.084 Z M 101.465 -60.1562 C 100.146 -59.8145 99.0234 -60.4492 98.584 -61.8652 C 98.2422 -62.9395 98.9746 -64.2578 100.244 -64.5996 L 114.6 -68.457 C 115.723 -68.75 116.992 -68.0664 117.334 -66.7969 C 117.773 -65.4785 116.943 -64.2578 115.723 -63.916 Z M 145.312 -35.9375 C 147.852 -37.4512 150.439 -39.4531 153.125 -42.041 C 160.742 -49.2676 164.648 -59.9121 163.135 -68.1641 L 143.604 -62.793 C 141.504 -62.207 139.795 -62.1582 137.988 -62.4512 Z M 103.271 -52.7832 C 101.953 -52.4414 100.83 -53.0762 100.391 -54.4922 C 100.049 -55.5664 100.781 -56.8848 102.051 -57.2266 L 116.357 -61.084 C 117.529 -61.377 118.799 -60.6934 119.141 -59.4238 C 119.531 -58.1055 118.75 -56.8848 117.48 -56.543 Z M 105.078 -45.4102 C 103.809 -45.0684 102.539 -45.752 102.246 -47.1191 C 101.953 -48.3398 102.637 -49.5117 103.906 -49.8535 L 118.164 -53.6621 C 119.482 -54.0527 120.703 -53.3203 120.996 -52.1484 C 121.338 -50.8789 120.557 -49.6094 119.385 -49.3164 Z M 32.3242 25.9277 C 28.0762 21.6309 28.0273 14.5508 32.2266 10.1562 C 36.4746 5.85938 43.6035 5.95703 48.0469 10.1562 C 52.5391 14.4043 52.1973 21.4355 47.998 25.9277 C 43.9453 30.2246 36.5723 30.127 32.3242 25.9277 Z"/>
  </g>
  <g id="Regular-L" transform="matrix(1 0 0 1 1362.05 1556)">
   <path d="M 21.8262 35.3516 C 32.0312 45.5566 46.0449 45.0195 57.1289 33.9844 C 66.9434 24.2188 84.375 -6.39648 101.074 -23.0957 C 112.109 -34.1797 123.779 -28.125 136.133 -33.0566 L 125.342 -72.0215 C 123.975 -76.9043 125.732 -81.0547 131.641 -82.666 L 154.736 -88.8184 C 153.906 -90.8691 152.002 -93.6035 149.658 -95.9961 C 135.352 -110.596 111.621 -110.889 97.4609 -97.4121 C 76.709 -77.6855 92.7734 -56.7871 78.418 -42.3828 C 61.377 -25.3418 36.0352 -12.9883 23.1934 0 C 12.1582 11.1328 11.5234 25.0977 21.8262 35.3516 Z M 100.098 -59.8145 C 98.8281 -59.4727 97.7051 -60.1074 97.2656 -61.5234 C 96.9727 -62.5488 97.6562 -63.8184 98.9258 -64.1602 L 113.281 -68.0664 C 114.404 -68.3594 115.674 -67.6758 116.016 -66.4551 C 116.406 -65.1367 115.625 -63.9648 114.404 -63.623 Z M 142.285 -35.7422 C 144.873 -37.207 147.607 -39.2578 150.439 -41.9434 C 158.008 -48.877 161.963 -59.1309 160.791 -66.6992 L 141.211 -61.377 C 139.014 -60.791 137.158 -60.6934 135.254 -61.084 Z M 101.904 -52.3926 C 100.635 -52.0508 99.5117 -52.6855 99.0723 -54.1016 C 98.7793 -55.127 99.4629 -56.3965 100.732 -56.7383 L 115.088 -60.6445 C 116.211 -60.9375 117.48 -60.2539 117.822 -59.0332 C 118.213 -57.7148 117.432 -56.543 116.211 -56.2012 Z M 103.711 -44.9707 C 102.49 -44.6289 101.221 -45.3125 100.928 -46.6797 C 100.684 -47.8516 101.318 -48.9746 102.588 -49.3164 L 116.895 -53.1738 C 118.164 -53.5645 119.385 -52.832 119.678 -51.6602 C 119.971 -50.4395 119.238 -49.1699 118.115 -48.877 Z M 31.0547 26.1719 C 26.6602 21.7773 26.6113 14.3555 30.957 9.86328 C 35.3516 5.37109 42.7246 5.51758 47.3145 9.86328 C 51.9531 14.209 51.6113 21.5332 47.2656 26.2207 C 43.1152 30.6641 35.4492 30.5664 31.0547 26.1719 Z"/>
  </g>
  <g id="Light-L" transform="matrix(1 0 0 1 1066.05 1556)">
   <path d="M 21.582 34.5215 C 31.4941 44.4336 45.0684 43.8477 55.8594 33.1055 C 66.7969 22.2656 82.4707 -6.64062 99.8047 -23.9746 C 111.182 -35.3516 122.363 -28.8574 135.156 -33.7891 L 124.219 -72.6074 C 122.803 -77.5391 124.268 -81.9336 130.518 -83.6426 L 152.93 -89.6484 C 152.051 -91.4551 150.439 -93.75 148.389 -95.8008 C 134.424 -109.912 111.133 -110.4 97.2168 -97.2168 C 76.8066 -77.6855 93.0664 -57.0312 77.832 -41.8457 C 61.3281 -25.293 35.7422 -12.6953 22.9492 0.195312 C 12.207 11.0352 11.6211 24.5117 21.582 34.5215 Z M 99.8047 -60.2539 C 98.6816 -59.9609 97.7051 -60.498 97.3145 -61.7188 C 97.0215 -62.6465 97.6562 -63.8184 98.7793 -64.1113 L 112.695 -67.8711 C 113.721 -68.1152 114.795 -67.5293 115.088 -66.4062 C 115.43 -65.332 114.795 -64.2578 113.672 -63.916 Z M 140.137 -36.0352 C 143.018 -37.5488 145.996 -39.7461 149.17 -42.7734 C 156.201 -49.3652 160.01 -58.8867 159.424 -66.2598 L 139.209 -60.791 C 136.914 -60.1562 135.01 -60.2051 133.203 -60.6445 Z M 101.562 -52.9297 C 100.391 -52.6367 99.4141 -53.2227 99.0723 -54.3945 C 98.7305 -55.3711 99.3652 -56.4941 100.488 -56.7871 L 114.404 -60.5469 C 115.479 -60.8398 116.553 -60.2539 116.846 -59.1309 C 117.188 -58.0078 116.504 -56.9336 115.43 -56.6406 Z M 103.271 -45.6543 C 102.148 -45.3613 101.074 -45.9473 100.83 -47.1191 C 100.537 -48.1934 101.172 -49.2188 102.246 -49.5117 L 116.162 -53.2227 C 117.285 -53.5645 118.311 -52.9297 118.604 -51.8555 C 118.896 -50.8301 118.262 -49.707 117.188 -49.4141 Z M 29.9805 26.2207 C 25.293 21.6309 25.293 13.916 29.834 9.17969 C 34.375 4.49219 42.0898 4.54102 46.9238 9.13086 C 51.709 13.6719 51.4648 21.3379 46.9238 26.2207 C 42.5293 30.8594 34.5703 30.7617 29.9805 26.2207 Z"/>
  </g>
  <g id="Thin-L" transform="matrix(1 0 0 1 770.314 1556)">
   <path d="M 21.2891 33.3984 C 30.8105 42.9199 43.75 42.334 54.1992 31.9336 C 66.6016 19.6777 80.0293 -6.98242 98.1445 -25.0977 C 109.912 -36.8652 120.557 -29.7852 133.887 -34.8145 L 122.705 -73.4375 C 121.24 -78.3691 122.412 -83.1543 129.102 -84.9609 L 150.586 -90.7227 C 149.658 -92.2363 148.34 -93.9453 146.729 -95.5566 C 133.252 -109.082 110.498 -109.766 96.9727 -96.875 C 76.9043 -77.7344 93.4082 -57.373 77.1484 -41.1133 C 61.2793 -25.2441 35.4004 -12.3047 22.6562 0.439453 C 12.2559 10.8398 11.7188 23.7793 21.2891 33.3984 Z M 99.4141 -60.791 C 98.4863 -60.5469 97.6074 -61.0352 97.3633 -61.9629 C 97.1191 -62.793 97.6074 -63.7695 98.5352 -64.0137 L 111.914 -67.5781 C 112.793 -67.8223 113.672 -67.334 113.916 -66.4062 C 114.209 -65.5273 113.672 -64.5996 112.744 -64.3555 Z M 137.354 -36.377 C 140.576 -37.9883 143.945 -40.3809 147.51 -43.8965 C 153.809 -50 157.471 -58.5449 157.666 -65.6738 L 136.572 -60.0098 C 134.131 -59.375 132.129 -59.4727 130.518 -60.0098 Z M 101.025 -53.6621 C 100.098 -53.418 99.2676 -53.9062 98.9746 -54.834 C 98.7305 -55.7129 99.2676 -56.6406 100.195 -56.8848 L 113.525 -60.4492 C 114.453 -60.6934 115.332 -60.2051 115.576 -59.2773 C 115.82 -58.3984 115.283 -57.4707 114.355 -57.2266 Z M 102.686 -46.5332 C 101.758 -46.2891 100.879 -46.7773 100.635 -47.7539 C 100.391 -48.584 100.879 -49.5117 101.807 -49.7559 L 115.186 -53.3203 C 116.113 -53.6133 116.943 -53.0762 117.188 -52.1484 C 117.432 -51.3184 116.943 -50.3906 116.016 -50.0977 Z M 28.5156 26.3184 C 23.5352 21.4844 23.5352 13.2812 28.3691 8.25195 C 33.1055 3.32031 41.3086 3.27148 46.4355 8.1543 C 51.3672 12.9395 51.3184 21.0449 46.4355 26.2207 C 41.748 31.1523 33.3984 31.1035 28.5156 26.3184 Z"/>
  </g>
  <g id="Ultralight-L" transform="matrix(1 0 0 1 474.091 1556)">
   <path d="M 21.1426 32.8125 C 30.4688 42.1387 43.0664 41.5527 53.3691 31.3477 C 66.5039 18.3594 78.7598 -7.12891 97.2656 -25.6348 C 109.277 -37.6465 119.58 -30.2734 133.252 -35.3516 L 121.924 -73.8281 C 120.459 -78.8086 121.436 -83.7402 128.369 -85.5957 L 149.365 -91.2598 C 148.389 -92.627 147.266 -94.043 145.85 -95.459 C 132.617 -108.643 110.156 -109.424 96.8262 -96.7285 C 76.9531 -77.7344 93.6035 -57.5684 76.7578 -40.7227 C 61.2305 -25.1953 35.2051 -12.1094 22.5098 0.585938 C 12.3047 10.791 11.7676 23.4375 21.1426 32.8125 Z M 99.2188 -61.0352 C 98.3887 -60.8398 97.6074 -61.2793 97.3633 -62.1094 C 97.168 -62.8906 97.6074 -63.7207 98.4375 -63.9648 L 111.475 -67.4316 C 112.354 -67.6758 113.086 -67.2363 113.33 -66.4062 C 113.525 -65.625 113.086 -64.7949 112.256 -64.5508 Z M 135.938 -36.5723 C 139.307 -38.1836 142.871 -40.7227 146.68 -44.4824 C 152.588 -50.293 156.152 -58.3496 156.787 -65.3809 L 135.254 -59.6191 C 132.715 -58.9355 130.664 -59.1309 129.102 -59.7168 Z M 100.781 -54.0039 C 99.9512 -53.8086 99.1699 -54.248 98.9746 -55.0781 C 98.7305 -55.8594 99.1699 -56.6895 100.049 -56.9336 L 113.086 -60.4004 C 113.916 -60.6445 114.697 -60.2051 114.893 -59.375 C 115.137 -58.5938 114.697 -57.7637 113.818 -57.5195 Z M 102.393 -46.9727 C 101.514 -46.7773 100.781 -47.2168 100.537 -48.0469 C 100.293 -48.7793 100.781 -49.6582 101.611 -49.9023 L 114.648 -53.3691 C 115.479 -53.6133 116.26 -53.1738 116.504 -52.2949 C 116.699 -51.5625 116.26 -50.7324 115.43 -50.4883 Z M 27.7832 26.3672 C 22.6074 21.3867 22.6562 12.9883 27.5879 7.76367 C 32.4707 2.73438 40.8691 2.63672 46.1914 7.66602 C 51.2207 12.5488 51.2695 20.8496 46.1914 26.2695 C 41.3574 31.2988 32.8125 31.25 27.7832 26.3672 Z"/>
  </g>
  <g id="Black-M" transform="matrix(1 0 0 1 2858.2 1126)">
   <path d="M 18.6035 23.4375 C 28.8086 33.5938 43.1641 33.1543 53.9551 22.2656 C 64.9902 11.1328 75.3906 -9.76562 89.7949 -24.1699 C 97.3633 -31.7383 106.25 -26.8555 119.531 -32.1289 L 110.791 -64.3555 C 109.912 -67.5781 111.475 -70.3125 114.697 -71.2891 L 135.986 -77.832 C 135.059 -81.3477 133.057 -86.377 129.395 -90.0879 C 116.162 -103.516 93.8477 -104.15 80.3223 -91.2598 C 60.6445 -72.5586 73.584 -55.2734 65.0879 -46.875 C 51.8066 -33.6426 30.6641 -22.9004 19.6777 -11.9141 C 8.83789 -1.07422 8.39844 13.3301 18.6035 23.4375 Z M 127.686 -36.9629 C 129.346 -38.3789 130.859 -39.9414 132.227 -41.5527 C 138.184 -48.6328 140.723 -58.5449 138.135 -68.4082 L 122.9 -63.8184 C 121.924 -63.4766 121.24 -63.4277 120.605 -63.4766 Z M 85.7422 -56.4453 C 84.6191 -56.1523 83.5449 -56.7871 83.3008 -57.8125 C 83.0566 -58.8379 83.6914 -59.8633 84.668 -60.1074 L 95.3125 -62.9395 C 96.2402 -63.1836 97.1191 -62.5977 97.5586 -61.6211 C 97.998 -60.5469 97.2656 -59.5215 96.2402 -59.2285 Z M 87.0605 -51.123 C 85.9375 -50.7812 85.0098 -51.416 84.668 -52.4902 C 84.375 -53.4668 85.0098 -54.541 85.9863 -54.7852 L 96.6309 -57.5684 C 97.5586 -57.8125 98.4863 -57.2754 98.7793 -56.25 C 99.1699 -55.127 98.5352 -54.1504 97.5586 -53.9062 Z M 88.3789 -45.752 C 87.3535 -45.5078 86.1816 -46.0938 85.9863 -47.1191 C 85.791 -48.1934 86.4258 -49.1699 87.3535 -49.4141 L 97.998 -52.2461 C 99.0723 -52.4902 100 -51.9043 100.293 -50.9766 C 100.684 -49.9023 99.9023 -48.9258 98.9746 -48.6816 Z M 31.2988 10.8398 C 28.6133 8.1543 28.7109 3.85742 31.25 1.2207 C 33.7891 -1.46484 38.1836 -1.31836 40.8203 1.2207 C 43.5547 3.80859 43.4082 8.1543 40.7715 10.8398 C 38.2812 13.3789 33.8379 13.3789 31.2988 10.8398 Z"/>
  </g>
  <g id="Heavy-M" transform="matrix(1 0 0 1 2563.08 1126)">
   <path d="M 18.2617 22.6074 C 27.9297 32.2754 41.5039 31.8359 51.8555 21.4844 C 61.9141 11.3281 73.291 -10.4492 87.2559 -24.4141 C 95.0195 -32.2266 104.004 -27.4414 116.357 -32.373 L 107.715 -64.1113 C 106.836 -67.4805 108.35 -70.3125 111.865 -71.3379 L 132.471 -77.4414 C 131.592 -80.5664 129.688 -84.9609 126.416 -88.2812 C 113.623 -101.27 92.1875 -101.807 79.1992 -89.4531 C 60.3516 -71.5332 73.1445 -54.4434 64.1602 -45.5078 C 50.8301 -32.2266 30.0781 -21.7773 19.2871 -10.9863 C 8.98438 -0.634766 8.54492 12.9883 18.2617 22.6074 Z M 123.828 -36.6211 C 125.586 -37.9395 127.197 -39.502 128.711 -41.1621 C 134.717 -47.9004 137.402 -57.4707 135.107 -66.4062 L 120.02 -61.9141 C 118.848 -61.5723 118.018 -61.5234 117.139 -61.6211 Z M 83.8867 -55.9082 C 82.7637 -55.5664 81.7383 -56.2012 81.4453 -57.2754 C 81.2012 -58.252 81.8359 -59.2773 82.8125 -59.5703 L 93.6523 -62.4023 C 94.5801 -62.6465 95.459 -62.1094 95.8984 -61.084 C 96.2891 -60.0098 95.5566 -58.9844 94.5801 -58.7402 Z M 85.2051 -50.4395 C 84.082 -50.1465 83.1543 -50.7324 82.8613 -51.8066 C 82.5195 -52.7832 83.1543 -53.8574 84.1797 -54.1016 L 94.9707 -56.9336 C 95.8984 -57.1777 96.875 -56.6406 97.168 -55.6152 C 97.5098 -54.541 96.9238 -53.5156 95.8984 -53.2715 Z M 86.5234 -44.9707 C 85.5469 -44.7266 84.375 -45.2637 84.1797 -46.3379 C 83.9844 -47.4121 84.6191 -48.3887 85.5469 -48.6328 L 96.3379 -51.4648 C 97.4121 -51.7578 98.3887 -51.1719 98.6816 -50.2441 C 99.0234 -49.1699 98.291 -48.1934 97.3633 -47.9492 Z M 29.7363 11.1816 C 26.9043 8.34961 26.9531 3.80859 29.6875 0.976562 C 32.4219 -1.85547 37.0605 -1.75781 39.8926 0.976562 C 42.8223 3.71094 42.627 8.34961 39.8438 11.1816 C 37.207 13.916 32.4707 13.916 29.7363 11.1816 Z"/>
  </g>
  <g id="Bold-M" transform="matrix(1 0 0 1 2268.15 1126)">
   <path d="M 17.8223 21.7285 C 26.9531 30.8105 39.6973 30.3711 49.5117 20.5566 C 58.4961 11.5234 70.9473 -11.2793 84.4238 -24.7559 C 92.4316 -32.7637 101.514 -28.0762 112.793 -32.6172 L 104.297 -63.8672 C 103.369 -67.334 104.883 -70.2637 108.691 -71.3867 L 128.467 -77.0508 C 127.686 -79.6875 125.879 -83.3984 123.047 -86.2793 C 110.791 -98.7793 90.332 -99.1699 77.9785 -87.4512 C 60.0586 -70.3613 72.7051 -53.5156 63.0859 -43.9941 C 49.707 -30.6152 29.3945 -20.5078 18.8965 -9.96094 C 9.13086 -0.146484 8.69141 12.5488 17.8223 21.7285 Z M 119.58 -36.2305 C 121.338 -37.4512 123.096 -39.0137 124.756 -40.7227 C 130.859 -47.0703 133.691 -56.2012 131.787 -64.1602 L 116.748 -59.8145 C 115.43 -59.4238 114.404 -59.3262 113.281 -59.4727 Z M 81.7871 -55.2734 C 80.6641 -54.9805 79.6875 -55.5176 79.3457 -56.6406 C 79.1016 -57.5684 79.7363 -58.6426 80.7129 -58.9355 L 91.748 -61.8652 C 92.6758 -62.1094 93.6523 -61.5234 93.9941 -60.498 C 94.3848 -59.4238 93.7012 -58.3984 92.6758 -58.1543 Z M 83.1543 -49.6582 C 82.0312 -49.3652 81.1035 -49.9512 80.7617 -51.0742 C 80.4688 -52.002 81.1035 -53.0762 82.1289 -53.3203 L 93.1152 -56.25 C 94.043 -56.4941 95.0684 -55.957 95.3613 -54.9316 C 95.7031 -53.8086 95.0684 -52.832 94.043 -52.5879 Z M 84.5215 -44.0918 C 83.4961 -43.7988 82.373 -44.3848 82.1777 -45.459 C 81.9824 -46.5332 82.5684 -47.4609 83.5449 -47.7539 L 94.5312 -50.6348 C 95.6055 -50.9277 96.582 -50.3418 96.8262 -49.4141 C 97.1191 -48.3887 96.4355 -47.3145 95.5078 -47.0703 Z M 28.0273 11.5723 C 25.0488 8.59375 25.0488 3.66211 27.9297 0.683594 C 30.8594 -2.34375 35.8398 -2.24609 38.8672 0.683594 C 41.9922 3.61328 41.748 8.54492 38.8184 11.5723 C 36.0352 14.5508 30.9082 14.502 28.0273 11.5723 Z"/>
  </g>
  <g id="Semibold-M" transform="matrix(1 0 0 1 1972.66 1126)">
   <path d="M 17.5781 21.0938 C 26.3184 29.7852 38.4766 29.3457 47.8516 19.9707 C 56.1035 11.6699 69.3359 -11.8164 82.4707 -24.9512 C 90.625 -33.1055 99.7559 -28.5156 110.352 -32.7637 L 101.953 -63.6719 C 100.977 -67.2852 102.49 -70.2637 106.494 -71.3867 L 125.732 -76.8066 C 125.049 -79.0527 123.291 -82.2754 120.752 -84.8633 C 108.838 -97.0215 89.0625 -97.3633 77.1484 -86.0352 C 59.8145 -69.5312 72.3633 -52.8809 62.3535 -42.9199 C 48.9746 -29.541 28.9551 -19.6777 18.6035 -9.27734 C 9.22852 0.195312 8.78906 12.3047 17.5781 21.0938 Z M 116.65 -35.9375 C 118.457 -37.1582 120.264 -38.6719 122.07 -40.4297 C 128.174 -46.4844 131.104 -55.3711 129.443 -62.5977 L 114.502 -58.3496 C 113.086 -57.959 111.914 -57.8613 110.645 -58.0566 Z M 80.3223 -54.834 C 79.248 -54.541 78.2715 -55.0781 77.9297 -56.2012 C 77.6367 -57.1289 78.2715 -58.2031 79.2969 -58.4961 L 90.4297 -61.4746 C 91.3574 -61.7188 92.3828 -61.1328 92.7246 -60.1074 C 93.0664 -59.0332 92.3828 -58.0078 91.3574 -57.7637 Z M 81.7383 -49.1699 C 80.6152 -48.877 79.6875 -49.4141 79.3457 -50.5371 C 79.0527 -51.4648 79.6875 -52.5391 80.7129 -52.7832 L 91.8457 -55.8105 C 92.7734 -56.0547 93.7988 -55.4688 94.0918 -54.4434 C 94.4336 -53.3203 93.7988 -52.3438 92.7734 -52.0996 Z M 83.1055 -43.457 C 82.0801 -43.2129 81.0059 -43.75 80.7617 -44.873 C 80.5664 -45.8984 81.1523 -46.875 82.1289 -47.1191 L 93.2617 -50.0977 C 94.3359 -50.3906 95.3125 -49.8047 95.5566 -48.8281 C 95.8496 -47.8027 95.2148 -46.7285 94.2871 -46.5332 Z M 26.8066 11.8652 C 23.7305 8.74023 23.7305 3.61328 26.7578 0.488281 C 29.7852 -2.68555 34.9609 -2.53906 38.1836 0.439453 C 41.4551 3.51562 41.1621 8.64258 38.0859 11.8652 C 35.2051 14.9414 29.8828 14.8926 26.8066 11.8652 Z"/>
  </g>
  <g id="Medium-M" transform="matrix(1 0 0 1 1676.88 1126)">
   <path d="M 17.334 20.6055 C 25.8301 29.0527 37.5 28.6133 46.6309 19.4824 C 54.3457 11.7676 68.0664 -12.207 81.0059 -25.1465 C 89.2578 -33.3984 98.4863 -28.8574 108.496 -32.9102 L 100.146 -63.5742 C 99.1699 -67.2363 100.635 -70.2637 104.834 -71.4355 L 123.682 -76.5625 C 122.998 -78.6133 121.338 -81.4453 118.994 -83.7891 C 107.373 -95.7031 88.0859 -95.9473 76.5137 -84.9609 C 59.668 -68.9453 72.1191 -52.3926 61.8164 -42.1387 C 48.3887 -28.7109 28.5645 -18.9941 18.4082 -8.74023 C 9.32617 0.439453 8.83789 12.1094 17.334 20.6055 Z M 114.404 -35.7422 C 116.26 -36.8652 118.115 -38.3789 120.02 -40.2344 C 126.123 -46.0938 129.199 -54.7363 127.686 -61.4258 L 112.793 -57.2754 C 111.279 -56.8359 110.01 -56.7383 108.643 -56.9336 Z M 79.248 -54.4922 C 78.125 -54.1992 77.1973 -54.7363 76.8555 -55.9082 C 76.5625 -56.7871 77.1973 -57.8613 78.2227 -58.1543 L 89.4531 -61.1816 C 90.3809 -61.4258 91.4062 -60.8398 91.748 -59.8145 C 92.0898 -58.7402 91.4062 -57.7148 90.3809 -57.4707 Z M 80.6641 -48.7793 C 79.541 -48.4863 78.6133 -49.0234 78.2715 -50.1465 C 77.9785 -51.0742 78.6133 -52.0996 79.6387 -52.3926 L 90.8691 -55.4199 C 91.7969 -55.6641 92.8223 -55.127 93.1152 -54.1016 C 93.457 -52.9785 92.8223 -52.002 91.7969 -51.709 Z M 82.0801 -43.0176 C 81.0547 -42.7246 79.9316 -43.3105 79.7363 -44.4336 C 79.4922 -45.459 80.0781 -46.3867 81.1035 -46.6797 L 92.2852 -49.6582 C 93.3594 -49.9512 94.3848 -49.3652 94.6289 -48.3887 C 94.873 -47.3633 94.2383 -46.2891 93.3105 -46.0938 Z M 25.9277 12.0605 C 22.7539 8.88672 22.7051 3.56445 25.8301 0.341797 C 29.0039 -2.92969 34.3262 -2.7832 37.5977 0.292969 C 41.0156 3.4668 40.6738 8.74023 37.5488 12.1094 C 34.5703 15.2832 29.0527 15.2344 25.9277 12.0605 Z"/>
  </g>
  <g id="Regular-M" transform="matrix(1 0 0 1 1381.36 1126)">
   <path d="M 17.0898 19.9707 C 25.1465 28.0273 36.2793 27.5879 45.0195 18.8965 C 52.002 11.9141 66.5039 -12.7441 79.1016 -25.3418 C 87.5 -33.7402 96.7285 -29.2969 106.104 -33.1055 L 97.8027 -63.3789 C 96.7773 -67.1387 98.291 -70.2637 102.637 -71.4355 L 120.947 -76.3184 C 120.361 -78.0273 118.75 -80.3711 116.748 -82.4219 C 105.469 -93.9941 86.8164 -94.1895 75.6836 -83.5938 C 59.4238 -68.1152 71.7773 -51.7578 61.084 -41.0645 C 47.6074 -27.6367 28.125 -18.1641 18.1152 -8.00781 C 9.42383 0.78125 8.93555 11.8164 17.0898 19.9707 Z M 77.7832 -54.0527 C 76.709 -53.7598 75.7812 -54.2969 75.4395 -55.4688 C 75.1465 -56.3477 75.7324 -57.4219 76.7578 -57.7148 L 88.1836 -60.791 C 89.1113 -61.0352 90.1855 -60.4492 90.4297 -59.4238 C 90.7715 -58.3008 90.1367 -57.3242 89.0625 -57.0312 Z M 111.475 -35.4492 C 113.379 -36.5723 115.332 -38.0371 117.334 -39.9414 C 123.486 -45.5078 126.66 -53.9062 125.391 -59.8633 L 110.596 -55.8105 C 108.936 -55.3711 107.52 -55.2734 106.006 -55.5176 Z M 79.248 -48.2422 C 78.1738 -47.9492 77.2461 -48.4863 76.8555 -49.6582 C 76.5625 -50.5371 77.1973 -51.6113 78.2227 -51.8555 L 89.5996 -54.9805 C 90.5273 -55.1758 91.6016 -54.6387 91.8945 -53.6133 C 92.2363 -52.4902 91.5527 -51.5137 90.5273 -51.2207 Z M 80.6641 -42.4316 C 79.6387 -42.1387 78.5645 -42.7246 78.3691 -43.8477 C 78.125 -44.8242 78.6621 -45.752 79.6875 -46.0449 L 91.0645 -49.0723 C 92.1387 -49.4141 93.1641 -48.8281 93.3594 -47.8027 C 93.6035 -46.8262 93.0176 -45.752 92.0898 -45.5078 Z M 24.7559 12.3535 C 21.4355 9.0332 21.3867 3.4668 24.6582 0.146484 C 27.9785 -3.27148 33.4961 -3.125 36.9141 0.0976562 C 40.4297 3.41797 40.0879 8.88672 36.8652 12.3535 C 33.7891 15.6738 28.0273 15.625 24.7559 12.3535 Z"/>
  </g>
  <g id="Light-M" transform="matrix(1 0 0 1 1085.34 1126)">
   <path d="M 16.8457 19.1895 C 24.6582 27.002 35.4004 26.5625 43.8477 18.1152 C 51.8555 10.2051 64.7949 -12.9883 77.9297 -26.123 C 86.6211 -34.7656 95.5078 -29.9316 105.225 -33.7891 L 96.7773 -63.916 C 95.7031 -67.7246 96.9727 -71.0449 101.66 -72.3145 L 119.336 -77.0508 C 118.701 -78.5645 117.285 -80.5176 115.576 -82.2754 C 104.639 -93.4082 86.377 -93.7012 75.4883 -83.3496 C 59.5215 -68.1152 72.0215 -52.002 60.5957 -40.5762 C 47.5586 -27.5879 27.8809 -17.8711 17.9199 -7.86133 C 9.47266 0.683594 8.98438 11.3281 16.8457 19.1895 Z M 77.4902 -54.4434 C 76.5625 -54.1992 75.7324 -54.6387 75.4395 -55.6641 C 75.1953 -56.4453 75.7324 -57.373 76.6113 -57.6172 L 87.5977 -60.5957 C 88.4766 -60.8398 89.3555 -60.3027 89.6484 -59.4238 C 89.8926 -58.4473 89.3555 -57.5684 88.4277 -57.3242 Z M 109.57 -35.6934 C 111.67 -36.8652 113.867 -38.5254 116.211 -40.6738 C 121.875 -45.9473 124.902 -53.6621 124.17 -59.4727 L 108.789 -55.3223 C 107.031 -54.834 105.615 -54.7852 104.15 -55.127 Z M 78.8574 -48.7305 C 77.9297 -48.4863 77.0996 -48.9258 76.8066 -49.9512 C 76.5625 -50.7324 77.0996 -51.6602 77.9785 -51.9531 L 89.0137 -54.8828 C 89.8438 -55.127 90.7715 -54.5898 91.0156 -53.7109 C 91.3086 -52.7344 90.7227 -51.8555 89.7949 -51.6113 Z M 80.2734 -43.0176 C 79.3457 -42.7734 78.418 -43.2617 78.2227 -44.2383 C 77.9785 -45.1172 78.5156 -45.9473 79.3945 -46.2402 L 90.3809 -49.1699 C 91.3086 -49.4141 92.1875 -48.9258 92.4316 -48.0469 C 92.627 -47.1191 92.0898 -46.1914 91.2598 -45.9961 Z M 23.7305 12.4023 C 20.2148 8.88672 20.2148 3.07617 23.6328 -0.488281 C 27.0996 -4.05273 32.9102 -4.00391 36.5723 -0.537109 C 40.1855 2.92969 39.9902 8.69141 36.5234 12.4023 C 33.252 15.918 27.1973 15.8203 23.7305 12.4023 Z"/>
  </g>
  <g id="Thin-M" transform="matrix(1 0 0 1 789.503 1126)">
   <path d="M 16.5527 18.2129 C 24.0234 25.6348 34.1797 25.1953 42.3828 17.0898 C 51.6602 7.91016 62.5488 -13.2324 76.416 -27.0996 C 85.4492 -36.1816 93.7988 -30.8105 104.053 -34.7168 L 95.4102 -64.6484 C 94.2871 -68.5059 95.2637 -72.1191 100.342 -73.4863 L 117.188 -77.9785 C 116.504 -79.248 115.43 -80.6641 114.062 -82.0312 C 103.516 -92.627 85.7422 -93.1152 75.1953 -83.0566 C 59.5703 -68.1641 72.3145 -52.2949 59.9121 -39.9414 C 47.5098 -27.4902 27.4902 -17.5293 17.627 -7.61719 C 9.47266 0.537109 9.0332 10.6934 16.5527 18.2129 Z M 77.0996 -54.9316 C 76.3672 -54.6875 75.6836 -55.127 75.4395 -55.9082 C 75.2441 -56.5918 75.6348 -57.3242 76.416 -57.5684 L 86.8652 -60.3516 C 87.5977 -60.5469 88.3301 -60.1562 88.5254 -59.375 C 88.7695 -58.6426 88.3301 -57.9102 87.5488 -57.7148 Z M 107.031 -36.0352 C 109.473 -37.2559 111.963 -39.1113 114.697 -41.6992 C 119.727 -46.5332 122.607 -53.3691 122.559 -58.9355 L 106.396 -54.5898 C 104.541 -54.1016 103.027 -54.1992 101.709 -54.5898 Z M 78.418 -49.3652 C 77.6367 -49.1699 76.9531 -49.5605 76.709 -50.3418 C 76.5137 -51.0254 76.9531 -51.8066 77.6855 -52.002 L 88.1836 -54.7852 C 88.916 -55.0293 89.6484 -54.5898 89.8438 -53.8574 C 90.0391 -53.125 89.5996 -52.3438 88.8672 -52.1484 Z M 79.6875 -43.7988 C 78.9551 -43.6035 78.2227 -43.9941 78.0273 -44.7754 C 77.832 -45.5078 78.2227 -46.2402 79.0039 -46.4355 L 89.4531 -49.2188 C 90.2344 -49.4629 90.918 -49.0234 91.1133 -48.291 C 91.3086 -47.5586 90.918 -46.8262 90.1855 -46.6309 Z M 22.4121 12.4512 C 18.6035 8.74023 18.6035 2.53906 22.3145 -1.31836 C 25.9277 -5.07812 32.1777 -5.12695 36.084 -1.36719 C 39.8926 2.24609 39.7949 8.44727 36.084 12.4023 C 32.5195 16.1621 26.123 16.1133 22.4121 12.4512 Z"/>
  </g>
  <g id="Ultralight-M" transform="matrix(1 0 0 1 493.232 1126)">
   <path d="M 16.4062 17.6758 C 23.6816 24.9512 33.5938 24.5117 41.6016 16.5527 C 51.5625 6.68945 61.377 -13.3789 75.6348 -27.6367 C 84.8633 -36.8652 92.9688 -31.25 103.418 -35.1562 L 94.7266 -65.0391 C 93.6035 -68.8965 94.3848 -72.6562 99.707 -74.0723 L 116.113 -78.5156 C 115.381 -79.5898 114.453 -80.7617 113.281 -81.9336 C 102.93 -92.2363 85.4492 -92.8223 75.0488 -82.9102 C 59.6191 -68.1641 72.4609 -52.4902 59.5703 -39.5996 C 47.4609 -27.4902 27.2949 -17.3828 17.4805 -7.51953 C 9.52148 0.439453 9.08203 10.3516 16.4062 17.6758 Z M 76.9043 -55.1758 C 76.2695 -54.9805 75.6348 -55.3711 75.4395 -56.0059 C 75.2441 -56.6406 75.6348 -57.3242 76.3184 -57.5195 L 86.5234 -60.2539 C 87.207 -60.4492 87.793 -60.0586 87.9883 -59.375 C 88.1836 -58.7891 87.793 -58.1055 87.1094 -57.9102 Z M 105.762 -36.2305 C 108.301 -37.4512 111.035 -39.4043 113.916 -42.2363 C 118.604 -46.8262 121.387 -53.1738 121.729 -58.6914 L 105.176 -54.248 C 103.271 -53.7598 101.709 -53.8574 100.439 -54.2969 Z M 78.1738 -49.707 C 77.4902 -49.5117 76.8555 -49.8535 76.709 -50.5371 C 76.5137 -51.1719 76.8555 -51.8555 77.5391 -52.0508 L 87.7441 -54.7852 C 88.4277 -54.9316 89.0625 -54.5898 89.209 -53.9062 C 89.4043 -53.2715 89.0625 -52.5879 88.3789 -52.4414 Z M 79.3945 -44.1895 C 78.7109 -44.043 78.125 -44.3848 77.9297 -45.0684 C 77.7344 -45.7031 78.125 -46.3867 78.8086 -46.5332 L 89.0137 -49.2676 C 89.6484 -49.4629 90.2832 -49.1211 90.4785 -48.4375 C 90.6738 -47.8027 90.2832 -47.1191 89.5996 -46.9238 Z M 21.7285 12.5 C 17.7734 8.69141 17.7734 2.24609 21.582 -1.75781 C 25.3418 -5.61523 31.7871 -5.71289 35.8398 -1.80664 C 39.6973 1.9043 39.7461 8.30078 35.8398 12.4023 C 32.1777 16.3086 25.5859 16.2109 21.7285 12.5 Z"/>
  </g>
  <g id="Black-S" transform="matrix(1 0 0 1 2874.64 696)">
   <path d="M 14.5508 10.6934 C 22.5098 18.6035 33.6914 18.2617 42.1387 9.76562 C 50.6836 1.12305 58.9355 -15.332 70.166 -26.5625 C 76.123 -32.5195 83.1055 -28.7109 93.4082 -32.8125 L 86.5723 -58.0078 C 85.8887 -60.5469 87.1094 -62.6953 89.6484 -63.4766 L 106.299 -68.5547 C 105.566 -71.2891 104.004 -75.1953 101.172 -78.0762 C 90.8203 -88.5742 73.3887 -89.0625 62.8418 -79.0039 C 47.5098 -64.4043 57.6172 -50.8789 50.9277 -44.2383 C 40.5273 -33.8867 23.9746 -25.4883 15.3809 -16.8945 C 6.93359 -8.44727 6.5918 2.7832 14.5508 10.6934 Z M 99.7559 -36.5723 C 101.074 -37.6465 102.246 -38.8672 103.32 -40.1367 C 108.008 -45.6543 110.01 -53.418 108.008 -61.084 L 96.0938 -57.4707 C 95.3125 -57.2266 94.7754 -57.1777 94.2383 -57.2266 Z M 67.041 -51.8066 C 66.1621 -51.5625 65.332 -52.0508 65.1367 -52.8809 C 64.9414 -53.6621 65.4297 -54.4922 66.2109 -54.6875 L 74.5605 -56.8848 C 75.293 -57.0801 75.9766 -56.6406 76.3184 -55.8594 C 76.6602 -55.0293 76.0742 -54.1992 75.293 -54.0039 Z M 68.0664 -47.6074 C 67.1875 -47.3633 66.4551 -47.8516 66.2109 -48.6816 C 65.9668 -49.4629 66.4551 -50.293 67.2363 -50.4883 L 75.5859 -52.6855 C 76.3184 -52.8809 77.0508 -52.4414 77.2949 -51.6602 C 77.5879 -50.7812 77.0996 -50 76.3184 -49.8047 Z M 69.0918 -43.4082 C 68.3105 -43.2129 67.3828 -43.6523 67.2363 -44.4824 C 67.0898 -45.3125 67.5781 -46.0938 68.3105 -46.2891 L 76.6602 -48.4863 C 77.4902 -48.6816 78.2227 -48.2422 78.4668 -47.5098 C 78.7598 -46.6797 78.1738 -45.8984 77.4414 -45.7031 Z M 24.4141 0.878906 C 22.3145 -1.2207 22.3633 -4.58984 24.3652 -6.68945 C 26.3672 -8.78906 29.834 -8.69141 31.9336 -6.68945 C 34.082 -4.63867 33.9355 -1.2207 31.8848 0.878906 C 29.9316 2.88086 26.416 2.88086 24.4141 0.878906 Z"/>
  </g>
  <g id="Heavy-S" transform="matrix(1 0 0 1 2579.05 696)">
   <path d="M 14.2578 10.1562 C 21.875 17.7246 32.5195 17.3828 40.625 9.22852 C 48.3398 1.46484 57.4707 -15.8691 68.3105 -26.709 C 74.4141 -32.7637 81.4941 -29.1016 91.0645 -32.9102 L 84.3262 -57.7637 C 83.5938 -60.4004 84.8633 -62.5977 87.5488 -63.4277 L 103.711 -68.2129 C 103.076 -70.6055 101.562 -74.0723 98.9746 -76.709 C 88.9648 -86.9141 72.168 -87.3047 62.0117 -77.6367 C 47.2656 -63.5742 57.2266 -50.1953 50.2441 -43.2617 C 39.7461 -32.8125 23.5352 -24.6582 15.0879 -16.2109 C 7.03125 -8.10547 6.64062 2.58789 14.2578 10.1562 Z M 97.0215 -36.2793 C 98.3398 -37.3047 99.5605 -38.4766 100.732 -39.7461 C 105.518 -45.0684 107.617 -52.5879 105.811 -59.5703 L 94.043 -56.1035 C 93.1641 -55.8105 92.4805 -55.7617 91.7969 -55.8105 Z M 65.625 -51.3184 C 64.7461 -51.0742 63.916 -51.5625 63.6719 -52.4414 C 63.4766 -53.2227 63.9648 -54.0527 64.7949 -54.248 L 73.291 -56.543 C 74.0234 -56.7383 74.7559 -56.25 75.0977 -55.4688 C 75.4395 -54.5898 74.8535 -53.7598 74.0234 -53.5645 Z M 66.6504 -47.0215 C 65.7715 -46.7773 65.0391 -47.2656 64.7949 -48.1445 C 64.5508 -48.9258 65.0391 -49.7559 65.8203 -49.9512 L 74.3652 -52.2461 C 75.0977 -52.3926 75.8789 -51.9531 76.123 -51.1719 C 76.416 -50.293 75.8789 -49.4629 75.0977 -49.2676 Z M 67.7246 -42.7246 C 66.9434 -42.5293 66.0156 -42.9688 65.8203 -43.8477 C 65.6738 -44.6777 66.1621 -45.459 66.9434 -45.6543 L 75.4395 -47.9004 C 76.3184 -48.1445 77.0508 -47.6562 77.2949 -46.9238 C 77.5879 -46.0938 77.002 -45.2637 76.2695 -45.0684 Z M 23.291 1.12305 C 21.1426 -1.07422 21.1426 -4.63867 23.2422 -6.83594 C 25.3906 -9.0332 29.0039 -8.93555 31.25 -6.83594 C 33.4961 -4.63867 33.3496 -1.07422 31.2012 1.17188 C 29.1504 3.27148 25.4395 3.27148 23.291 1.12305 Z"/>
  </g>
  <g id="Bold-S" transform="matrix(1 0 0 1 2283.63 696)">
   <path d="M 13.9648 9.52148 C 21.1914 16.6992 31.25 16.3574 38.916 8.64258 C 45.7031 1.85547 55.8594 -16.4062 66.3086 -26.8555 C 72.5098 -33.0566 79.7363 -29.4922 88.4277 -33.0078 L 81.8359 -57.5195 C 81.0547 -60.2539 82.3242 -62.5 85.2539 -63.3301 L 100.879 -67.8223 C 100.293 -69.873 98.8281 -72.8516 96.5332 -75.1953 C 86.8652 -85.0586 70.752 -85.3516 61.084 -76.123 C 46.9727 -62.6953 56.8359 -49.4629 49.4629 -42.1387 C 38.916 -31.5918 23.0469 -23.7305 14.7949 -15.4297 C 7.12891 -7.71484 6.73828 2.34375 13.9648 9.52148 Z M 93.9941 -35.9375 C 95.3125 -36.8652 96.582 -38.0371 97.8516 -39.3555 C 102.734 -44.3848 104.98 -51.709 103.369 -57.9102 L 91.748 -54.541 C 90.7715 -54.248 89.9414 -54.1504 89.0625 -54.248 Z M 64.0137 -50.8301 C 63.1348 -50.5859 62.3535 -51.0254 62.0605 -51.9531 C 61.8652 -52.6855 62.3535 -53.5645 63.1836 -53.7598 L 71.9238 -56.1035 C 72.6562 -56.2988 73.4375 -55.8594 73.7305 -55.0293 C 74.0723 -54.1504 73.4863 -53.3203 72.6562 -53.0762 Z M 65.1367 -46.3867 C 64.209 -46.1426 63.4766 -46.6309 63.1836 -47.5098 C 62.9395 -48.291 63.4766 -49.1699 64.2578 -49.3652 L 72.998 -51.709 C 73.7793 -51.9043 74.5605 -51.416 74.8047 -50.6348 C 75.0977 -49.707 74.5605 -48.9258 73.7793 -48.6816 Z M 66.2109 -41.9922 C 65.3809 -41.7969 64.4531 -42.2363 64.3066 -43.1152 C 64.1113 -43.9453 64.5996 -44.7266 65.4297 -44.9707 L 74.1211 -47.2656 C 75 -47.5098 75.7812 -47.0215 76.0254 -46.2402 C 76.2695 -45.4102 75.6836 -44.5801 74.9512 -44.3848 Z M 22.1191 1.46484 C 19.8242 -0.878906 19.8242 -4.63867 22.0703 -6.98242 C 24.3164 -9.27734 28.125 -9.17969 30.4688 -6.98242 C 32.9102 -4.6875 32.666 -0.878906 30.4199 1.46484 C 28.2715 3.71094 24.3164 3.71094 22.1191 1.46484 Z"/>
  </g>
  <g id="Semibold-S" transform="matrix(1 0 0 1 1987.8 696)">
   <path d="M 13.7695 9.13086 C 20.7031 16.0156 30.3711 15.6738 37.793 8.25195 C 43.8965 2.09961 54.7852 -16.7969 64.8926 -26.9531 C 71.1914 -33.252 78.5156 -29.7852 86.6211 -33.1055 L 80.0781 -57.3242 C 79.3457 -60.1562 80.6152 -62.4023 83.6426 -63.2812 L 98.9258 -67.5293 C 98.3887 -69.3848 96.9238 -72.0215 94.873 -74.1211 C 85.4492 -83.7891 69.8242 -83.9844 60.4492 -75.0488 C 46.7773 -62.0605 56.543 -48.9746 48.9746 -41.4062 C 38.3301 -30.7617 22.7051 -23.0957 14.5996 -14.8926 C 7.17773 -7.42188 6.83594 2.14844 13.7695 9.13086 Z M 91.8945 -35.6934 C 93.2129 -36.6211 94.5312 -37.7441 95.8984 -39.0625 C 100.83 -43.8965 103.174 -51.0742 101.709 -56.7383 L 90.1855 -53.4668 C 89.1113 -53.1738 88.1836 -53.0762 87.1582 -53.1738 Z M 62.9395 -50.4395 C 62.0117 -50.1953 61.2305 -50.6348 60.9375 -51.6113 C 60.7422 -52.3438 61.2305 -53.2227 62.0605 -53.4668 L 70.9473 -55.8105 C 71.7285 -56.0059 72.5586 -55.5664 72.8027 -54.7363 C 73.1445 -53.8086 72.5586 -52.9785 71.7285 -52.7832 Z M 64.0625 -45.9473 C 63.1348 -45.7031 62.4023 -46.1914 62.1094 -47.1191 C 61.8652 -47.8516 62.3535 -48.7305 63.1836 -48.9746 L 72.0703 -51.3672 C 72.8516 -51.5625 73.6816 -51.0742 73.9258 -50.2441 C 74.2188 -49.3164 73.6816 -48.4863 72.8516 -48.291 Z M 65.1855 -41.4551 C 64.3555 -41.2598 63.4277 -41.6992 63.2324 -42.627 C 63.0859 -43.457 63.5254 -44.2383 64.3555 -44.4824 L 73.1934 -46.8262 C 74.0723 -47.0703 74.9023 -46.582 75.0977 -45.8008 C 75.3418 -44.9707 74.8047 -44.0918 74.0234 -43.8965 Z M 21.2402 1.66016 C 18.8965 -0.732422 18.8965 -4.6875 21.1914 -7.08008 C 23.584 -9.47266 27.5391 -9.32617 29.9316 -7.08008 C 32.4707 -4.6875 32.2266 -0.78125 29.8828 1.66016 C 27.6855 4.05273 23.584 4.00391 21.2402 1.66016 Z"/>
  </g>
  <g id="Medium-S" transform="matrix(1 0 0 1 1691.75 696)">
   <path d="M 13.623 8.78906 C 20.3613 15.5273 29.6875 15.1855 36.9141 7.95898 C 42.5293 2.29492 53.9551 -17.1387 63.8184 -27.002 C 70.2148 -33.3496 77.5391 -29.9805 85.2539 -33.1543 L 78.7598 -57.1777 C 78.0273 -60.0586 79.2969 -62.3535 82.4219 -63.2324 L 97.4121 -67.334 C 96.9238 -68.9941 95.5078 -71.3867 93.6035 -73.3398 C 84.375 -82.8125 69.0918 -82.959 59.9609 -74.2676 C 46.6797 -61.6211 56.3477 -48.584 48.584 -40.8203 C 37.8418 -30.127 22.4609 -22.6074 14.4531 -14.502 C 7.22656 -7.22656 6.88477 2.05078 13.623 8.78906 Z M 90.2832 -35.5469 C 91.6504 -36.4258 93.0176 -37.5 94.3848 -38.8184 C 99.3652 -43.5547 101.807 -50.5859 100.439 -55.8594 L 89.0137 -52.6855 C 87.8418 -52.3438 86.8652 -52.2461 85.7422 -52.3926 Z M 62.1094 -50.1953 C 61.1816 -49.9512 60.4004 -50.3906 60.1074 -51.3184 C 59.8633 -52.0508 60.4004 -52.9785 61.2305 -53.1738 L 70.2148 -55.6152 C 70.9961 -55.8105 71.875 -55.3223 72.1191 -54.4922 C 72.4121 -53.5645 71.8262 -52.7344 70.9961 -52.5391 Z M 63.2324 -45.6055 C 62.3535 -45.4102 61.5723 -45.8496 61.2793 -46.7773 C 61.0352 -47.5098 61.5234 -48.4375 62.4023 -48.6328 L 71.3867 -51.0742 C 72.1191 -51.2695 72.998 -50.7812 73.2422 -49.9512 C 73.5352 -49.0234 72.998 -48.1934 72.1191 -47.9492 Z M 64.3555 -41.0645 C 63.5254 -40.8691 62.6465 -41.3086 62.4512 -42.2363 C 62.2559 -43.1152 62.7441 -43.8965 63.5742 -44.0918 L 72.5098 -46.4844 C 73.3887 -46.7773 74.2188 -46.2402 74.4629 -45.459 C 74.6582 -44.5801 74.1211 -43.7012 73.3398 -43.5059 Z M 20.6055 1.80664 C 18.2129 -0.634766 18.2129 -4.6875 20.5566 -7.12891 C 22.998 -9.61914 27.0508 -9.47266 29.541 -7.12891 C 32.1777 -4.6875 31.8848 -0.683594 29.4922 1.85547 C 27.2461 4.24805 22.998 4.24805 20.6055 1.80664 Z"/>
  </g>
  <g id="Regular-S" transform="matrix(1 0 0 1 1395.91 696)">
   <path d="M 13.4277 8.39844 C 19.873 14.8438 28.8086 14.502 35.7422 7.56836 C 40.7227 2.53906 52.832 -17.5293 62.4512 -27.0996 C 68.8965 -33.5449 76.3672 -30.2734 83.4961 -33.2031 L 77.0508 -57.0312 C 76.2695 -59.9609 77.5879 -62.3047 80.8594 -63.1836 L 95.5078 -67.041 C 95.0195 -68.5059 93.6523 -70.5078 91.9434 -72.2656 C 82.959 -81.543 68.1641 -81.6406 59.3262 -73.1934 C 46.4844 -60.9863 56.0547 -48.0957 48.0469 -40.0391 C 37.3047 -29.2969 22.1191 -21.9727 14.2578 -13.9648 C 7.32422 -6.93359 6.93359 1.85547 13.4277 8.39844 Z M 61.0352 -49.8047 C 60.1074 -49.5605 59.375 -50 59.0332 -51.0254 C 58.7891 -51.709 59.3262 -52.6367 60.1562 -52.8809 L 69.2871 -55.3223 C 70.0684 -55.5176 70.9473 -55.0781 71.1914 -54.1992 C 71.4844 -53.2227 70.8984 -52.4414 70.0684 -52.1973 Z M 88.2324 -35.3027 C 89.5508 -36.1328 90.9668 -37.207 92.4316 -38.5254 C 97.5098 -43.0664 100 -49.9512 98.7793 -54.7363 L 87.4512 -51.6113 C 86.2305 -51.2695 85.1562 -51.1719 83.8867 -51.3184 Z M 62.207 -45.2148 C 61.2793 -44.9707 60.498 -45.3613 60.2051 -46.3867 C 59.9609 -47.1191 60.4492 -47.998 61.3281 -48.2422 L 70.459 -50.7324 C 71.1914 -50.9277 72.1191 -50.4395 72.3633 -49.5605 C 72.6562 -48.6328 72.0703 -47.8027 71.1914 -47.5586 Z M 63.3301 -40.5762 C 62.5 -40.332 61.5723 -40.8203 61.377 -41.748 C 61.1816 -42.627 61.6699 -43.4082 62.5488 -43.6523 L 71.6309 -46.0449 C 72.5098 -46.3379 73.3887 -45.8008 73.584 -45.0195 C 73.7793 -44.1406 73.2422 -43.2129 72.4609 -43.0664 Z M 19.8242 2.00195 C 17.334 -0.488281 17.2852 -4.6875 19.7266 -7.22656 C 22.2656 -9.81445 26.4648 -9.66797 29.0527 -7.22656 C 31.7383 -4.73633 31.3965 -0.585938 29.0039 2.05078 C 26.6602 4.58984 22.2656 4.54102 19.8242 2.00195 Z"/>
  </g>
  <g id="Light-S" transform="matrix(1 0 0 1 1099.76 696)">
   <path d="M 13.2324 7.71484 C 19.4824 13.916 28.0273 13.5742 34.7656 6.83594 C 40.625 1.02539 51.3672 -17.7246 61.4746 -27.7832 C 68.1641 -34.4727 75.2441 -30.8594 82.7148 -33.8379 L 76.1719 -57.5195 C 75.3418 -60.4492 76.4648 -62.9883 79.9805 -63.9648 L 94.0918 -67.7246 C 93.6035 -68.9453 92.4316 -70.6543 90.9668 -72.1191 C 82.2266 -81.0547 67.8223 -81.2012 59.1797 -72.998 C 46.5332 -60.9863 56.2988 -48.291 47.6074 -39.5996 C 37.2559 -29.248 21.875 -21.7285 14.0625 -13.8184 C 7.37305 -7.03125 6.98242 1.41602 13.2324 7.71484 Z M 60.791 -50.1465 C 60.0098 -49.9023 59.3262 -50.293 59.0332 -51.1719 C 58.8379 -51.8066 59.2773 -52.5879 60.0586 -52.832 L 68.7988 -55.1758 C 69.5312 -55.3711 70.2637 -54.9316 70.5078 -54.1992 C 70.752 -53.3691 70.2637 -52.6367 69.4824 -52.4414 Z M 86.5234 -35.498 C 88.0859 -36.377 89.7461 -37.6465 91.4551 -39.209 C 96.0449 -43.457 98.4863 -49.7559 97.7051 -54.3945 L 85.8887 -51.1719 C 84.5703 -50.7812 83.4473 -50.7324 82.2754 -50.9766 Z M 61.9141 -45.6055 C 61.084 -45.4102 60.4492 -45.8008 60.1562 -46.6309 C 59.9609 -47.3145 60.4004 -48.0957 61.1328 -48.291 L 69.9219 -50.6836 C 70.6055 -50.8301 71.3867 -50.4395 71.582 -49.6582 C 71.8262 -48.877 71.3379 -48.1445 70.6055 -47.9004 Z M 62.9883 -41.1133 C 62.2559 -40.8691 61.4746 -41.3086 61.2793 -42.1387 C 61.1328 -42.8711 61.5234 -43.5547 62.3047 -43.7988 L 71.0449 -46.0938 C 71.8262 -46.3379 72.5586 -45.8984 72.7539 -45.166 C 72.9004 -44.4336 72.4609 -43.6523 71.7773 -43.457 Z M 18.9453 2.05078 C 16.2598 -0.585938 16.2598 -5.07812 18.8965 -7.76367 C 21.5332 -10.498 25.9766 -10.4004 28.7598 -7.8125 C 31.543 -5.17578 31.3477 -0.732422 28.7109 2.05078 C 26.2207 4.73633 21.582 4.6875 18.9453 2.05078 Z"/>
  </g>
  <g id="Thin-S" transform="matrix(1 0 0 1 803.81 696)">
   <path d="M 13.0371 6.83594 C 18.9453 12.7441 27.002 12.4023 33.4961 5.95703 C 40.5273 -1.02539 49.4141 -17.9688 60.1562 -28.6621 C 67.1875 -35.6934 73.8281 -31.5918 81.7383 -34.6191 L 75 -58.1543 C 74.1699 -61.1328 74.9512 -63.916 78.8574 -64.9902 L 92.2363 -68.5547 C 91.6992 -69.5801 90.7715 -70.8008 89.6484 -71.9727 C 81.2988 -80.3711 67.2852 -80.7129 58.9844 -72.7539 C 46.6797 -61.0352 56.5918 -48.5352 47.0703 -39.0625 C 37.207 -29.1992 21.6309 -21.4355 13.8672 -13.6719 C 7.42188 -7.17773 7.08008 0.878906 13.0371 6.83594 Z M 60.498 -50.5371 C 59.8633 -50.3906 59.2773 -50.7324 59.082 -51.3672 C 58.9355 -51.9043 59.2773 -52.5879 59.9121 -52.7344 L 68.2129 -54.9805 C 68.7988 -55.127 69.3848 -54.7852 69.5801 -54.1504 C 69.7754 -53.5645 69.3848 -52.9297 68.75 -52.7832 Z M 84.3262 -35.791 C 86.1816 -36.7188 88.0859 -38.1348 90.1367 -40.0879 C 94.1895 -43.9453 96.4844 -49.5117 96.3379 -53.9062 L 83.8379 -50.5371 C 82.373 -50.1465 81.2012 -50.1953 80.127 -50.4883 Z M 61.5234 -46.1914 C 60.8887 -45.9961 60.3027 -46.3379 60.1074 -46.9727 C 59.9609 -47.5586 60.3027 -48.1934 60.9375 -48.3398 L 69.2383 -50.5859 C 69.8242 -50.7324 70.4102 -50.3906 70.6055 -49.7559 C 70.8008 -49.1699 70.4102 -48.5352 69.7754 -48.3887 Z M 62.5488 -41.7969 C 61.9141 -41.6016 61.3281 -41.9434 61.1816 -42.627 C 60.9863 -43.2129 61.3281 -43.7988 61.9629 -43.9453 L 70.2637 -46.1914 C 70.8984 -46.3867 71.4844 -45.9961 71.6309 -45.4102 C 71.7773 -44.8242 71.4355 -44.1895 70.8496 -44.043 Z M 17.8223 2.09961 C 14.8926 -0.732422 14.8926 -5.56641 17.7246 -8.49609 C 20.5566 -11.4258 25.3418 -11.4258 28.3691 -8.54492 C 31.2988 -5.71289 31.2012 -0.976562 28.3691 2.09961 C 25.6348 4.98047 20.7031 4.93164 17.8223 2.09961 Z"/>
  </g>
  <g id="Ultralight-S" transform="matrix(1 0 0 1 507.489 696)">
   <path d="M 12.9395 6.34766 C 18.6523 12.1094 26.4648 11.7676 32.8125 5.46875 C 40.4297 -2.05078 48.4375 -18.0664 59.4727 -29.1504 C 66.6504 -36.3281 73.0469 -31.9824 81.2012 -35.0586 L 74.4141 -58.4473 C 73.5352 -61.4746 74.2188 -64.4043 78.3203 -65.5273 L 91.2598 -68.9941 C 90.7227 -69.9219 89.9414 -70.8984 88.9648 -71.8262 C 80.8105 -80.0293 67.041 -80.4199 58.8379 -72.6562 C 46.7285 -61.0352 56.7383 -48.6816 46.7773 -38.7207 C 37.207 -29.1504 21.4844 -21.2891 13.7695 -13.5254 C 7.4707 -7.27539 7.12891 0.537109 12.9395 6.34766 Z M 60.3516 -50.7812 C 59.7656 -50.6348 59.2773 -50.9277 59.1309 -51.4648 C 58.9844 -52.002 59.2773 -52.5391 59.8145 -52.6855 L 67.8711 -54.8828 C 68.457 -55.0293 68.9453 -54.6875 69.0918 -54.1504 C 69.2383 -53.6621 68.9453 -53.0762 68.4082 -52.9297 Z M 83.2031 -35.9375 C 85.2051 -36.9141 87.2559 -38.4277 89.4531 -40.5762 C 93.2129 -44.2383 95.459 -49.3652 95.6055 -53.6621 L 82.7637 -50.1953 C 81.25 -49.8535 80.0293 -49.9023 79.0527 -50.2441 Z M 61.3281 -46.4844 C 60.791 -46.3379 60.2539 -46.6309 60.1074 -47.168 C 59.9609 -47.6562 60.2539 -48.2422 60.8398 -48.3887 L 68.8965 -50.5371 C 69.4336 -50.6836 69.9219 -50.3906 70.0684 -49.8535 C 70.2637 -49.3164 69.9219 -48.7793 69.3848 -48.6328 Z M 62.3047 -42.1387 C 61.7676 -41.9922 61.2305 -42.2852 61.084 -42.8711 C 60.9375 -43.3594 61.2305 -43.8965 61.8164 -44.0918 L 69.873 -46.2402 C 70.4102 -46.3867 70.9473 -46.0938 71.0938 -45.5078 C 71.2402 -45.0195 70.8984 -44.4824 70.3613 -44.3359 Z M 17.2363 2.14844 C 14.1602 -0.830078 14.1602 -5.81055 17.1387 -8.88672 C 20.0195 -11.9141 25 -11.9629 28.1738 -8.93555 C 31.2012 -6.05469 31.1523 -1.07422 28.1738 2.09961 C 25.293 5.07812 20.2148 5.0293 17.2363 2.14844 Z"/>
  </g>
 </g>
</svg>
